<?xml version="1.0" encoding="utf-8"?>
<!-- Generator: Adobe Illustrator 20.0.0, SVG Export Plug-In . SVG Version: 6.00 Build 0)  -->
<svg version="1.1" id="Layer_1" xmlns="http://www.w3.org/2000/svg" xmlns:xlink="http://www.w3.org/1999/xlink" x="0px" y="0px"
	 viewBox="0 0 258.6 58.9" style="enable-background:new 0 0 258.6 58.9;" xml:space="preserve">
<style type="text/css">
	.st0{fill-rule:evenodd;clip-rule:evenodd;fill:#0B54A2;}
	.st1{fill-rule:evenodd;clip-rule:evenodd;fill:#19A8E1;}
	.st2{fill-rule:evenodd;clip-rule:evenodd;fill:#F7AC3B;}
	.st3{fill-rule:evenodd;clip-rule:evenodd;fill:#1F3A6D;}
	.st4{fill-rule:evenodd;clip-rule:evenodd;fill:#007BC2;}
</style>
<g>
	<defs>
		<path id="SVGID_1_" d="M47.4,58.9H11.5C5.2,58.9,0,53.7,0,47.4V11.5C0,5.2,5.2,0,11.5,0h35.9c6.3,0,11.5,5.2,11.5,11.5v35.9
			C58.9,53.7,53.7,58.9,47.4,58.9"/>
	</defs>
	<use xlink:href="#SVGID_1_"  style="overflow:visible;fill-rule:evenodd;clip-rule:evenodd;fill:#FFFFFF;"/>
	<clipPath id="SVGID_2_">
		<use xlink:href="#SVGID_1_"  style="overflow:visible;"/>
	</clipPath>
</g>
<path class="st0" d="M50.4,50.3L50.4,50.3C47.4,52,43.6,51,41.9,48l-17.8-31c-1.7-2.9-0.7-6.7,2.3-8.4c2.9-1.7,6.7-0.7,8.4,2.3
	l17.8,31C54.3,44.8,53.3,48.6,50.4,50.3"/>
<path class="st1" d="M8.5,50.3L8.5,50.3C11.5,52,15.3,51,17,48l17.8-31c1.7-2.9,0.7-6.7-2.3-8.4c-2.9-1.7-6.7-0.7-8.4,2.3l-17.8,31
	C4.6,44.8,5.6,48.6,8.5,50.3"/>
<path class="st2" d="M35.7,44.8c0,3.5-2.8,6.3-6.3,6.3c-3.5,0-6.3-2.8-6.3-6.3s2.8-6.3,6.3-6.3C32.8,38.5,35.7,41.4,35.7,44.8"/>
<path class="st3" d="M33.6,9.4C33.5,9.4,33.5,9.3,33.6,9.4c-0.2-0.2-0.3-0.3-0.5-0.4C33,9,33,8.9,32.9,8.9c-0.1-0.1-0.2-0.1-0.3-0.2
	c-0.1-0.1-0.2-0.1-0.3-0.2c-0.1,0-0.1-0.1-0.2-0.1c-0.1-0.1-0.3-0.1-0.4-0.2c0,0-0.1,0-0.1,0c-0.2-0.1-0.3-0.1-0.5-0.1
	c0,0-0.1,0-0.1,0c-0.2,0-0.3-0.1-0.5-0.1c0,0-0.1,0-0.1,0c-0.1,0-0.3,0-0.4,0c-0.1,0-0.1,0-0.2,0c-0.1,0-0.2,0-0.3,0
	c-0.1,0-0.2,0-0.3,0c-0.1,0-0.1,0-0.2,0c-0.1,0-0.3,0-0.4,0c0,0-0.1,0-0.1,0c-0.2,0-0.3,0.1-0.5,0.1c0,0-0.1,0-0.1,0
	c-0.2,0-0.3,0.1-0.5,0.1c0,0-0.1,0-0.1,0c-0.1,0.1-0.3,0.1-0.4,0.2c-0.1,0-0.1,0.1-0.2,0.1c-0.1,0.1-0.2,0.1-0.3,0.2
	c-0.1,0.1-0.2,0.1-0.3,0.2c-0.1,0-0.1,0.1-0.2,0.1c-0.1,0.1-0.3,0.2-0.4,0.3c0,0,0,0-0.1,0.1c-2.1,1.9-2.7,5.1-1.2,7.7l5.3,9.3
	l5.3-9.3C36.3,14.5,35.7,11.3,33.6,9.4"/>
<path class="st4" d="M98.1,15.2H85.4c-0.8,0-1.4,0.2-1.8,0.6c-0.4,0.4-0.6,1.1-0.7,2l-0.4,5.3c-0.2,2.7-0.4,4.9-0.6,6.8
	c-0.2,1.8-0.4,3.3-0.8,4.5c-0.3,1.2-0.8,2.2-1.4,2.9c-0.6,0.7-1.5,1.3-2.5,1.8c-0.3,0.1-0.4,0.3-0.5,0.4c0,0.2,0,0.3,0,0.6l0.8,2.3
	c0.1,0.3,0.2,0.5,0.4,0.5c0.2,0.1,0.4,0.1,0.6,0c1.8-0.5,3.2-1.4,4.3-2.4c1-1.1,1.8-2.5,2.3-4.1c0.5-1.7,0.9-3.7,1.1-5.9
	c0.2-2.3,0.4-4.9,0.6-7.7l0.2-3.4h8.6v22.3c0,0.3,0.1,0.5,0.2,0.5c0.1,0.1,0.3,0.1,0.6,0.1h3.3c0.3,0,0.5,0,0.6-0.1
	c0.1-0.1,0.2-0.3,0.2-0.5V17.8C100.5,16.1,99.7,15.2,98.1,15.2"/>
<path class="st4" d="M114.4,21.5c-1.4,0-2.7,0.2-3.8,0.7c-1.1,0.5-2.1,1.2-3,2.1c-0.8,0.9-1.5,2-1.9,3.3c-0.5,1.3-0.7,2.8-0.7,4.5
	c0,3.5,0.8,6.1,2.3,7.9c1.5,1.8,3.9,2.7,7,2.7c3.1,0,5.5-0.9,7.1-2.8c1.6-1.8,2.4-4.5,2.4-7.9c0-3.3-0.8-5.9-2.4-7.7
	C119.8,22.5,117.5,21.5,114.4,21.5 M118.9,34.8c-0.2,0.8-0.4,1.5-0.8,2.2c-0.4,0.6-0.9,1.1-1.5,1.5c-0.6,0.4-1.4,0.6-2.3,0.6
	c-1.8,0-3-0.6-3.7-1.8c-0.7-1.2-1-2.9-1-5.1c0-1,0.1-1.9,0.3-2.7c0.2-0.8,0.5-1.5,0.9-2.1c0.4-0.6,0.9-1.1,1.5-1.4
	c0.6-0.4,1.3-0.5,2.2-0.5c0.9,0,1.7,0.2,2.3,0.5c0.6,0.4,1.1,0.9,1.4,1.5c0.3,0.6,0.6,1.4,0.7,2.2c0.1,0.8,0.2,1.7,0.2,2.6
	C119.2,33.1,119.1,33.9,118.9,34.8"/>
<path class="st4" d="M157.1,21.5c-1.4,0-2.7,0.2-3.8,0.7c-1.1,0.5-2.1,1.2-3,2.1c-0.8,0.9-1.5,2-1.9,3.3c-0.5,1.3-0.7,2.8-0.7,4.5
	c0,3.5,0.8,6.1,2.3,7.9c1.5,1.8,3.9,2.7,7,2.7c3.1,0,5.5-0.9,7.1-2.8c1.6-1.8,2.4-4.5,2.4-7.9c0-3.3-0.8-5.9-2.4-7.7
	C162.5,22.5,160.2,21.5,157.1,21.5 M161.6,34.8c-0.2,0.8-0.4,1.5-0.8,2.2c-0.4,0.6-0.9,1.1-1.5,1.5c-0.6,0.4-1.4,0.6-2.3,0.6
	c-1.8,0-3-0.6-3.7-1.8c-0.7-1.2-1-2.9-1-5.1c0-1,0.1-1.9,0.3-2.7c0.2-0.8,0.5-1.5,0.9-2.1c0.4-0.6,0.9-1.1,1.5-1.4
	c0.6-0.4,1.3-0.5,2.2-0.5c0.9,0,1.7,0.2,2.3,0.5c0.6,0.4,1.1,0.9,1.4,1.5c0.3,0.6,0.6,1.4,0.7,2.2c0.1,0.8,0.2,1.7,0.2,2.6
	C161.9,33.1,161.8,33.9,161.6,34.8"/>
<path class="st4" d="M191.1,30.5c-0.2-0.6-0.5-1.3-1-1.9c-0.4-0.6-1-1.2-1.7-1.6c-0.7-0.5-1.6-0.9-2.6-1.2c-1-0.3-2.3-0.4-3.8-0.4
	h-6.3v-6H188c0.3,0,0.5-0.1,0.5-0.2c0.1-0.1,0.1-0.3,0.1-0.5V16c0-0.3,0-0.5-0.1-0.6c-0.1-0.1-0.3-0.2-0.5-0.2h-14.6
	c-1.7,0-2.5,0.9-2.5,2.6v22.3c0,0.8,0.2,1.3,0.5,1.7c0.3,0.3,0.9,0.5,1.7,0.5h9.4c1.3,0,2.5-0.2,3.6-0.6c1.1-0.4,2.1-1,2.9-1.7
	c0.8-0.7,1.5-1.6,2-2.7c0.5-1,0.7-2.2,0.7-3.4c0-0.5,0-1-0.1-1.6C191.4,31.7,191.3,31.1,191.1,30.5 M186.5,35.1
	c-0.1,0.5-0.4,1-0.8,1.4c-0.4,0.4-0.8,0.8-1.4,1.1c-0.6,0.3-1.4,0.4-2.3,0.4h-6.3v-8.8h6.4c1.5,0,2.6,0.4,3.4,1.3
	c0.8,0.8,1.2,1.9,1.2,3.1C186.7,34.1,186.6,34.5,186.5,35.1"/>
<path class="st4" d="M204.1,21.5c-1.1,0-2.3,0.1-3.6,0.3c-1.3,0.2-2.5,0.5-3.6,0.9c-0.3,0.1-0.5,0.4-0.3,0.8l0.5,2.2
	c0.1,0.2,0.1,0.4,0.3,0.4c0.1,0.1,0.3,0,0.6,0c0.6-0.2,1.5-0.4,2.5-0.5c1-0.2,2-0.2,2.9-0.2c0.8,0,1.5,0.1,2,0.3
	c0.5,0.2,0.9,0.4,1.2,0.7c0.3,0.3,0.5,0.7,0.6,1.1c0.1,0.4,0.2,0.9,0.2,1.4v0.7H203c-1.5,0-2.9,0.2-3.9,0.6
	c-1.1,0.4-1.9,0.9-2.6,1.5c-0.7,0.6-1.2,1.4-1.5,2.2c-0.3,0.8-0.4,1.7-0.4,2.6c0,0.9,0.1,1.7,0.4,2.5c0.3,0.8,0.7,1.5,1.4,2.1
	c0.7,0.6,1.5,1,2.7,1.4c1.1,0.3,2.5,0.5,4.2,0.5c0.6,0,1.3,0,2-0.1c0.7,0,1.4-0.1,2.1-0.2c0.7-0.1,1.4-0.2,2-0.4
	c0.7-0.2,1.3-0.4,1.8-0.7c0.5-0.2,0.7-0.7,0.7-1.3V28.5c0-2.3-0.6-4-1.9-5.2C208.7,22.1,206.7,21.5,204.1,21.5z M207.3,38.5
	c-0.3,0.1-0.7,0.2-1.1,0.3c-0.4,0.1-0.8,0.1-1.1,0.2c-0.4,0.1-0.7,0.1-1,0.1c-0.3,0-0.6,0-0.8,0c-1.2,0-2.2-0.2-3-0.7
	c-0.7-0.4-1.1-1.2-1.1-2.3c0-0.8,0.1-1.4,0.4-1.8c0.3-0.4,0.7-0.8,1.1-1c0.5-0.2,0.9-0.4,1.4-0.4c0.5-0.1,1-0.1,1.4-0.1h3.7V38.5z"
	/>
<path class="st4" d="M233.7,22h-2.8c-0.3,0-0.5,0.1-0.6,0.2c-0.1,0.1-0.2,0.3-0.2,0.6v6.9h-8.6v-6.9c0-0.3-0.1-0.5-0.2-0.6
	c-0.1-0.1-0.3-0.1-0.7-0.1h-2.8c-0.3,0-0.5,0.1-0.6,0.2c-0.1,0.1-0.2,0.3-0.2,0.6v18.8c0,0.3,0.1,0.5,0.2,0.6
	c0.1,0.1,0.4,0.2,0.6,0.2h2.8c0.3,0,0.5,0,0.7-0.1c0.1-0.1,0.2-0.3,0.2-0.6v-8.2h8.6v8.2c0,0.3,0.1,0.5,0.2,0.6
	c0.1,0.1,0.4,0.2,0.6,0.2h2.8c0.3,0,0.6,0,0.7-0.1c0.1-0.1,0.2-0.3,0.2-0.6V22.7c0-0.3-0.1-0.5-0.2-0.6C234.3,22,234,22,233.7,22"/>
<path class="st4" d="M139.3,31.5l6.2-8.9c0.2-0.2,0-0.6-0.3-0.6h-3.5c-0.5,0-0.9,0.2-1.2,0.6l-4.9,7.1h-1.2h-1.1h-0.9v-7.1
	c0-0.3-0.1-0.5-0.2-0.5c-0.1-0.1-0.3-0.1-0.5-0.1h-3.1c-0.2,0-0.4,0-0.5,0.1c-0.1,0.1-0.2,0.2-0.2,0.5v19.1c0,0.3,0.1,0.5,0.2,0.5
	c0.1,0.1,0.3,0.1,0.5,0.1h3.1c0.3,0,0.4,0,0.5-0.1c0.1-0.1,0.2-0.2,0.2-0.5v-8.5h0.9h1.1h1.2l5.9,8.5c0.3,0.4,0.7,0.6,1.2,0.6h3.5
	c0.3,0,0.5-0.3,0.3-0.6L139.3,31.5z"/>
<path class="st4" d="M258.5,41.7l-7.1-10.3l6.2-8.9c0.2-0.2,0-0.6-0.3-0.6h-3.5c-0.5,0-0.9,0.2-1.2,0.6l-4.9,7.1h-1.2h-1.1h-0.9
	v-7.1c0-0.3-0.1-0.5-0.2-0.5c-0.1-0.1-0.3-0.1-0.5-0.1h-3.1c-0.2,0-0.4,0-0.5,0.1c-0.1,0.1-0.2,0.2-0.2,0.5v19.1
	c0,0.3,0.1,0.5,0.2,0.5c0.1,0.1,0.3,0.1,0.5,0.1h3.1c0.3,0,0.4,0,0.5-0.1c0.1-0.1,0.2-0.2,0.2-0.5v-8.5h0.9h1.1h1.2l5.9,8.5
	c0.3,0.4,0.7,0.6,1.2,0.6h3.5C258.5,42.3,258.7,42,258.5,41.7"/>
</svg>
