<?xml version="1.0" standalone="no"?>
<!DOCTYPE svg PUBLIC "-//W3C//DTD SVG 1.1//EN" "http://www.w3.org/Graphics/SVG/1.1/DTD/svg11.dtd" >
<svg xmlns="http://www.w3.org/2000/svg" xmlns:xlink="http://www.w3.org/1999/xlink" version="1.1">
<metadata>
Created by FontForge 20161013 at Thu Dec  1 18:47:06 2016
 By ,,,
Copyrighted (c) 1981, 1997 by and the property of Linotype-Hell AG and/or its subsidiaries. All Rights Reserved. All Cyrillic characters designed by DoubleAlex. Helvetica is a registered Trademark of Linotype-Hell AG and/or its subsidiaries.
</metadata>
<defs>
<font id="HelveticaNeueCyr-Thin" horiz-adv-x="556" >
  <font-face 
    font-family="HelveticaNeueCyr"
    font-weight="100"
    font-stretch="normal"
    units-per-em="1000"
    panose-1="0 0 0 0 0 0 0 0 0 0"
    ascent="800"
    descent="-200"
    x-height="512"
    cap-height="712"
    bbox="-34 -212 1035 909"
    underline-thickness="50"
    underline-position="-198"
    unicode-range="U+0020-E001"
  />
<missing-glyph horiz-adv-x="500" 
d="M125 63h250v589h-250v-589zM63 0v714h375v-714h-375z" />
    <glyph glyph-name=".notdef" horiz-adv-x="500" 
d="M125 63h250v589h-250v-589zM63 0v714h375v-714h-375z" />
    <glyph glyph-name=".null" horiz-adv-x="0" 
 />
    <glyph glyph-name="nonmarkingreturn" horiz-adv-x="333" 
 />
    <glyph glyph-name="space" unicode=" " horiz-adv-x="278" 
 />
    <glyph glyph-name="exclam" unicode="!" horiz-adv-x="259" 
d="M108 512v200h43v-200l-7 -332h-29zM106 0v98h47v-98h-47z" />
    <glyph glyph-name="quotedbl" unicode="&#x22;" horiz-adv-x="315" 
d="M68 685h39l-5 -275h-29zM207 685h39l-5 -275h-29z" />
    <glyph glyph-name="numbersign" unicode="#" 
d="M330 216h-156l-39 -216h-36l40 216h-122v34h128l34 186h-121v33h128l41 216h36l-42 -216h156l42 216h35l-41 -216h121v-33h-128l-34 -186h121v-34h-127l-40 -216h-36zM215 436l-34 -186h155l35 186h-156z" />
    <glyph glyph-name="dollar" unicode="$" 
d="M259 701v75h28v-75h2q102 0 159 -50t57 -140v-8h-40q0 81 -43 120.5t-135 43.5v-296q243 -34 243 -194q0 -88 -65 -139.5t-176 -51.5h-2v-88h-28v88q-243 5 -243 214v9h41q0 -3 -0.5 -7.5t-0.5 -5.5q0 -92 53 -132.5t150 -45.5v320q-46 9 -78 19t-66.5 29.5t-52.5 53
t-18 79.5q0 80 59 130t156 52zM259 377v289q-82 -4 -128.5 -42t-46.5 -102q0 -124 175 -145zM287 332v-314q88 2 145 39.5t57 120.5q0 32 -13 57.5t-30.5 40t-48.5 27t-52.5 17.5t-57.5 12z" />
    <glyph glyph-name="percent" unicode="%" horiz-adv-x="778" 
d="M146 -22l444 732h35l-443 -732h-36zM576 341q70 0 116.5 -49.5t46.5 -124.5q0 -79 -45.5 -129t-118.5 -50t-118.5 48.5t-45.5 126.5q0 77 47 127.5t118 50.5zM208 700q72 0 118 -49t46 -126q0 -79 -46 -129t-118 -50q-73 0 -118.5 49.5t-45.5 128.5q0 76 46.5 126
t117.5 50zM573 310q-53 0 -89.5 -41.5t-36.5 -102.5q0 -66 36.5 -108t92.5 -42q54 0 90.5 42.5t36.5 105.5t-37 104.5t-93 41.5zM207 669q-55 0 -91 -41t-36 -104q0 -65 36 -106.5t92 -41.5q55 0 91.5 42.5t36.5 106.5q0 63 -36.5 103.5t-92.5 40.5z" />
    <glyph glyph-name="ampersand" unicode="&#x26;" horiz-adv-x="593" 
d="M478 294h38q-3 -79 -37 -152l117 -142h-51l-87 107q-74 -119 -207 -119q-92 0 -151 51t-59 132q0 38 16 72t46.5 62.5t57.5 47t66 40.5q-24 28 -34 40.5t-28.5 39.5t-26.5 50.5t-8 46.5q0 61 43 99t111 38q64 0 106 -38t42 -96q0 -33 -12 -60.5t-39 -53t-44.5 -38.5
t-53.5 -37l170 -211q22 61 25 121zM261 411q132 74 132 159q0 44 -32 73.5t-79 29.5q-49 0 -81.5 -29t-32.5 -73q0 -24 18.5 -58t32.5 -52t42 -50zM435 136l-186 229q-36 -21 -58.5 -36t-51 -40t-43 -54.5t-14.5 -63.5q0 -65 49 -108.5t122 -43.5q56 0 103.5 31t78.5 86z
" />
    <glyph glyph-name="quotesingle" unicode="'" horiz-adv-x="204" 
d="M82 685h39l-5 -275h-29z" />
    <glyph glyph-name="parenleft" unicode="(" horiz-adv-x="241" 
d="M196 720h35q-58 -96 -90.5 -216t-32.5 -239q0 -224 123 -447h-35q-128 225 -128 450q0 234 128 452z" />
    <glyph glyph-name="parenright" unicode=")" horiz-adv-x="241" 
d="M173 268q0 -225 -128 -450h-35q123 223 123 447q0 119 -32.5 239t-90.5 216h35q128 -218 128 -452z" />
    <glyph glyph-name="asterisk" unicode="*" horiz-adv-x="352" 
d="M190 596l123 42l10 -27l-125 -41l78 -105l-23 -17l-77 105l-80 -103l-24 17l80 103l-123 41l9 27l123 -42v130h29v-130z" />
    <glyph glyph-name="plus" unicode="+" horiz-adv-x="600" 
d="M318 254v-225h-35v225h-227v33h227v224h35v-224h227v-33h-227z" />
    <glyph glyph-name="comma" unicode="," horiz-adv-x="278" 
d="M114 0v102h50v-85q0 -53 -12.5 -89.5t-51.5 -53.5v34q33 21 34 92h-20z" />
    <glyph glyph-name="hyphen" unicode="-" horiz-adv-x="352" 
d="M69 251v39h214v-39h-214z" />
    <glyph glyph-name="period" unicode="." horiz-adv-x="278" 
d="M114 0v102h50v-102h-50z" />
    <glyph glyph-name="slash" unicode="/" horiz-adv-x="333" 
d="M-8 -7l317 725h35l-318 -725h-34z" />
    <glyph glyph-name="zero" unicode="0" 
d="M278 700q57 0 102 -22t72 -57t45 -83t24.5 -95.5t6.5 -99.5t-6.5 -99.5t-24.5 -95.5t-45.5 -83t-72.5 -56.5t-103 -21.5q-120 0 -184 88.5t-64 256.5q0 67 11.5 126.5t37.5 116.5t77.5 91t123.5 34zM278 662q-99 0 -154 -87.5t-55 -244.5q0 -44 5 -84t19 -82.5t36.5 -73
t60 -50t86.5 -19.5q61 0 105 30t65.5 80.5t30.5 102t9 108.5t-8.5 108t-30 101.5t-65 80.5t-104.5 30z" />
    <glyph glyph-name="one" unicode="1" 
d="M297 688h36v-688h-42v614q-43 -43 -83 -62t-100 -26v34q69 15 107.5 40.5t81.5 87.5z" />
    <glyph glyph-name="two" unicode="2" 
d="M92 37h413v-37h-459q6 77 47.5 130t118.5 105l62 42l51 36t46 37.5t43.5 46t26.5 50.5t12 62q0 71 -46 113t-125 42q-93 0 -136 -56.5t-45 -151.5h-41q1 9 1 21q4 102 62 162.5t161 60.5q96 0 153 -52t57 -138q0 -64 -31 -112.5t-89 -94.5q-42 -33 -120 -86
q-40 -27 -54 -37.5t-43.5 -36t-44 -50.5t-20.5 -56z" />
    <glyph glyph-name="three" unicode="3" 
d="M91 471h-37q2 108 62 168.5t166 60.5q96 0 154.5 -49t58.5 -129q0 -63 -39.5 -105t-98.5 -49q69 -11 112.5 -54.5t43.5 -118.5q0 -94 -65.5 -151t-171.5 -57q-110 0 -175 59t-65 161v20h39v-14q0 -90 53.5 -141t148.5 -51q86 0 140.5 47.5t54.5 122.5q0 158 -209 158h-23
v34h28q89 0 137.5 35.5t48.5 102.5q0 65 -47 104t-126 39q-89 0 -138 -49.5t-52 -143.5z" />
    <glyph glyph-name="four" unicode="4" 
d="M405 690v-479h113v-35h-113v-176h-40v176h-333v41l333 473h40zM318 567l-251 -356h298v343q0 49 1 87q-43 -67 -48 -74z" />
    <glyph glyph-name="five" unicode="5" 
d="M58 333l71 352h349v-38h-320l-57 -270q61 84 175 84q101 0 167 -67t66 -170t-67.5 -170t-170.5 -67q-106 0 -169 59.5t-65 162.5h39q3 -85 53.5 -137t141.5 -52q86 0 141.5 57.5t55.5 145.5t-56 145.5t-142 57.5q-112 0 -173 -94z" />
    <glyph glyph-name="six" unicode="6" 
d="M506 518h-41q-8 64 -56 105.5t-116 41.5q-53 0 -92.5 -24.5t-62 -61t-36 -88t-17.5 -95t-4 -91.5q25 70 80 109.5t131 39.5q98 0 163 -66.5t65 -166.5q0 -101 -67 -167.5t-168 -66.5q-129 0 -193 100q-49 77 -49 231q0 185 65 283.5t186 98.5q87 0 144 -50t68 -132z
M284 419q-81 0 -136.5 -57t-55.5 -141q0 -85 55.5 -143t138.5 -58t138 57.5t55 142.5q0 86 -55.5 142.5t-139.5 56.5z" />
    <glyph glyph-name="seven" unicode="7" 
d="M56 647v38h443v-40q-132 -130 -211 -304.5t-84 -340.5h-43q4 168 88 349t213 298h-406z" />
    <glyph glyph-name="eight" unicode="8" 
d="M193 373q-129 30 -129 153q0 81 57.5 127.5t156.5 46.5q100 0 157 -45.5t57 -126.5q0 -61 -35.5 -101.5t-92.5 -53.5q70 -10 113 -56.5t43 -120.5q0 -98 -64 -153.5t-176 -55.5q-114 0 -179.5 54.5t-65.5 150.5q0 75 44 122.5t114 58.5zM277 664q-82 0 -127 -36.5
t-45 -102.5q0 -64 46.5 -100t127.5 -36q80 0 126 36.5t46 100.5q0 66 -45.5 102t-128.5 36zM276 356q-93 0 -146 -43.5t-53 -119.5q0 -81 53.5 -127t148.5 -46q93 0 146 46.5t53 126.5q0 77 -53.5 120t-148.5 43z" />
    <glyph glyph-name="nine" unicode="9" 
d="M53 163h40q11 -65 58.5 -103.5t115.5 -38.5q100 0 153.5 84.5t53.5 242.5v38q-59 -154 -210 -154q-99 0 -164.5 66t-65.5 166q0 101 66.5 168.5t166.5 67.5q126 0 192 -97q54 -80 54 -240q0 -376 -247 -376q-87 0 -145 47.5t-68 128.5zM267 664q-81 0 -136.5 -57
t-55.5 -142t55 -141t138 -56t138.5 56.5t55.5 141.5q0 84 -56 141t-139 57z" />
    <glyph glyph-name="colon" unicode=":" horiz-adv-x="278" 
d="M114 0v102h50v-102h-50zM114 410v102h50v-102h-50z" />
    <glyph glyph-name="semicolon" unicode=";" horiz-adv-x="278" 
d="M114 0v102h50v-85q0 -53 -12.5 -89.5t-51.5 -53.5v34q33 21 34 92h-20zM114 410v102h50v-102h-50z" />
    <glyph glyph-name="less" unicode="&#x3c;" horiz-adv-x="600" 
d="M544 87v-37l-489 202v36l489 203v-36l-447 -185z" />
    <glyph glyph-name="equal" unicode="=" horiz-adv-x="600" 
d="M544 376v-33h-489v33h489zM544 193v-33h-489v33h489z" />
    <glyph glyph-name="greater" unicode="&#x3e;" horiz-adv-x="600" 
d="M56 491l489 -203v-36l-489 -202v37l448 183l-448 185v36z" />
    <glyph glyph-name="question" unicode="?" horiz-adv-x="519" 
d="M82 491h-39q0 101 55 168.5t162 67.5q91 0 147.5 -50t56.5 -129q0 -33 -8 -60t-30.5 -55t-35 -40.5t-47.5 -44.5q-46 -43 -57 -70t-11 -99h-39v11q0 69 15.5 103t65.5 81q35 33 52 51t35.5 52.5t18.5 69.5q0 63 -46 103.5t-118 40.5q-89 0 -133.5 -58.5t-43.5 -141.5z
M232 0v102h46v-102h-46z" />
    <glyph glyph-name="at" unicode="@" horiz-adv-x="800" 
d="M708 110l15 -20q-75 -52 -146.5 -76.5t-159.5 -24.5q-165 0 -277.5 97t-112.5 256q0 169 120.5 275.5t288.5 106.5q141 0 237 -79.5t96 -214.5q0 -94 -56 -176.5t-145 -82.5q-31 0 -52 18t-21 48q0 6 8 46q-53 -112 -150 -112q-63 0 -98 42.5t-35 105.5q0 86 57 161.5
t140 75.5q55 0 88 -31.5t36 -84.5l31 103h35l-59 -191q-25 -86 -25 -110q0 -22 15 -33.5t38 -11.5q50 0 89.5 40.5t58 93t18.5 100.5q0 126 -90 196t-217 70q-158 0 -269.5 -100.5t-111.5 -254.5q0 -100 51.5 -176.5t133 -114.5t178.5 -38q83 0 149.5 23.5t141.5 73.5z
M522 422q0 47 -26.5 77.5t-73.5 30.5q-69 0 -116 -69.5t-47 -143.5q0 -51 26 -85t75 -34q54 0 91 42.5t57 102.5q14 45 14 79z" />
    <glyph glyph-name="A" unicode="A" horiz-adv-x="593" 
d="M-11 0l287 712h46l283 -712h-48l-89 230h-343l-91 -230h-45zM271 599l-133 -333h316l-130 330q-5 12 -13.5 38t-12.5 37z" />
    <glyph glyph-name="B" unicode="B" horiz-adv-x="630" 
d="M337 0h-275v712h293q92 0 155 -45t63 -132q0 -62 -37.5 -106.5t-99.5 -55.5q72 -8 116.5 -55t44.5 -120q0 -103 -83 -158q-61 -40 -177 -40zM343 675h-238v-288h224q201 0 201 143q0 76 -52.5 110.5t-134.5 34.5zM340 351h-235v-313h229q220 0 220 161q0 152 -214 152z
" />
    <glyph glyph-name="C" unicode="C" horiz-adv-x="704" 
d="M632 276h41q-10 -130 -95 -210t-213 -80q-147 0 -236.5 101t-89.5 267q0 168 91.5 271.5t239.5 103.5q108 0 194 -63.5t98 -167.5h-42q-19 89 -87 140.5t-165 51.5q-128 0 -207 -92.5t-79 -242.5t78 -241.5t206 -91.5q113 0 183 71t83 183z" />
    <glyph glyph-name="D" unicode="D" horiz-adv-x="667" 
d="M305 0h-241v712h240q158 0 241 -92t83 -253q0 -166 -79.5 -266.5t-243.5 -100.5zM302 674h-195v-636h183q295 0 295 326q0 144 -70 227t-213 83z" />
    <glyph glyph-name="E" unicode="E" horiz-adv-x="560" 
d="M58 0v712h480v-38h-437v-285h410v-38h-410v-313h441v-38h-484z" />
    <glyph glyph-name="F" unicode="F" horiz-adv-x="514" 
d="M70 0v712h448v-38h-405v-286h364v-37h-364v-351h-43z" />
    <glyph glyph-name="G" unicode="G" horiz-adv-x="741" 
d="M382 312v36h301v-348h-31l-6 127l1 46q-27 -90 -103 -138.5t-170 -48.5q-150 0 -243 100t-93 262q0 169 93 274t243 105q113 0 197 -65t100 -171h-41q-19 91 -90 144.5t-166 53.5q-133 0 -213 -93.5t-80 -247.5q0 -147 80.5 -237t213.5 -90q122 0 196 76.5t74 202.5v12
h-263z" />
    <glyph glyph-name="H" unicode="H" horiz-adv-x="670" 
d="M564 391v321h43v-712h-43v353h-457v-353h-43v712h43v-321h457z" />
    <glyph glyph-name="I" unicode="I" horiz-adv-x="170" 
d="M64 0v712h43v-712h-43z" />
    <glyph glyph-name="J" unicode="J" horiz-adv-x="481" 
d="M376 196v516h43v-519q0 -207 -197 -207q-106 0 -152.5 53t-46.5 159q0 14 1 27h41v-21q0 -92 33.5 -137.5t123.5 -45.5q86 0 120 45t34 130z" />
    <glyph glyph-name="K" unicode="K" horiz-adv-x="613" 
d="M104 303l450 409h57l-328 -296l348 -416h-55l-324 387l-148 -135v-252h-43v712h43v-409z" />
    <glyph glyph-name="L" unicode="L" horiz-adv-x="500" 
d="M105 712v-673h406v-39h-450v712h44z" />
    <glyph glyph-name="M" unicode="M" horiz-adv-x="809" 
d="M687 712h59v-712h-42v533q0 69 6 139q-6 -14 -16 -42.5t-16 -41.5l-251 -588h-42l-252 581q-2 4 -33 89q5 -115 5 -137v-533h-42v712h60l227 -528l56 -139q18 51 50 125q164 385 231 542z" />
    <glyph glyph-name="N" unicode="N" horiz-adv-x="678" 
d="M566 187l-1 525h43v-712h-49l-399 564q-39 56 -62 98q3 -27 3 -109v-553h-42v712h50l391 -554q33 -48 69 -107q-3 67 -3 136z" />
    <glyph glyph-name="O" unicode="O" horiz-adv-x="741" 
d="M369 729q151 0 245.5 -105t94.5 -273q0 -165 -94 -265.5t-246 -100.5t-244.5 101.5t-92.5 269.5q0 166 93.5 269.5t243.5 103.5zM369 691q-91 0 -159 -47.5t-101 -122t-33 -163.5q0 -151 81 -244t212 -93q132 0 214 92t82 240q0 150 -82.5 244t-213.5 94z" />
    <glyph glyph-name="P" unicode="P" horiz-adv-x="591" 
d="M109 0h-43v712h277q103 0 152 -33q80 -54 80 -164q0 -105 -74 -159q-56 -41 -146 -41h-246v-315zM336 674h-227v-322h221q86 0 127 24q75 44 75 137q0 92 -63 133q-29 19 -57.5 23.5t-75.5 4.5z" />
    <glyph glyph-name="Q" unicode="Q" horiz-adv-x="741" 
d="M601 74l110 -77l-22 -28l-117 82q-77 -65 -200 -65q-157 0 -248.5 103t-91.5 262q0 168 94 272.5t245 104.5q149 0 243 -103t94 -267q0 -85 -28 -159.5t-79 -124.5zM426 155l23 29l119 -85q96 105 96 259q0 147 -81.5 239t-211.5 92q-132 0 -213.5 -93t-81.5 -243
q0 -142 78 -236.5t218 -94.5q96 0 166 54z" />
    <glyph glyph-name="R" unicode="R" horiz-adv-x="630" 
d="M107 0h-43v712h293q96 0 148 -33q79 -53 79 -156q0 -71 -41 -118t-110 -60q55 -9 88 -32.5t43 -77.5q6 -32 9 -99.5t10 -101.5q3 -15 14 -34h-48q-6 9 -10 29q-2 14 -4 43t-3.5 62t-2.5 41q-7 94 -52.5 123t-148.5 29h-221v-327zM343 675h-236v-312h215q36 0 65 3.5
t59 13.5t50 27t32.5 46t12.5 68q0 86 -65 126q-46 28 -133 28z" />
    <glyph glyph-name="S" unicode="S" horiz-adv-x="630" 
d="M571 509h-43q-11 180 -224 180q-94 0 -147 -39.5t-53 -109.5q0 -31 11 -54t29 -38t47 -26.5t59.5 -19t71.5 -16.5q22 -4 33 -7q34 -8 48.5 -11.5t45 -13t45.5 -17.5t36.5 -23t32 -31.5t18.5 -41t8 -53.5q0 -95 -70.5 -148t-196.5 -53q-132 0 -207 62t-75 187h41
q2 -108 65.5 -161.5t177.5 -53.5q105 0 164 43.5t59 121.5q0 23 -7 42t-16.5 33t-28 26t-32.5 19t-39.5 14.5t-38.5 10.5t-40.5 9t-36.5 8q-111 26 -147 42q-100 45 -100 149q0 87 65.5 137.5t180.5 50.5q117 0 187 -54t77 -164z" />
    <glyph glyph-name="T" unicode="T" horiz-adv-x="519" 
d="M-13 674v38h546v-38h-252v-674h-43v674h-251z" />
    <glyph glyph-name="U" unicode="U" horiz-adv-x="672" 
d="M565 277v435h43v-469q0 -121 -72.5 -188.5t-197.5 -67.5q-146 0 -213 75t-67 217v433h44v-435q0 -126 55 -190.5t181 -64.5q122 0 174.5 66t52.5 189z" />
    <glyph glyph-name="V" unicode="V" 
d="M315 140l211 572h44l-265 -712h-50l-268 712h46l213 -570q8 -20 20 -57.5t15 -46.5q5 21 34 102z" />
    <glyph glyph-name="W" unicode="W" horiz-adv-x="889" 
d="M693 159l157 553h43l-204 -712h-49l-167 562q-21 70 -30 110q-9 -38 -31 -112l-163 -560h-49l-205 712h44l157 -546q21 -73 30 -120q5 31 30 118l161 548h53l165 -553q16 -54 30 -113q9 49 28 113z" />
    <glyph glyph-name="X" unicode="X" 
d="M277 397l232 315h49l-254 -346l267 -366h-53l-241 333l-243 -333h-49l266 366l-251 346h50z" />
    <glyph glyph-name="Y" unicode="Y" horiz-adv-x="574" 
d="M318 382l229 330h49l-288 -415v-297h-43v297l-285 415h50l226 -328q18 -26 32 -50z" />
    <glyph glyph-name="Z" unicode="Z" horiz-adv-x="537" 
d="M27 673v39h501v-42l-484 -632h493v-38h-538v43l482 631q-11 0 -23.5 -0.5t-39.5 -0.5h-391z" />
    <glyph glyph-name="bracketleft" unicode="[" horiz-adv-x="241" 
d="M94 -182v903h137v-33h-98v-837h98v-33h-137z" />
    <glyph glyph-name="backslash" unicode="\" horiz-adv-x="333" 
d="M-8 718h33l319 -725h-36z" />
    <glyph glyph-name="bracketright" unicode="]" horiz-adv-x="241" 
d="M10 688v34h138v-904h-138v33h99v837h-99z" />
    <glyph glyph-name="asciicircum" unicode="^" horiz-adv-x="600" 
d="M300 646l-145 -372h-39l165 411h39l165 -411h-39z" />
    <glyph glyph-name="underscore" unicode="_" horiz-adv-x="500" 
d="M500 -73v-50h-500v50h500z" />
    <glyph glyph-name="grave" unicode="`" horiz-adv-x="167" 
d="M102 596l-133 140h50l121 -140h-38z" />
    <glyph glyph-name="a" unicode="a" horiz-adv-x="500" 
d="M499 36v-32q-14 -4 -41 -4q-34 0 -46.5 17.5t-12.5 66.5v25q-32 -63 -79.5 -92t-120.5 -29q-80 0 -124.5 37t-44.5 104q0 141 196 157q103 8 128 13.5t35 21.5q7 11 7 53q0 58 -37 88t-108 30q-143 0 -155 -137h-38q5 83 56 127t141 44q103 0 152 -55q14 -16 21 -38.5
t7.5 -36.5t0.5 -44v-265q0 -15 0.5 -22t4 -16t11.5 -13t21 -4q10 0 26 4zM397 200v90q-15 -13 -35 -19q-31 -10 -110 -18t-119 -26q-60 -27 -60 -94q0 -52 36 -82t97 -30q82 0 136.5 51t54.5 128z" />
    <glyph glyph-name="b" unicode="b" 
d="M58 0v712h40v-321q51 138 195 138q104 0 165 -73.5t61 -198.5t-61 -198t-165 -73q-150 0 -197 137v-123h-38zM286 494q-85 0 -136.5 -64.5t-51.5 -171.5q0 -109 52 -174.5t139 -65.5q86 0 137.5 64t51.5 173q1 111 -51 175t-141 64z" />
    <glyph glyph-name="c" unicode="c" horiz-adv-x="519" 
d="M449 180h40q-12 -92 -69 -142.5t-149 -50.5q-112 0 -173.5 75.5t-61.5 191.5q0 125 65.5 199t174.5 74q89 0 144 -45.5t65 -126.5h-41q-8 63 -53 100.5t-114 37.5q-91 0 -145.5 -64.5t-54.5 -172.5q0 -107 53 -172t140 -65q74 0 121.5 43t57.5 118z" />
    <glyph glyph-name="d" unicode="d" 
d="M456 394v318h40v-712h-38v125q-19 -67 -71 -103t-124 -36q-106 0 -167.5 71.5t-61.5 196.5t62.5 199.5t166.5 74.5q70 0 120 -35.5t73 -98.5zM264 493q-86 0 -137 -64.5t-51 -174.5t50.5 -173t138.5 -63q89 0 140.5 64t51.5 174q0 99 -48.5 168t-144.5 69z" />
    <glyph glyph-name="e" unicode="e" horiz-adv-x="519" 
d="M445 174h40q-14 -86 -71.5 -137.5t-147.5 -51.5q-106 0 -169.5 72t-63.5 194t64.5 198.5t168.5 76.5q108 0 166 -76t58 -188v-14h-415q0 -97 48.5 -164t143.5 -67q70 0 116.5 41t61.5 116zM75 283h374q0 85 -47.5 146t-135.5 61t-135 -58t-56 -149z" />
    <glyph glyph-name="f" unicode="f" horiz-adv-x="241" 
d="M254 713v-36q-32 3 -40 3q-24 0 -40 -7t-24.5 -15t-12.5 -26.5t-4.5 -30t-0.5 -35.5v-10v-44h107v-35h-107v-477h-40v477h-89v35h89v64q0 69 23.5 104.5t96.5 35.5q12 0 42 -3z" />
    <glyph glyph-name="g" unicode="g" horiz-adv-x="537" 
d="M444 395v117h37v-471q0 -93 -29 -144q-51 -90 -193 -90q-92 0 -144 40.5t-58 116.5h41q4 -61 48 -92t115 -31q104 0 149 60q32 44 32 139v108q-49 -131 -192 -131q-99 0 -158 68t-59 181q0 118 61.5 189t162.5 71q135 0 187 -131zM258 490q-84 0 -134 -59.5t-50 -159.5
t49 -159t132 -59q91 0 139 63.5t48 158.5q0 97 -50.5 156t-133.5 59z" />
    <glyph glyph-name="h" unicode="h" horiz-adv-x="519" 
d="M58 0v712h40v-283l-1 -33q22 59 68.5 94t115.5 35q91 0 137 -53t46 -144v-328h-40v322q0 77 -36.5 123t-114.5 46q-64 0 -107 -38.5t-59 -101.5q-9 -36 -9 -91v-260h-40z" />
    <glyph glyph-name="i" unicode="i" horiz-adv-x="168" 
d="M64 611v101h40v-101h-40zM64 0v512h40v-512h-40z" />
    <glyph glyph-name="j" unicode="j" horiz-adv-x="168" 
d="M65 -55v567h40v-564q0 -71 -24 -102t-91 -31q-4 0 -24 2v34h20q48 0 63.5 20.5t15.5 73.5zM65 612v100h40v-100h-40z" />
    <glyph glyph-name="k" unicode="k" horiz-adv-x="463" 
d="M138 277l275 235h55l-225 -191l240 -321h-51l-219 293l-116 -99v-194h-40v712h40v-472q7 6 20.5 18.5t20.5 18.5z" />
    <glyph glyph-name="l" unicode="l" horiz-adv-x="168" 
d="M64 0v712h40v-712h-40z" />
    <glyph glyph-name="m" unicode="m" horiz-adv-x="796" 
d="M59 0v512h38v-104q21 53 63.5 85.5t103.5 32.5q117 0 149 -110q52 110 166 110q77 0 119.5 -45.5t42.5 -119.5v-361h-40v346q0 143 -130 143q-66 0 -105 -41q-46 -47 -46 -133v-315h-40v338q0 60 -15 90q-29 61 -109 61q-73 0 -115 -53t-42 -145v-291h-40z" />
    <glyph glyph-name="n" unicode="n" horiz-adv-x="519" 
d="M57 0v512h39v-113q56 127 189 127q85 0 132.5 -50.5t47.5 -139.5v-336h-40v316q0 174 -149 174q-101 0 -150 -84q-29 -51 -29 -141v-265h-40z" />
    <glyph glyph-name="o" unicode="o" horiz-adv-x="537" 
d="M270 527q107 0 171.5 -74.5t64.5 -199.5q0 -123 -64.5 -194.5t-172.5 -71.5q-109 0 -173.5 72.5t-64.5 196.5q0 122 65.5 196.5t173.5 74.5zM269 492q-88 0 -142.5 -65t-54.5 -171q0 -108 53.5 -172t144.5 -64q88 0 141 63.5t53 169.5q0 109 -53 174t-142 65z" />
    <glyph glyph-name="p" unicode="p" 
d="M62 -183v695h38v-122q50 136 191 136q104 0 166.5 -74.5t62.5 -198.5q0 -122 -62.5 -195.5t-165.5 -73.5q-72 0 -121.5 34t-68.5 98v-299h-40zM289 492q-89 0 -139 -63.5t-50 -176.5q0 -63 18.5 -114.5t63 -86.5t108.5 -35q85 0 136.5 65t51.5 172q0 110 -51 174.5
t-138 64.5z" />
    <glyph glyph-name="q" unicode="q" 
d="M456 392v120h38v-695h-40v300q-49 -130 -193 -130q-104 0 -165 72t-61 195q0 125 62.5 199.5t167.5 74.5q139 0 191 -136zM266 493q-88 0 -139 -64.5t-51 -175.5q0 -108 51 -171t138 -63t138.5 63.5t51.5 171.5q0 112 -50.5 175.5t-138.5 63.5z" />
    <glyph glyph-name="r" unicode="r" horiz-adv-x="278" 
d="M294 516v-41h-15q-89 0 -141 -69q-28 -37 -35.5 -79.5t-7.5 -105.5v-221h-40v512h39v-135q28 74 75 106.5t125 32.5z" />
    <glyph glyph-name="s" unicode="s" horiz-adv-x="481" 
d="M429 363h-41q-6 68 -45.5 98t-112.5 30q-64 0 -101.5 -27t-37.5 -73q0 -12 2.5 -22t6 -17.5t11.5 -15t13 -12t17.5 -10t18.5 -8t22 -6.5t22.5 -6t25 -6t24.5 -5q37 -8 53 -12.5t48 -17t47.5 -26t28.5 -37.5t13 -55q0 -67 -55.5 -108t-146.5 -41q-98 0 -153.5 49
t-55.5 137h40q0 -76 44.5 -114t126.5 -38q71 0 115.5 31t44.5 82q0 22 -10.5 39.5t-22.5 28t-36.5 20t-37 12.5t-39.5 9l-4.5 1.5t-4 1t-4.5 0.5q-7 2 -27.5 6.5t-30.5 6.5t-29 7.5t-29 10.5l-25 12.5t-23 17t-16.5 21.5t-12 27t-3.5 33q0 65 49.5 102t137.5 37
q89 0 140.5 -41.5t52.5 -121.5z" />
    <glyph glyph-name="t" unicode="t" horiz-adv-x="259" 
d="M135 673v-161h110v-35h-110v-347q0 -23 0.5 -31.5t3.5 -24.5t10 -22.5t20.5 -12t33.5 -5.5q17 0 42 4v-37q-44 -2 -48 -2q-30 0 -50 7.5t-30.5 17t-15.5 31t-5.5 35t-0.5 44.5v3.5v4v4.5v331h-95v35h95v161h40z" />
    <glyph glyph-name="u" unicode="u" horiz-adv-x="519" 
d="M418 234v278h40v-512h-38v108q-53 -121 -184 -121q-89 0 -135 52t-46 143v330h40v-321q0 -171 149 -171q86 0 130 62.5t44 151.5z" />
    <glyph glyph-name="v" unicode="v" horiz-adv-x="444" 
d="M271 154l134 358h42l-194 -512h-47l-206 512h42l147 -360q8 -21 22 -59.5t19 -52.5q13 38 41 114z" />
    <glyph glyph-name="w" unicode="w" horiz-adv-x="704" 
d="M544 136l120 376h41l-165 -512h-46l-121 389q-13 41 -21 76q-15 -57 -21 -75l-122 -390h-48l-163 512h42l119 -374q2 -7 26 -94q5 16 13 48t13 48l116 372h50l116 -374q6 -20 26 -93q17 68 25 91z" />
    <glyph glyph-name="x" unicode="x" horiz-adv-x="444" 
d="M221 298l163 214h48l-185 -242l205 -270h-52l-179 240l-180 -240h-46l201 268l-187 244h52z" />
    <glyph glyph-name="y" unicode="y" horiz-adv-x="444" 
d="M252 116l152 396h43l-221 -563q-15 -39 -22.5 -55t-23.5 -38t-38.5 -30t-55.5 -8q-21 0 -39 2v36q16 -3 33 -3q36 0 57 15.5t36 51.5q24 55 35 81l-215 511h43l169 -401q8 -19 23 -64q19 56 24 69z" />
    <glyph glyph-name="z" unicode="z" horiz-adv-x="426" 
d="M34 477v35h367v-33l-347 -444h362v-35h-407v38l343 439h-318z" />
    <glyph glyph-name="braceleft" unicode="{" horiz-adv-x="333" 
d="M325 -157v-26q-74 0 -119 38q-25 21 -37.5 55t-14.5 58t-2 67v70q0 77 -28 108t-114 43v26q86 12 114 43t28 108v70q0 44 2 68.5t14.5 58.5t37.5 55q45 38 119 38v-26q-92 -4 -123 -69q-15 -31 -15 -110v-41q0 -40 -1 -61t-7.5 -52t-19 -47t-37 -30t-60.5 -18
q36 -4 60.5 -18t37 -30t19 -47t7.5 -52t1 -61v-41q0 -77 15 -108q31 -65 123 -69z" />
    <glyph glyph-name="bar" unicode="|" horiz-adv-x="222" 
d="M129 786v-998h-36v998h36z" />
    <glyph glyph-name="braceright" unicode="}" horiz-adv-x="333" 
d="M325 282v-26q-86 -12 -114 -43t-28 -108v-70q0 -43 -2 -67t-14.5 -58t-37.5 -55q-45 -38 -119 -38v26q92 4 123 69q15 31 15 108v41q0 40 1 61t7.5 52t19 47t37 30t60.5 18q-36 4 -60.5 18t-37 30t-19 47t-7.5 52t-1 61v41q0 79 -15 110q-31 65 -123 69v26q74 0 119 -38
q25 -21 37.5 -55t14.5 -58.5t2 -68.5v-70q0 -77 28 -108t114 -43z" />
    <glyph glyph-name="asciitilde" unicode="~" horiz-adv-x="600" 
d="M530 331h27q-9 -48 -39 -81.5t-77 -33.5q-37 0 -144 37q-15 5 -41.5 14.5t-39 13.5t-28.5 7.5t-29 3.5q-33 0 -57 -24.5t-32 -58.5h-28q10 49 39 82t77 33q16 0 35.5 -4t32 -7.5t40.5 -13t40 -13.5t36 -12.5t36.5 -12.5t30 -8t31.5 -4q34 0 57.5 24t32.5 58z" />
    <glyph glyph-name="sterling" unicode="&#xa3;" 
d="M509 467h-40q-3 200 -192 200q-83 0 -134.5 -41t-51.5 -108q0 -29 9 -55t31 -63.5t27 -48.5h159v-24h-145q25 -56 25 -106q0 -39 -16.5 -75t-34.5 -58t-53 -57q64 33 108 33q36 0 84 -18q5 -2 23 -8.5t26.5 -9t23 -5.5t26.5 -3q34 0 72 18.5t65 48.5l22 -30
q-69 -72 -156 -72q-41 0 -131 32q-36 13 -70 13q-53 0 -117 -43l-26 34q50 36 82.5 87.5t32.5 106.5q0 52 -29 112h-80v24h65q-3 5 -17.5 31t-18.5 35t-13 29.5t-12 37.5t-3 36q0 82 63 132.5t165 50.5q116 0 173.5 -61t57.5 -175z" />
    <glyph glyph-name="currency" unicode="&#xa4;" 
d="M145 200l-64 -63l-23 23l63 63q-49 62 -49 134t49 134l-64 64l24 23l63 -64q61 49 134 49q76 0 134 -49l64 64l23 -24l-63 -63q49 -65 49 -134q0 -70 -50 -134l64 -64l-23 -23l-64 64q-61 -50 -134 -50q-75 0 -133 50zM278 528q-71 0 -121 -50t-50 -121t50.5 -121
t120.5 -50q72 0 122 50t50 121t-50 121t-122 50z" />
    <glyph glyph-name="brokenbar" unicode="&#xa6;" horiz-adv-x="222" 
d="M130 161v-248h-38v248h38zM130 661v-250h-38v250h38z" />
    <glyph glyph-name="section" unicode="&#xa7;" 
d="M447 534h-40q-6 141 -140 141q-53 0 -86.5 -28t-33.5 -72q0 -23 8.5 -41.5t30.5 -36t31.5 -23.5t40.5 -23q134 -74 175 -108q71 -58 71 -125q0 -46 -30.5 -84t-83.5 -56q60 -51 60 -110q0 -63 -47.5 -102.5t-123.5 -39.5q-85 0 -133.5 48.5t-48.5 134.5h40q2 -72 38 -110
t104 -38q57 0 93 29.5t36 75.5q0 48 -41 81q-19 15 -47 33.5t-79.5 48.5t-61.5 36q-41 25 -63.5 42t-44 50t-21.5 71q0 48 29 85t81 56q-53 44 -53 105q0 59 45.5 97.5t115.5 38.5q85 0 131 -45.5t48 -130.5zM186 449q-97 -41 -97 -119q0 -22 9 -41t27 -35t31.5 -26
t36.5 -24q16 -10 53 -31.5t64.5 -38.5t51.5 -34q102 32 102 113q0 56 -61 102q-55 43 -168 105q-35 19 -49 29z" />
    <glyph glyph-name="copyright" unicode="&#xa9;" horiz-adv-x="800" 
d="M400 729q152 0 259 -107.5t107 -258.5q0 -152 -107.5 -258t-258.5 -106q-152 0 -259 107t-107 257q0 152 107.5 259t258.5 107zM400 702q-141 0 -240 -99.5t-99 -239.5q0 -141 100 -240t239 -99q141 0 240.5 99.5t99.5 239.5q0 141 -100 240t-240 99zM544 283h31
q-9 -58 -56 -94t-107 -36q-88 0 -142.5 63t-54.5 151q0 87 52.5 149.5t136.5 62.5q64 0 113 -39.5t55 -100.5h-32q-9 51 -46 81t-88 30q-72 0 -113.5 -54t-41.5 -127q0 -77 44 -132t117 -55q48 0 84.5 27.5t47.5 73.5z" />
    <glyph glyph-name="guillemotleft" unicode="&#xab;" horiz-adv-x="389" 
d="M194 247v39l117 134v-48l-88 -105l88 -100v-48zM66 247v41l115 130v-47l-86 -104l86 -99v-49z" />
    <glyph glyph-name="logicalnot" unicode="&#xac;" horiz-adv-x="600" 
d="M510 160v183h-455v33h489v-216h-34z" />
    <glyph glyph-name="registered" unicode="&#xae;" horiz-adv-x="400" 
d="M199 729q76 0 129.5 -54t53.5 -129q0 -76 -54 -130t-129 -54q-76 0 -129.5 54.5t-53.5 129.5q0 76 54 129.5t129 53.5zM199 708q-67 0 -114.5 -48t-47.5 -114q0 -67 48 -115t114 -48q67 0 114.5 48t47.5 115t-48 114.5t-114 47.5zM154 450h-23v194h78q30 0 51 -14.5
t21 -42.5q0 -33 -35 -46q33 -16 33 -62q0 -19 6 -29h-25q-5 10 -5 23q0 35 -13 46.5t-51 11.5h-37v-81zM197 623h-43v-71h45q59 0 59 37q0 17 -12 25t-20.5 8.5t-28.5 0.5z" />
    <glyph glyph-name="degree" unicode="&#xb0;" horiz-adv-x="400" 
d="M200 700q59 0 100.5 -41.5t41.5 -100.5q0 -58 -42 -99.5t-100 -41.5t-99.5 41.5t-41.5 99.5q0 59 41.5 100.5t99.5 41.5zM200 667q-45 0 -76.5 -32t-31.5 -77t32 -76.5t76 -31.5q45 0 77 32t32 76q0 45 -32 77t-77 32z" />
    <glyph glyph-name="plusminus" unicode="&#xb1;" horiz-adv-x="600" 
d="M314 264v-188h-35v188h-227v33h227v189h35v-189h227v-33h-227zM541 29v-31h-489v31h489z" />
    <glyph glyph-name="mu" unicode="&#xb5;" horiz-adv-x="519" 
d="M421 242v270h40v-512h-39v106q-61 -120 -176 -120q-100 0 -146 82v-251h-41v695h41v-325q0 -76 36 -121.5t111 -45.5q77 0 127 59q29 35 38 72t9 91z" />
    <glyph glyph-name="paragraph" unicode="&#xb6;" horiz-adv-x="600" 
d="M306 712h228v-31h-56v-845h-37v845h-136v-845h-36v433q-95 0 -152.5 61.5t-57.5 155.5q0 112 68 169t179 57z" />
    <glyph glyph-name="periodcentered" unicode="&#xb7;" horiz-adv-x="278" 
d="M106 253v102h50v-102h-50z" />
    <glyph glyph-name="guillemotright" unicode="&#xbb;" horiz-adv-x="389" 
d="M295 270l-87 98v50l115 -129v-39l-115 -131v48zM167 270l-88 101v47l116 -128v-39l-116 -132v46z" />
    <glyph glyph-name="divide" unicode="&#xf7;" horiz-adv-x="600" 
d="M276 468h50v-100h-50v100zM48 286h505v-33h-505v33zM276 171h50v-100h-50v100z" />
    <glyph glyph-name="florin" unicode="&#x192;" 
d="M313 530l-19 -102h121l-7 -33h-120l-73 -382q-6 -33 -11.5 -55.5t-17.5 -51t-27.5 -45.5t-41 -29.5t-58.5 -12.5q-24 0 -50 6l6 36q23 -4 43 -4q14 0 26 3.5t21 8t17.5 14.5t14 16.5t11.5 21t8.5 21.5t6.5 24.5t5.5 23.5t4.5 24t4 21l69 360h-110l7 33h109l19 98
q8 42 16.5 68.5t25.5 53t45 39t69 12.5q30 0 60 -5l-7 -36q-38 5 -52 5q-55 0 -79.5 -35.5t-35.5 -97.5z" />
    <glyph glyph-name="afii10023" unicode="&#x401;" horiz-adv-x="560" 
d="M58 0v712h480v-38h-437v-285h410v-38h-410v-312h441v-39h-484zM356 784v103h43v-103h-43zM182 784v103h42v-103h-42z" />
    <glyph glyph-name="afii10051" unicode="&#x402;" horiz-adv-x="704" 
d="M260 144v-144h-43v674h-219v38h543v-38h-281v-392q50 136 191 136q57 0 100.5 -21t68.5 -55.5t37.5 -74.5t12.5 -83q0 -113 -70 -201t-176 -104v38q91 19 149 95.5t58 171.5q0 80 -47 139.5t-142 59.5q-84 0 -133 -63.5t-49 -175.5z" />
    <glyph glyph-name="afii10052" unicode="&#x403;" horiz-adv-x="500" 
d="M203 769l117 140h51l-132 -140h-36zM67 712h437v-38h-394v-674h-43v712z" />
    <glyph glyph-name="afii10053" unicode="&#x404;" horiz-adv-x="704" 
d="M624 276h41q-10 -130 -95 -210t-213 -80q-147 0 -236.5 101t-89.5 267q0 168 91.5 271.5t239.5 103.5q108 0 194 -63.5t98 -167.5h-42q-19 89 -87 140.5t-165 51.5q-120 0 -197.5 -82t-87.5 -217h375v-38h-376q1 -149 79 -240t205 -91q113 0 183 71t83 183z" />
    <glyph glyph-name="afii10054" unicode="&#x405;" horiz-adv-x="630" 
d="M571 509h-43q-11 180 -224 180q-94 0 -147 -39.5t-53 -109.5q0 -31 11 -54t29 -38t47 -26.5t59.5 -19t71.5 -16.5q22 -4 33 -7q34 -8 48.5 -11.5t45 -13t45.5 -17.5t36.5 -23t32 -31.5t18.5 -41t8 -53.5q0 -95 -70.5 -148t-196.5 -53q-132 0 -207 62t-75 187h41
q2 -108 65.5 -161.5t177.5 -53.5q105 0 164 43.5t59 121.5q0 23 -7 42t-16.5 33t-28 26t-32.5 19t-39.5 14.5t-38.5 10.5t-40.5 9t-36.5 8q-111 26 -147 42q-100 45 -100 149q0 87 65.5 137.5t180.5 50.5q117 0 187 -54t77 -164z" />
    <glyph glyph-name="afii10055" unicode="&#x406;" horiz-adv-x="170" 
d="M64 0v712h43v-712h-43z" />
    <glyph glyph-name="afii10056" unicode="&#x407;" horiz-adv-x="170" 
d="M62 0v712h43v-712h-43zM151 784v103h43v-103h-43zM-21 784v103h40v-103h-40z" />
    <glyph glyph-name="afii10057" unicode="&#x408;" horiz-adv-x="481" 
d="M376 196v516h43v-519q0 -207 -197 -207q-106 0 -152.5 53t-46.5 159q0 14 1 27h41v-21q0 -92 33.5 -137.5t123.5 -45.5q86 0 120 45t34 130z" />
    <glyph glyph-name="afii10058" unicode="&#x409;" horiz-adv-x="1000" 
d="M183 226l15 486h367v-318h193q107 0 165 -50.5t58 -144.5q0 -60 -20 -102t-54 -61.5t-66 -27.5t-67 -8h-252v675h-282l-15 -449q-1 -43 -7.5 -79.5t-21 -73.5t-42.5 -58.5t-67 -21.5q-44 0 -72 7v40q23 -12 72 -12q26 0 45.5 19.5t29.5 52t15 63.5t6 63zM765 358h-200
v-321h206q50 0 85.5 17t52 44.5t23 51.5t6.5 48q0 65 -42 112.5t-131 47.5z" />
    <glyph glyph-name="afii10059" unicode="&#x40a;" horiz-adv-x="1000" 
d="M774 0h-273v358h-395v-358h-43v712h43v-318h395v318h43v-318h214q107 0 165 -50.5t58 -144.5q0 -60 -20 -102t-54 -61.5t-66 -27.5t-67 -8zM765 358h-221v-321h227q50 0 85.5 17t52 44.5t23 51.5t6.5 48q0 65 -42 112.5t-131 47.5z" />
    <glyph glyph-name="afii10060" unicode="&#x40b;" horiz-adv-x="704" 
d="M651 148v-148h-43v148q0 127 -34.5 184t-139.5 57q-19 0 -40 -3.5t-37 -8.5t-35 -13t-29 -13t-24.5 -12.5t-16.5 -8.5v-330h-43v674h-219v38h543v-38h-281v-303q106 55 182 55q56 0 95.5 -12.5t63.5 -33.5t37 -58t17 -76.5t4 -97.5z" />
    <glyph glyph-name="afii10061" unicode="&#x40c;" horiz-adv-x="613" 
d="M104 303l450 409h57l-328 -296l348 -416h-55l-324 387l-148 -135v-252h-43v712h43v-409zM233 769l117 140h51l-132 -140h-36z" />
    <glyph glyph-name="afii10062" unicode="&#x40e;" 
d="M238 86l28 62l-276 564h46l251 -518l238 518h46l-297 -636q-19 -41 -51.5 -63.5t-67.5 -22.5q-17 0 -41 6t-34 14v45q28 -28 70 -28q27 0 52 17t36 42zM386 881h33q-6 -49 -44 -84.5t-87 -35.5q-56 0 -94 32t-45 88h33q21 -87 105 -87q37 0 65 24.5t34 62.5z" />
    <glyph glyph-name="afii10145" unicode="&#x40f;" horiz-adv-x="670" 
d="M605 712v-712h-249v-183h-43v183h-250v712h43v-674h456v674h43z" />
    <glyph glyph-name="afii10017" unicode="&#x410;" horiz-adv-x="593" 
d="M-11 0l287 712h46l283 -712h-48l-89 230h-343l-91 -230h-45zM271 599l-133 -333h316l-130 330q-5 12 -13.5 38t-12.5 37z" />
    <glyph glyph-name="afii10018" unicode="&#x411;" horiz-adv-x="630" 
d="M366 0h-303v712h488v-38h-445v-278h264q107 0 167 -52t60 -145q0 -57 -24 -98.5t-62 -62t-74 -29.5t-71 -9zM377 358h-271v-320h247q105 0 153 46.5t48 113.5q0 64 -44 112t-133 48z" />
    <glyph glyph-name="afii10019" unicode="&#x412;" horiz-adv-x="630" 
d="M337 0h-275v712h293q92 0 155 -45t63 -132q0 -62 -37.5 -106.5t-99.5 -55.5q72 -8 116.5 -55t44.5 -120q0 -103 -83 -158q-61 -40 -177 -40zM343 675h-238v-288h224q201 0 201 143q0 76 -52.5 110.5t-134.5 34.5zM340 351h-235v-313h229q220 0 220 161q0 152 -214 152z
" />
    <glyph glyph-name="afii10020" unicode="&#x413;" horiz-adv-x="500" 
d="M67 712h437v-38h-394v-674h-43v712z" />
    <glyph glyph-name="afii10021" unicode="&#x414;" horiz-adv-x="670" 
d="M654 38v-221h-43v183h-558v-183h-43v221h63q106 196 106 674h394v-674h81zM119 38h411v637h-308q-9 -458 -103 -637z" />
    <glyph glyph-name="afii10022" unicode="&#x415;" horiz-adv-x="560" 
d="M58 0v712h480v-38h-437v-285h410v-38h-410v-313h441v-38h-484z" />
    <glyph glyph-name="afii10024" unicode="&#x416;" horiz-adv-x="980" 
d="M671 434l325 -434h-54l-303 405l-128 -117v-288h-43v288l-128 117l-303 -405h-51l323 434l-305 278h55l409 -374v374h43v-374l409 374h56z" />
    <glyph glyph-name="afii10025" unicode="&#x417;" horiz-adv-x="630" 
d="M589 198q0 -97 -79 -154t-188 -57q-132 0 -207 62t-75 187h41q2 -108 65.5 -161.5t177.5 -53.5q88 0 156 50t68 127q0 156 -211 154q-63 0 -74 -1v38h74q81 0 137.5 38t56.5 117q0 72 -56.5 109.5t-144.5 37.5q-214 0 -225 -180h-43q7 110 79 164t189 54
q109 0 176.5 -46.5t67.5 -138.5q0 -73 -42.5 -119t-102.5 -52v-2q160 -18 160 -173z" />
    <glyph glyph-name="afii10026" unicode="&#x418;" horiz-adv-x="670" 
d="M607 712v-712h-43v657h-3l-444 -657h-53v712h43v-657h3l443 657h54z" />
    <glyph glyph-name="afii10027" unicode="&#x419;" horiz-adv-x="670" 
d="M446 881h33q-6 -49 -44 -84.5t-87 -35.5q-56 0 -94 32t-45 88h33q21 -87 105 -87q37 0 65 24.5t34 62.5zM607 712v-712h-43v657h-3l-444 -657h-53v712h43v-657h3l443 657h54z" />
    <glyph glyph-name="afii10028" unicode="&#x41a;" horiz-adv-x="613" 
d="M104 303l450 409h57l-328 -296l348 -416h-55l-324 387l-148 -135v-252h-43v712h43v-409z" />
    <glyph glyph-name="afii10029" unicode="&#x41b;" horiz-adv-x="670" 
d="M607 712v-712h-43v674h-320l-15 -448q-1 -43 -7.5 -79.5t-21 -73.5t-42.5 -58.5t-67 -21.5q-44 0 -72 7v40q23 -12 72 -12q26 0 45.5 19.5t29.5 52t15 63.5t6 63l15 486h405z" />
    <glyph glyph-name="afii10030" unicode="&#x41c;" horiz-adv-x="809" 
d="M687 712h59v-712h-42v533q0 69 6 139q-6 -14 -16 -42.5t-16 -41.5l-251 -588h-42l-252 581q-2 4 -33 89q5 -115 5 -137v-533h-42v712h60l227 -528l56 -139q18 51 50 125q164 385 231 542z" />
    <glyph glyph-name="afii10031" unicode="&#x41d;" horiz-adv-x="670" 
d="M564 391v321h43v-712h-43v353h-457v-353h-43v712h43v-321h457z" />
    <glyph glyph-name="afii10032" unicode="&#x41e;" horiz-adv-x="741" 
d="M369 729q151 0 245.5 -105t94.5 -273q0 -165 -94 -265.5t-246 -100.5t-244.5 101.5t-92.5 269.5q0 166 93.5 269.5t243.5 103.5zM369 691q-91 0 -159 -47.5t-101 -122t-33 -163.5q0 -151 81 -244t212 -93q132 0 214 92t82 240q0 150 -82.5 244t-213.5 94z" />
    <glyph glyph-name="afii10033" unicode="&#x41f;" horiz-adv-x="670" 
d="M64 0v712h543v-712h-43v674h-457v-674h-43z" />
    <glyph glyph-name="afii10034" unicode="&#x420;" horiz-adv-x="591" 
d="M109 0h-43v712h277q103 0 152 -33q80 -54 80 -164q0 -105 -74 -159q-56 -41 -146 -41h-246v-315zM336 674h-227v-322h221q86 0 127 24q75 44 75 137q0 92 -63 133q-29 19 -57.5 23.5t-75.5 4.5z" />
    <glyph glyph-name="afii10035" unicode="&#x421;" horiz-adv-x="704" 
d="M632 276h41q-10 -130 -95 -210t-213 -80q-147 0 -236.5 101t-89.5 267q0 168 91.5 271.5t239.5 103.5q108 0 194 -63.5t98 -167.5h-42q-19 89 -87 140.5t-165 51.5q-128 0 -207 -92.5t-79 -242.5t78 -241.5t206 -91.5q113 0 183 71t83 183z" />
    <glyph glyph-name="afii10036" unicode="&#x422;" horiz-adv-x="519" 
d="M-13 674v38h546v-38h-252v-674h-43v674h-251z" />
    <glyph glyph-name="afii10037" unicode="&#x423;" 
d="M238 86l28 62l-276 564h46l251 -518l238 518h46l-297 -636q-19 -41 -51.5 -63.5t-67.5 -22.5q-17 0 -41 6t-34 14v45q28 -28 70 -28q27 0 52 17t36 42z" />
    <glyph glyph-name="afii10038" unicode="&#x424;" horiz-adv-x="722" 
d="M382 82v-82h-42v82q-131 0 -221 72t-90 204q0 130 90 204.5t221 74.5v75h42v-75q131 0 221 -74.5t90 -204.5q0 -132 -90 -204t-221 -72zM391 599h-9v-481q121 8 194 66t73 174q0 111 -76 176t-182 65zM340 118v481h-9q-106 0 -182 -65t-76 -176q0 -116 73 -174t194 -66z
" />
    <glyph glyph-name="afii10039" unicode="&#x425;" 
d="M277 397l232 315h49l-254 -346l267 -366h-53l-241 333l-243 -333h-49l266 366l-251 346h50z" />
    <glyph glyph-name="afii10040" unicode="&#x426;" horiz-adv-x="685" 
d="M679 38v-221h-43v183h-573v712h43v-674h456v674h43v-674h74z" />
    <glyph glyph-name="afii10041" unicode="&#x427;" horiz-adv-x="630" 
d="M565 712v-712h-42v352q-29 -12 -105 -30.5t-128 -18.5q-122 0 -174.5 50t-52.5 184v175h43v-162q0 -110 38 -160t142 -50q67 0 135 17t102 32v323h42z" />
    <glyph glyph-name="afii10042" unicode="&#x428;" horiz-adv-x="1000" 
d="M944 712v-712h-881v712h43v-674h376v674h43v-674h377v674h42z" />
    <glyph glyph-name="afii10043" unicode="&#x429;" horiz-adv-x="1024" 
d="M1018 38v-221h-43v183h-912v712h43v-674h376v674h43v-674h376v674h43v-674h74z" />
    <glyph glyph-name="afii10044" unicode="&#x42a;" horiz-adv-x="778" 
d="M754 199q0 -60 -20 -102t-54 -61.5t-66 -27.5t-67 -8h-303v674h-247v38h290v-316h244q106 0 164.5 -51.5t58.5 -145.5zM711 198q0 65 -42 112.5t-131 47.5h-251v-320h257q50 0 85.5 17t52 44t23 51t6.5 48z" />
    <glyph glyph-name="afii10045" unicode="&#x42b;" horiz-adv-x="809" 
d="M745 712v-712h-43v712h43zM366 0h-303v712h43v-316h244q106 0 164.5 -51.5t58.5 -145.5q0 -60 -20 -102t-54 -61.5t-66 -27.5t-67 -8zM357 358h-251v-320h257q50 0 85.5 17t52 44t23 51t6.5 48q0 65 -42 112.5t-131 47.5z" />
    <glyph glyph-name="afii10046" unicode="&#x42c;" horiz-adv-x="593" 
d="M366 0h-303v712h43v-316h244q106 0 164.5 -51.5t58.5 -145.5q0 -60 -20 -102t-54 -61.5t-66 -27.5t-67 -8zM357 358h-251v-320h257q50 0 85.5 17t52 44t23 51t6.5 48q0 65 -42 112.5t-131 47.5z" />
    <glyph glyph-name="afii10047" unicode="&#x42d;" horiz-adv-x="704" 
d="M665 354q0 -166 -89.5 -267t-236.5 -101q-128 0 -213 80t-95 210h41q13 -112 83 -183t183 -71q127 0 205 91t79 240h-376v38h375q-10 135 -87.5 217t-197.5 82q-97 0 -165 -51.5t-87 -140.5h-42q12 104 98 167.5t194 63.5q148 0 239.5 -103.5t91.5 -271.5z" />
    <glyph glyph-name="afii10048" unicode="&#x42e;" horiz-adv-x="980" 
d="M608 729q151 0 245.5 -105t94.5 -273q0 -165 -94 -265.5t-246 -100.5q-151 0 -243.5 101t-93.5 267h-164v-353h-43v712h43v-321h165q11 152 102.5 245t233.5 93zM608 691q-91 0 -159 -47.5t-101 -122t-33 -163.5q0 -151 81 -244t212 -93q132 0 214 92t82 240
q0 150 -82.5 244t-213.5 94z" />
    <glyph glyph-name="afii10049" unicode="&#x42f;" horiz-adv-x="630" 
d="M570 712v-712h-43v327h-259l-236 -327h-49l240 333q-76 12 -125.5 61t-49.5 129q0 88 61 138.5t164 50.5h297zM296 364h231v311h-254q-78 0 -130 -37.5t-52 -111.5q0 -82 56 -122t149 -40z" />
    <glyph glyph-name="afii10065" unicode="&#x430;" horiz-adv-x="500" 
d="M499 36v-32q-14 -4 -41 -4q-34 0 -46.5 17.5t-12.5 66.5v25q-32 -63 -79.5 -92t-120.5 -29q-80 0 -124.5 37t-44.5 104q0 141 196 157q103 8 128 13.5t35 21.5q7 11 7 53q0 58 -37 88t-108 30q-143 0 -155 -137h-38q5 83 56 127t141 44q103 0 152 -55q14 -16 21 -38.5
t7.5 -36.5t0.5 -44v-265q0 -15 0.5 -22t4 -16t11.5 -13t21 -4q10 0 26 4zM397 200v90q-15 -13 -35 -19q-31 -10 -110 -18t-119 -26q-60 -27 -60 -94q0 -52 36 -82t97 -30q82 0 136.5 51t54.5 128z" />
    <glyph glyph-name="afii10066" unicode="&#x431;" horiz-adv-x="537" 
d="M504 247q0 -112 -62 -187t-169 -75q-82 0 -134.5 40.5t-74.5 103.5t-22 160q0 49 4 95t18 100t36 94.5t61 70t91 35.5l98 11q26 3 38 5t25.5 9t15.5 20h38q-5 -31 -33 -47t-87 -23l-89 -10q-46 -5 -81 -32t-55.5 -68t-31.5 -83.5t-13 -87.5h3q28 60 80.5 95.5t122.5 35.5
q99 0 160 -75.5t61 -186.5zM466 247q0 96 -51.5 162.5t-141.5 66.5t-141.5 -66.5t-51.5 -162.5q0 -97 51.5 -164t141.5 -67t141.5 67t51.5 164z" />
    <glyph glyph-name="afii10067" unicode="&#x432;" horiz-adv-x="500" 
d="M272 0h-219v512h219q76 0 127 -30t51 -96q0 -45 -29.5 -75.5t-79.5 -37.5v-1q56 -5 89 -38.5t33 -83.5q0 -73 -54.5 -111.5t-136.5 -38.5zM266 477h-171v-189h150q27 0 52.5 4t52.5 14t43.5 30.5t16.5 49.5q0 46 -43 68.5t-101 22.5zM245 253h-150v-218h171
q69 0 112.5 30.5t43.5 84.5q0 103 -177 103z" />
    <glyph glyph-name="afii10068" unicode="&#x433;" horiz-adv-x="400" 
d="M400 512v-35h-300v-477h-40v512h340z" />
    <glyph glyph-name="afii10069" unicode="&#x434;" horiz-adv-x="537" 
d="M525 35v-194h-40v159h-438v-159h-40v194h60q36 74 54 194t18 239v44h316v-477h70zM109 35h306v442h-236v-39q0 -105 -18.5 -221t-51.5 -182z" />
    <glyph glyph-name="afii10070" unicode="&#x435;" horiz-adv-x="519" 
d="M445 174h40q-14 -86 -71.5 -137.5t-147.5 -51.5q-106 0 -169.5 72t-63.5 194t64.5 198.5t168.5 76.5q108 0 166 -76t58 -188v-14h-415q0 -97 48.5 -164t143.5 -67q70 0 116.5 41t61.5 116zM75 283h374q0 85 -47.5 146t-135.5 61t-135 -58t-56 -149z" />
    <glyph glyph-name="afii10072" unicode="&#x436;" horiz-adv-x="722" 
d="M341 0v178l-90 92l-210 -270h-50l232 299l-210 213h55l273 -282v282h40v-282l273 282h55l-210 -213l234 -299h-52l-210 270l-90 -92v-178h-40z" />
    <glyph glyph-name="afii10073" unicode="&#x437;" horiz-adv-x="473" 
d="M424 392q0 -46 -30 -78.5t-78 -38.5v-1q55 -5 88 -41.5t33 -88.5q0 -74 -58.5 -115.5t-140.5 -41.5q-98 0 -153.5 49t-55.5 137h40q0 -152 169 -152q62 0 110 34.5t48 88.5q0 55 -44 82t-121 27h-46v35h36q68 0 116 24.5t48 79.5q0 48 -40.5 73.5t-100.5 25.5
q-150 0 -161 -128h-41q1 79 57 121t146 42q78 0 128.5 -33.5t50.5 -100.5z" />
    <glyph glyph-name="afii10074" unicode="&#x438;" horiz-adv-x="519" 
d="M463 512v-512h-40v460h-1l-317 -460h-49v512h40v-462h1l316 462h50z" />
    <glyph glyph-name="afii10075" unicode="&#x439;" horiz-adv-x="519" 
d="M361 712h33q-6 -49 -44 -84.5t-87 -35.5q-56 0 -94.5 32.5t-45.5 87.5h33q22 -87 106 -87q37 0 65 24.5t34 62.5zM463 512v-512h-40v460h-1l-317 -460h-49v512h40v-462h1l316 462h50z" />
    <glyph glyph-name="afii10076" unicode="&#x43a;" horiz-adv-x="463" 
d="M463 512l-225 -210l240 -302h-51l-218 276l-112 -105v-171h-40v512h40v-294l311 294h55z" />
    <glyph glyph-name="afii10077" unicode="&#x43b;" horiz-adv-x="537" 
d="M482 512v-512h-40v477h-239l-10 -274q-7 -211 -119 -211q-22 0 -57 8v36q24 -11 56 -11q75 0 82 182l11 305h316z" />
    <glyph glyph-name="afii10078" unicode="&#x43c;" horiz-adv-x="630" 
d="M295 0l-197 476h-2v-476h-40v512h64l196 -465l195 465h64v-512h-40v476h-2l-196 -476h-42z" />
    <glyph glyph-name="afii10079" unicode="&#x43d;" horiz-adv-x="519" 
d="M463 512v-512h-40v255h-327v-255h-40v512h40v-223h327v223h40z" />
    <glyph glyph-name="afii10080" unicode="&#x43e;" horiz-adv-x="537" 
d="M270 527q107 0 171.5 -74.5t64.5 -199.5q0 -123 -64.5 -194.5t-172.5 -71.5q-109 0 -173.5 72.5t-64.5 196.5q0 122 65.5 196.5t173.5 74.5zM269 492q-88 0 -142.5 -65t-54.5 -171q0 -108 53.5 -172t144.5 -64q88 0 141 63.5t53 169.5q0 109 -53 174t-142 65z" />
    <glyph glyph-name="afii10081" unicode="&#x43f;" horiz-adv-x="519" 
d="M463 0h-40v479h-327v-479h-40v512h407v-512z" />
    <glyph glyph-name="afii10082" unicode="&#x440;" 
d="M62 -183v695h38v-122q50 136 191 136q104 0 166.5 -74.5t62.5 -198.5q0 -122 -62.5 -195.5t-165.5 -73.5q-72 0 -121.5 34t-68.5 98v-299h-40zM289 492q-89 0 -139 -63.5t-50 -176.5q0 -63 18.5 -114.5t63 -86.5t108.5 -35q85 0 136.5 65t51.5 172q0 110 -51 174.5
t-138 64.5z" />
    <glyph glyph-name="afii10083" unicode="&#x441;" horiz-adv-x="519" 
d="M449 180h40q-12 -92 -69 -142.5t-149 -50.5q-112 0 -173.5 75.5t-61.5 191.5q0 125 65.5 199t174.5 74q89 0 144 -45.5t65 -126.5h-41q-8 63 -53 100.5t-114 37.5q-91 0 -145.5 -64.5t-54.5 -172.5q0 -107 53 -172t140 -65q74 0 121.5 43t57.5 118z" />
    <glyph glyph-name="afii10084" unicode="&#x442;" horiz-adv-x="444" 
d="M436 512v-35h-194v-477h-40v477h-194v35h428z" />
    <glyph glyph-name="afii10085" unicode="&#x443;" horiz-adv-x="444" 
d="M252 116l152 396h43l-221 -563q-15 -39 -22.5 -55t-23.5 -38t-38.5 -30t-55.5 -8q-21 0 -39 2v36q16 -3 33 -3q36 0 57 15.5t36 51.5q24 55 35 81l-215 511h43l169 -401q8 -19 23 -64q19 56 24 69z" />
    <glyph glyph-name="afii10086" unicode="&#x444;" horiz-adv-x="766" 
d="M730 257q0 -115 -51.5 -191t-145.5 -76q-84 0 -130 73v-246h-40v246q-46 -73 -130 -73q-94 0 -145.5 76t-51.5 191q0 116 50 192.5t144 76.5q41 0 76.5 -22.5t56.5 -55.5v264h40v-264q21 33 56.5 55.5t76.5 22.5q94 0 144 -76.5t50 -192.5zM688 257q0 102 -39 168.5
t-123 66.5q-46 0 -84.5 -40t-38.5 -93v-207q0 -52 39 -90.5t85 -38.5q78 0 119.5 67.5t41.5 166.5zM363 152v207q0 53 -38.5 93t-84.5 40q-84 0 -123 -66.5t-39 -168.5q0 -99 41.5 -166.5t119.5 -67.5q46 0 85 38.5t39 90.5z" />
    <glyph glyph-name="afii10087" unicode="&#x445;" horiz-adv-x="444" 
d="M221 298l163 214h48l-185 -242l205 -270h-52l-179 240l-180 -240h-46l201 268l-187 244h52z" />
    <glyph glyph-name="afii10088" unicode="&#x446;" horiz-adv-x="537" 
d="M527 35v-194h-40v159h-432v512h40v-477h327v477h40v-477h65z" />
    <glyph glyph-name="afii10089" unicode="&#x447;" horiz-adv-x="489" 
d="M432 512v-512h-40v249q-27 -11 -80.5 -25t-93.5 -14q-86 0 -125 39t-39 129v134h40v-141q0 -70 31.5 -97.5t93.5 -27.5q40 0 93 14.5t80 26.5v225h40z" />
    <glyph glyph-name="afii10090" unicode="&#x448;" horiz-adv-x="768" 
d="M709 512v-512h-654v512h40v-477h267v477h40v-477h267v477h40z" />
    <glyph glyph-name="afii10091" unicode="&#x449;" horiz-adv-x="789" 
d="M774 35v-194h-40v159h-680v512h40v-477h268v477h40v-477h267v477h40v-477h65z" />
    <glyph glyph-name="afii10092" unicode="&#x44a;" horiz-adv-x="611" 
d="M583 160q0 -77 -48 -118.5t-128 -41.5h-230v477h-177v35h218v-204h173q192 0 192 -148zM541 160q0 60 -46 86.5t-114 26.5h-163v-238h183q65 0 102.5 34t37.5 91z" />
    <glyph glyph-name="afii10093" unicode="&#x44b;" horiz-adv-x="630" 
d="M575 512v-512h-40v512h40zM265 0h-211v512h41v-204h153q193 0 193 -148q0 -77 -48 -118.5t-128 -41.5zM238 273h-143v-238h164q65 0 102.5 34t37.5 91q0 60 -46 86.5t-115 26.5z" />
    <glyph glyph-name="afii10094" unicode="&#x44c;" horiz-adv-x="489" 
d="M285 0h-231v512h41v-204h173q193 0 193 -148q0 -77 -48 -118.5t-128 -41.5zM258 273h-163v-238h184q65 0 102.5 34t37.5 91q0 60 -46 86.5t-115 26.5z" />
    <glyph glyph-name="afii10095" unicode="&#x44d;" horiz-adv-x="519" 
d="M483 254q0 -116 -61.5 -191.5t-173.5 -75.5q-89 0 -146 48t-71 136h40q12 -71 59.5 -111.5t118.5 -40.5q86 0 138.5 63.5t54.5 169.5h-275v34h274q-8 95 -61 151t-138 56q-67 0 -111 -35t-55 -95h-41q12 77 67 120.5t141 43.5q109 0 174.5 -74t65.5 -199z" />
    <glyph glyph-name="afii10096" unicode="&#x44e;" horiz-adv-x="730" 
d="M462 527q107 0 171.5 -74.5t64.5 -199.5q0 -123 -64.5 -194.5t-172.5 -71.5q-109 0 -173 72t-65 196h-127v-255h-40v512h40v-223h128q9 109 73.5 173.5t164.5 64.5zM461 492q-88 0 -142.5 -65t-54.5 -171q0 -108 53.5 -172t144.5 -64q88 0 141 63.5t53 169.5
q0 109 -53 174t-142 65z" />
    <glyph glyph-name="afii10097" unicode="&#x44f;" horiz-adv-x="500" 
d="M441 512v-512h-40v216h-151q-23 0 -34 1l-169 -217h-50l172 223q-62 13 -92.5 54t-30.5 91q0 75 50.5 109.5t133.5 34.5h211zM240 251h161v226h-165q-69 0 -109 -27.5t-40 -81.5q0 -61 43 -89t110 -28z" />
    <glyph glyph-name="afii10071" unicode="&#x451;" horiz-adv-x="519" 
d="M445 174h40q-14 -86 -71.5 -137.5t-147.5 -51.5q-106 0 -169.5 72t-63.5 194t64.5 198.5t168.5 76.5q108 0 166 -76t58 -188v-14h-415q0 -97 48.5 -164t143.5 -67q70 0 116.5 41t61.5 116zM75 283h374q0 85 -47.5 146t-135.5 61t-135 -58t-56 -149zM325 611v103h43v-103
h-43zM151 611v103h42v-103h-42z" />
    <glyph glyph-name="afii10099" unicode="&#x452;" horiz-adv-x="519" 
d="M475 178v-70q0 -107 -69 -192t-178 -98v33q92 15 149.5 85.5t57.5 156.5v92q0 168 -146 168q-85 0 -135.5 -59.5t-50.5 -155.5v-138h-40v477h-63v35h63v200h39v-200h263v-35h-263v-213h2q19 56 71.5 89t114.5 33q43 0 76 -10.5t52.5 -30t32 -39t17 -47t6 -43.5t1.5 -38z
" />
    <glyph glyph-name="afii10100" unicode="&#x453;" horiz-adv-x="400" 
d="M140 596l117 140h51l-132 -140h-36zM397 512v-35h-300v-477h-40v512h340z" />
    <glyph glyph-name="afii10101" unicode="&#x454;" horiz-adv-x="519" 
d="M449 171h40q-14 -88 -71 -136t-146 -48q-112 0 -173.5 75.5t-61.5 191.5q0 125 65.5 199t174.5 74q86 0 141 -43.5t67 -120.5h-41q-11 60 -55 95t-111 35q-85 0 -138 -56t-61 -151h274v-34h-275q2 -106 54.5 -169.5t138.5 -63.5q71 0 118.5 40.5t59.5 111.5z" />
    <glyph glyph-name="afii10102" unicode="&#x455;" horiz-adv-x="481" 
d="M429 363h-41q-6 68 -45.5 98t-112.5 30q-64 0 -101.5 -27t-37.5 -73q0 -12 2.5 -22t6 -17.5t11.5 -15t13 -12t17.5 -10t18.5 -8t22 -6.5t22.5 -6t25 -6t24.5 -5q37 -8 53 -12.5t48 -17t47.5 -26t28.5 -37.5t13 -55q0 -67 -55.5 -108t-146.5 -41q-98 0 -153.5 49
t-55.5 137h40q0 -76 44.5 -114t126.5 -38q71 0 115.5 31t44.5 82q0 22 -10.5 39.5t-22.5 28t-36.5 20t-37 12.5t-39.5 9l-4.5 1.5t-4 1t-4.5 0.5q-7 2 -27.5 6.5t-30.5 6.5t-29 7.5t-29 10.5l-25 12.5t-23 17t-16.5 21.5t-12 27t-3.5 33q0 65 49.5 102t137.5 37
q89 0 140.5 -41.5t52.5 -121.5z" />
    <glyph glyph-name="afii10103" unicode="&#x456;" horiz-adv-x="168" 
d="M64 611v101h40v-101h-40zM64 0v512h40v-512h-40z" />
    <glyph glyph-name="afii10104" unicode="&#x457;" horiz-adv-x="168" 
d="M150 611v103h43v-103h-43zM-22 611v103h40v-103h-40zM63 0v512h41v-512h-41z" />
    <glyph glyph-name="afii10105" unicode="&#x458;" horiz-adv-x="168" 
d="M65 -55v567h40v-564q0 -71 -24 -102t-91 -31q-4 0 -24 2v34h20q48 0 63.5 20.5t15.5 73.5zM65 612v100h40v-100h-40z" />
    <glyph glyph-name="afii10106" unicode="&#x459;" horiz-adv-x="778" 
d="M749 157q0 -76 -48 -116.5t-128 -40.5h-175v477h-195l-10 -274q-7 -211 -119 -211q-22 0 -57 8v36q24 -11 56 -11q75 0 82 182l11 305h272v-210h118q193 0 193 -145zM707 157q0 110 -161 110h-108v-232h129q66 0 103 32.5t37 89.5z" />
    <glyph glyph-name="afii10107" unicode="&#x45a;" horiz-adv-x="778" 
d="M573 0h-196v267h-282v-267h-40v512h40v-210h282v210h40v-210h139q193 0 193 -145q0 -76 -48 -116.5t-128 -40.5zM546 267h-129v-232h150q66 0 103 32.5t37 89.5q0 110 -161 110z" />
    <glyph glyph-name="afii10108" unicode="&#x45b;" horiz-adv-x="519" 
d="M472 178v-178h-40v185q0 168 -143 168q-85 0 -135.5 -58.5t-50.5 -156.5v-138h-40v477h-63v35h63v200h39v-200h263v-35h-263v-213h2q51 122 189 122q179 0 179 -208z" />
    <glyph glyph-name="afii10109" unicode="&#x45c;" horiz-adv-x="463" 
d="M170 596l117 140h51l-132 -140h-36zM463 512l-225 -210l240 -302h-51l-218 276l-112 -105v-171h-40v512h40v-294l311 294h55z" />
    <glyph glyph-name="afii10110" unicode="&#x45e;" horiz-adv-x="444" 
d="M325 712h33q-6 -49 -44 -84.5t-87 -35.5q-56 0 -94.5 32.5t-45.5 87.5h33q22 -87 106 -87q37 0 65 24.5t34 62.5zM252 116l152 396h43l-221 -563q-15 -39 -22.5 -55t-23.5 -38t-38.5 -30t-55.5 -8q-21 0 -39 2v36q16 -3 33 -3q36 0 57 15.5t36 51.5q24 55 35 81l-215 511
h43l169 -401q8 -19 23 -64q19 56 24 69z" />
    <glyph glyph-name="afii10193" unicode="&#x45f;" horiz-adv-x="519" 
d="M463 512v-512h-183v-159h-40v159h-184v512h40v-478h327v478h40z" />
    <glyph glyph-name="afii10050" unicode="&#x490;" horiz-adv-x="500" 
d="M500 882v-208h-394v-674h-43v712h394v170h43z" />
    <glyph glyph-name="afii10098" unicode="&#x491;" horiz-adv-x="400" 
d="M357 512v161h40v-196h-300v-477h-40v512h300z" />
    <glyph glyph-name="endash" unicode="&#x2013;" horiz-adv-x="500" 
d="M0 253v38h500v-38h-500z" />
    <glyph glyph-name="emdash" unicode="&#x2014;" horiz-adv-x="1000" 
d="M0 253v38h1000v-38h-1000z" />
    <glyph glyph-name="quoteleft" unicode="&#x2018;" horiz-adv-x="204" 
d="M141 726v-34q-33 -21 -34 -94h20v-102h-50v85q0 54 12.5 91t51.5 54z" />
    <glyph glyph-name="quoteright" unicode="&#x2019;" horiz-adv-x="204" 
d="M77 610v102h50v-85q0 -54 -12.5 -91t-51.5 -54v34q33 21 34 94h-20z" />
    <glyph glyph-name="quotesinglbase" unicode="&#x201a;" horiz-adv-x="204" 
d="M75 0v102h50v-85q0 -53 -12.5 -89.5t-51.5 -53.5v34q33 21 34 92h-20z" />
    <glyph glyph-name="quotedblleft" unicode="&#x201c;" horiz-adv-x="315" 
d="M259 726v-34q-33 -21 -34 -94h20v-102h-50v85q0 54 12.5 91t51.5 54zM134 726v-34q-33 -21 -34 -94h20v-102h-50v85q0 54 12.5 91t51.5 54z" />
    <glyph glyph-name="quotedblright" unicode="&#x201d;" horiz-adv-x="315" 
d="M68 610v102h50v-85q0 -54 -12.5 -91t-51.5 -54v34q33 21 34 94h-20zM193 610v102h50v-85q0 -54 -12.5 -91t-51.5 -54v34q33 21 34 94h-20z" />
    <glyph glyph-name="quotedblbase" unicode="&#x201e;" horiz-adv-x="315" 
d="M68 0v102h50v-85q0 -53 -12.5 -89.5t-51.5 -53.5v34q33 21 34 92h-20zM193 0v102h50v-85q0 -53 -12.5 -89.5t-51.5 -53.5v34q33 21 34 92h-20z" />
    <glyph glyph-name="dagger" unicode="&#x2020;" 
d="M297 712v-233h206v-35h-206v-587h-39v587h-205v35h205v233h39z" />
    <glyph glyph-name="daggerdbl" unicode="&#x2021;" 
d="M297 712v-197h205v-36h-205v-391h205v-36h-205v-195h-38v195h-206v36h206v391h-206v36h206v197h38z" />
    <glyph glyph-name="bullet" unicode="&#x2022;" horiz-adv-x="500" 
d="M250 534q74 0 126 -52.5t52 -125.5q0 -74 -52.5 -126t-125.5 -52q-74 0 -126 52.5t-52 125.5q0 74 52.5 126t125.5 52z" />
    <glyph glyph-name="ellipsis" unicode="&#x2026;" horiz-adv-x="1000" 
d="M141 0v102h50v-102h-50zM474 0v102h50v-102h-50zM807 0v102h50v-102h-50z" />
    <glyph glyph-name="perthousand" unicode="&#x2030;" horiz-adv-x="1074" 
d="M106 -28l469 753h35l-469 -754zM526 327q70 0 111 -44t41 -121q0 -81 -39.5 -125.5t-110.5 -44.5q-73 0 -112.5 42.5t-39.5 122.5t39.5 125t110.5 45zM884 327q71 0 111 -44t40 -122q0 -79 -40.5 -124t-110.5 -45q-72 0 -112 43t-40 122q0 80 40 125t112 45zM195 706
q71 0 111.5 -44.5t40.5 -123.5q0 -78 -41.5 -124t-111.5 -46q-71 0 -110.5 44.5t-39.5 125.5q0 79 40 123.5t111 44.5zM526 297q-114 0 -114 -142q0 -66 29.5 -101t85.5 -35q55 0 85 37t30 105q0 64 -30.5 100t-85.5 36zM884 298q-55 0 -86 -37t-31 -103t30.5 -102.5
t85.5 -36.5t85 37t30 105q0 65 -30 101t-84 36zM194 676q-54 0 -84.5 -37.5t-30.5 -104.5q0 -65 30 -100.5t85 -35.5t85.5 37t30.5 102q0 66 -30.5 102.5t-85.5 36.5z" />
    <glyph glyph-name="guilsinglleft" unicode="&#x2039;" horiz-adv-x="259" 
d="M64 248v40l115 131v-50l-87 -102l87 -99v-49z" />
    <glyph glyph-name="guilsinglright" unicode="&#x203a;" horiz-adv-x="259" 
d="M169 271l-88 99v49l115 -129v-40l-115 -131v49z" />
    <glyph glyph-name="Euro" unicode="&#x20ac;" horiz-adv-x="677" 
d="M468 -27q-127 0 -212 70.5t-112 198.5l-5 20h-100l7 40h88l-2 40q-1 5 -1 14q0 13 1 20l3 43h-72l7 40h72l5 20q32 125 118 193t210 68q73 0 139 -26l-7 -42q-60 31 -134 31q-100 0 -170 -54.5t-100 -155.5l-10 -34h368l-6 -40h-368l-2 -24q0 -6 -0.5 -12.5t-1 -10
t-0.5 -8v-7.5q0 -4 0.5 -10.5t0.5 -9.5l2 -35h351l-7 -40h-339l8 -32q28 -105 99 -162.5t174 -57.5q77 0 132 32l14 -39q-69 -30 -150 -30z" />
    <glyph glyph-name="Rouble" unicode="&#x20bd;" horiz-adv-x="737" 
d="M652 516q0 -106 -72 -160q-54 -41 -142 -41h-239v-109h384v-35h-384v-171h-42v171h-73v35h73v112h-73v34h73v362h270q100 0 148 -33q77 -53 77 -165zM611 514q0 92 -62 134q-28 19 -55.5 23.5t-73.5 4.5h-221v-324h215q84 0 124 24q73 43 73 138z" />
    <glyph glyph-name="afii61352" unicode="&#x2116;" horiz-adv-x="950" 
d="M107 631v-631h-42v685h53l411 -626h2v626h42v-685h-50l-414 631h-2zM768 126q-64 0 -100 40.5t-36 104.5t36 104.5t100 40.5t100 -40.5t36 -104.5t-36 -104.5t-100 -40.5zM768 163q47 0 71.5 31t24.5 77t-24.5 77t-71.5 31t-71.5 -31t-24.5 -77t24.5 -77t71.5 -31z
M636 43h274v-43h-274v43z" />
    <glyph glyph-name="trademark" unicode="&#x2122;" horiz-adv-x="990" 
d="M265 684v-328h-30v328h-129v28h288v-28h-129zM493 679v-323h-28v356h46l123 -315l123 315h44v-356h-27v323l-127 -323h-27z" />
    <glyph glyph-name="Delta" unicode="&#x2206;" horiz-adv-x="639" 
d="M14 0l287 712h34l291 -712h-612zM572 35l-255 632l-252 -632h507z" />
    <glyph glyph-name="radical" unicode="&#x221a;" horiz-adv-x="600" 
d="M270 -163l203 948h33l-215 -997h-32l-178 364l-44 -21l-13 27l73 36z" />
    <glyph glyph-name="infinity" unicode="&#x221e;" horiz-adv-x="722" 
d="M361 291q4 3 19.5 17.5t21.5 19.5t21 18t23.5 18.5t23.5 14.5t26 12.5t25.5 7t27.5 3.5q56 0 91 -37t35 -93q0 -58 -34.5 -95.5t-91.5 -37.5q-14 0 -28.5 3t-25.5 7t-25.5 12.5t-23 13.5t-23.5 17.5t-20.5 17.5t-21.5 19.5t-20 18.5q-9 -8 -32.5 -29t-36 -30.5t-33.5 -23
t-42 -19.5t-44 -6q-57 0 -91.5 36.5t-34.5 93.5q0 55 34.5 93.5t88.5 38.5q11 0 22.5 -2t20.5 -4.5t21.5 -9t19.5 -10t20.5 -13t18.5 -13t18.5 -15.5t16.5 -14.5t17.5 -15.5t15.5 -14zM383 269q7 -6 28 -24.5t32.5 -27.5t31 -21.5t37.5 -18t37 -5.5q43 0 68 27t25 72
q0 42 -24.5 70t-66.5 28q-21 0 -43 -8.5t-49.5 -29.5t-37 -28.5t-38.5 -33.5zM338 269q-2 2 -19.5 17.5t-23.5 20t-22.5 17.5t-26 18.5t-24.5 13t-28 10.5t-26 3q-39 0 -63.5 -29t-24.5 -69q0 -44 24.5 -71t68.5 -27q29 0 62.5 18t52.5 33.5t50 44.5z" />
    <glyph glyph-name="approxequal" unicode="&#x2248;" horiz-adv-x="600" 
d="M530 402h27q-9 -48 -39 -81.5t-77 -33.5q-37 0 -144 37q-15 5 -41.5 14.5t-39 13.5t-28.5 7.5t-29 3.5q-33 0 -57 -24.5t-32 -58.5h-28q10 49 39 82t77 33q16 0 35.5 -4t32 -7.5t40.5 -13t40 -13.5t36 -12.5t36.5 -12.5t30 -8t31.5 -4q34 0 57.5 24t32.5 58zM530 261h27
q-9 -48 -39 -81.5t-77 -33.5q-37 0 -144 37q-15 5 -41.5 14.5t-39 13.5t-28.5 7.5t-29 3.5q-33 0 -57 -24.5t-32 -58.5h-28q10 49 39 82t77 33q16 0 35.5 -4t32 -7.5t40.5 -13t40 -13.5t36 -12.5t36.5 -12.5t30 -8t31.5 -4q34 0 57.5 24t32.5 58z" />
    <glyph glyph-name="notequal" unicode="&#x2260;" horiz-adv-x="600" 
d="M52 161v33h184l80 150h-264v33h282l76 143l29 -15l-68 -128h170v-33h-188l-81 -150h269v-33h-286l-75 -141l-29 15l67 126h-166z" />
    <glyph glyph-name="lessequal" unicode="&#x2264;" horiz-adv-x="600" 
d="M541 98v-37l-489 199v36l489 200v-37l-445 -181zM541 -12h-489v31h489v-31z" />
    <glyph glyph-name="greaterequal" unicode="&#x2265;" horiz-adv-x="600" 
d="M52 496l489 -200v-36l-489 -199v37l446 180l-446 181v37zM52 -12v31h489v-31h-489z" />
    <glyph glyph-name="hyphenminus" unicode="&#xe000;" horiz-adv-x="352" 
d="M69 251v39h214v-39h-214z" />
    <glyph glyph-name="nbspace" unicode="&#xe001;" horiz-adv-x="278" 
 />
    </font>
</defs>
</svg>
