<?xml version="1.0" standalone="no"?>
<!DOCTYPE svg PUBLIC "-//W3C//DTD SVG 1.1//EN" "http://www.w3.org/Graphics/SVG/1.1/DTD/svg11.dtd" >
<svg xmlns="http://www.w3.org/2000/svg" xmlns:xlink="http://www.w3.org/1999/xlink" version="1.1">
<metadata>
Created by FontForge 20161013 at Thu Dec  1 18:46:51 2016
 By ,,,
Copyrighted (c) 1981, 1997 by and the property of Linotype-Hell AG and/or its subsidiaries. All Rights Reserved. All Cyrillic characters designed by DoubleAlex. Helvetica is a registered Trademark of Linotype-Hell AG and/or its subsidiaries.
</metadata>
<defs>
<font id="HelveticaNeueCyr-Roman" horiz-adv-x="556" >
  <font-face 
    font-family="HelveticaNeueCyr"
    font-weight="400"
    font-stretch="normal"
    units-per-em="1000"
    panose-1="0 0 0 0 0 0 0 0 0 0"
    ascent="800"
    descent="-200"
    x-height="516"
    cap-height="712"
    bbox="-27 -212 1068 899"
    underline-thickness="50"
    underline-position="-198"
    unicode-range="U+0020-E001"
  />
<missing-glyph horiz-adv-x="500" 
d="M125 63h250v589h-250v-589zM63 0v714h375v-714h-375z" />
    <glyph glyph-name=".notdef" horiz-adv-x="500" 
d="M125 63h250v589h-250v-589zM63 0v714h375v-714h-375z" />
    <glyph glyph-name=".null" horiz-adv-x="0" 
 />
    <glyph glyph-name="nonmarkingreturn" horiz-adv-x="333" 
 />
    <glyph glyph-name="space" unicode=" " horiz-adv-x="278" 
 />
    <glyph glyph-name="exclam" unicode="!" horiz-adv-x="259" 
d="M83 494v218h94v-218l-25 -317h-46zM77 0v101h105v-101h-105z" />
    <glyph glyph-name="quotedbl" unicode="&#x22;" horiz-adv-x="426" 
d="M103 696h65l-9 -278h-46zM258 696h65l-9 -278h-47z" />
    <glyph glyph-name="numbersign" unicode="#" 
d="M317 211h-130l-40 -211h-65l40 211h-108v56h118l32 164h-108l-1 55h119l40 210h65l-40 -210h130l41 210h64l-40 -210h108v-55h-118l-32 -164h108l1 -56h-119l-40 -211h-64zM228 431l-31 -164h131l31 164h-131z" />
    <glyph glyph-name="dollar" unicode="$" 
d="M251 719v69h47v-69q201 -3 204 -192h-84v6q0 107 -120 116v-248q45 -13 68.5 -21t58 -25t51.5 -36.5t30 -51.5t13 -74q0 -92 -58 -146t-163 -61v-83h-47v83q-102 5 -161 59.5t-59 157.5v10h85q-1 -6 -1 -13q0 -133 136 -145v275q-98 19 -152 63.5t-54 128.5
q0 89 57 138.5t149 58.5zM251 410v237q-57 -5 -90 -36.5t-33 -81.5q0 -52 33 -79t90 -40zM298 319v-265q60 2 98 40t38 97q0 99 -136 128z" />
    <glyph glyph-name="percent" unicode="%" horiz-adv-x="1000" 
d="M260 -32l401 763h66l-399 -763h-68zM258 711q76 0 116.5 -49t40.5 -142q0 -102 -41 -156t-120 -54q-161 0 -161 202q0 95 43 147t122 52zM254 653q-86 0 -86 -146q0 -140 86 -140t86 149q0 137 -86 137zM756 386q76 0 116.5 -49t40.5 -142q0 -102 -41 -155t-120 -53
q-161 0 -161 200q0 95 43 147t122 52zM752 328q-86 0 -86 -146q0 -140 86 -140t86 149q0 137 -86 137z" />
    <glyph glyph-name="ampersand" unicode="&#x26;" horiz-adv-x="630" 
d="M474 337h81q-5 -101 -49 -176l138 -161h-110l-76 90q-73 -103 -208 -103q-93 0 -155 53.5t-62 145.5q0 70 48 126.5t119 87.5q-77 94 -77 165q0 67 46.5 109t119.5 42q72 0 117.5 -41.5t45.5 -106.5q0 -116 -131 -185l130 -159q20 49 23 113zM276 438q94 56 94 123
q0 37 -23.5 61t-58.5 24t-59 -22.5t-24 -55.5q0 -7 1.5 -15t4.5 -16t6 -14.5t9 -16t9 -14.5t10.5 -15.5t10 -13.5t11 -13.5t9.5 -11.5zM410 147l-164 198q-124 -63 -124 -155q0 -55 40 -93.5t97 -38.5q94 0 151 89z" />
    <glyph glyph-name="quotesingle" unicode="'" horiz-adv-x="278" 
d="M106 696h65l-9 -278h-46z" />
    <glyph glyph-name="parenleft" unicode="(" horiz-adv-x="259" 
d="M204 725h65q-133 -205 -133 -461q0 -242 133 -452h-65q-81 126 -118.5 227t-37.5 224q0 253 156 462z" />
    <glyph glyph-name="parenright" unicode=")" horiz-adv-x="259" 
d="M209 263q0 -123 -37.5 -224t-118.5 -227h-63q131 212 131 452q0 254 -131 461h63q156 -209 156 -462z" />
    <glyph glyph-name="asterisk" unicode="*" horiz-adv-x="352" 
d="M202 610l106 40l20 -49l-109 -38l66 -90l-41 -30l-69 94l-66 -94l-44 30l65 90l-106 38l17 49l107 -40v113h54v-113z" />
    <glyph glyph-name="plus" unicode="+" horiz-adv-x="600" 
d="M333 221v-221h-66v221h-218v59h218v221h66v-221h218v-59h-218z" />
    <glyph glyph-name="comma" unicode="," horiz-adv-x="278" 
d="M83 0v111h111v-68q0 -37 -3.5 -63.5t-14.5 -53.5t-34 -45t-59 -27v50q54 18 55 96h-55z" />
    <glyph glyph-name="hyphen" unicode="-" horiz-adv-x="389" 
d="M49 236v84h291v-84h-291z" />
    <glyph glyph-name="period" unicode="." horiz-adv-x="278" 
d="M83 0v111h111v-111h-111z" />
    <glyph glyph-name="slash" unicode="/" horiz-adv-x="333" 
d="M-16 -15l297 744h70l-297 -744h-70z" />
    <glyph glyph-name="zero" unicode="0" 
d="M277 709q64 0 109.5 -23.5t69.5 -57.5t38 -88.5t17 -98t3 -104.5q0 -56 -4.5 -101t-19 -93.5t-39.5 -80.5t-68 -53t-102 -21q-45 0 -81 11t-60.5 29t-43 45.5t-29 56t-16.5 66t-8 70.5t-2 73q0 50 2.5 87t10 83.5t23.5 79t41 61.5t65.5 44t93.5 15zM277 633
q-31 0 -55 -11.5t-39 -26.5t-26 -44.5t-15.5 -49.5t-7.5 -57.5t-3 -53v-51.5q0 -35 1 -58t5 -60t14 -61.5t25 -49t41.5 -37t61.5 -12.5q30 0 53.5 11t38.5 26t25.5 42.5t15.5 48t7.5 55t3 51t0.5 48.5v50t-3 52t-7.5 57t-15.5 49t-26 44t-39 26.5t-55 11.5z" />
    <glyph glyph-name="one" unicode="1" 
d="M291 708h67v-708h-93v513h-178v64q86 0 136.5 28t67.5 103z" />
    <glyph glyph-name="two" unicode="2" 
d="M123 77h364v-77h-462q3 59 18 103t46.5 79.5t61.5 58.5t85 57q86 54 113 81q56 55 56 122q0 59 -38 96.5t-99 37.5q-73 0 -104.5 -50.5t-33.5 -127.5h-86v19q0 105 62.5 169t165.5 64q101 0 161 -56t60 -150q0 -40 -13.5 -75.5t-30 -59.5t-50 -51t-55.5 -41.5t-63 -39.5
q-82 -49 -109 -76q-38 -38 -49 -83z" />
    <glyph glyph-name="three" unicode="3" 
d="M129 479h-83q3 110 61.5 170t163.5 60q94 0 151 -51t57 -134q0 -50 -25.5 -89.5t-71.5 -58.5q60 -14 95 -60t35 -111q1 -98 -67 -157.5t-178 -59.5q-108 0 -172.5 58.5t-64.5 159.5v13h84q3 -76 43 -117t111 -41q68 0 110.5 38.5t42.5 99.5q0 62 -42.5 99t-114.5 37
q-18 0 -46 -4v72q14 -1 29 -1q66 0 104.5 31.5t38.5 85.5q0 52 -33.5 84t-89.5 32q-64 0 -100 -40.5t-38 -115.5z" />
    <glyph glyph-name="four" unicode="4" 
d="M419 709v-466h96v-72h-96v-171h-80v171h-311v80l322 458h69zM339 584l-236 -341h236v341z" />
    <glyph glyph-name="five" unicode="5" 
d="M55 328l66 368h350v-75h-287l-42 -211q52 56 143 56q100 0 162 -64.5t62 -167.5q0 -108 -68 -177t-177 -69q-101 0 -163.5 55t-65.5 148h86q5 -59 45 -96t99 -37q66 0 110 48t44 119q0 74 -43 120.5t-112 46.5q-88 0 -136 -69z" />
    <glyph glyph-name="six" unicode="6" 
d="M500 525h-87q-7 51 -37.5 80.5t-82.5 29.5q-36 0 -64.5 -13t-46 -37.5t-29.5 -49.5t-18 -61t-8 -58.5t-4 -54.5q58 93 176 93q99 0 159.5 -62.5t60.5 -164.5q0 -105 -63.5 -172t-169.5 -67q-247 0 -247 350q0 55 6.5 104t24 99.5t45.5 86.5t74.5 58.5t106.5 22.5
q89 0 143 -48.5t61 -135.5zM284 380q-65 0 -105 -43.5t-40 -113.5q0 -73 40.5 -117t106.5 -44q64 0 103.5 42.5t39.5 114.5q0 74 -39 117.5t-106 43.5z" />
    <glyph glyph-name="seven" unicode="7" 
d="M46 615v81h458v-73q-232 -265 -271 -623h-94q12 164 86.5 325t191.5 290h-371z" />
    <glyph glyph-name="eight" unicode="8" 
d="M165 379q-47 20 -72.5 58.5t-25.5 90.5q0 80 59 130.5t152 50.5q92 0 150.5 -49.5t58.5 -127.5q0 -108 -97 -153q125 -44 125 -173q0 -101 -64.5 -159.5t-175.5 -58.5q-106 0 -170.5 58t-64.5 154q0 64 32.5 110.5t92.5 68.5zM278 633q-56 0 -90 -30.5t-34 -80.5
t34 -80.5t90 -30.5q55 0 88.5 30.5t33.5 80.5q0 51 -33 81t-89 30zM275 342q-64 0 -105 -39.5t-41 -100.5q0 -63 41.5 -103.5t106.5 -40.5q66 0 107.5 40t41.5 103t-42 102t-109 39z" />
    <glyph glyph-name="nine" unicode="9" 
d="M50 171h84q7 -52 41.5 -81.5t88.5 -29.5q139 0 158 231q2 21 2 47q-60 -97 -173 -97q-97 0 -157 63.5t-60 166.5q0 106 65 172t169 66q244 0 244 -346q0 -53 -6.5 -101.5t-23.5 -99.5t-44 -88.5t-72.5 -61.5t-104.5 -24q-90 0 -147.5 48.5t-63.5 134.5zM264 633
q-63 0 -101.5 -43.5t-38.5 -115.5q0 -68 36.5 -112.5t103.5 -44.5q65 0 105 42.5t40 112.5q0 73 -40 117t-105 44z" />
    <glyph glyph-name="colon" unicode=":" horiz-adv-x="278" 
d="M83 0v111h111v-111h-111zM83 405v111h111v-111h-111z" />
    <glyph glyph-name="semicolon" unicode=";" horiz-adv-x="278" 
d="M83 0v111h111v-68q0 -37 -3.5 -63.5t-14.5 -53.5t-34 -45t-59 -27v50q54 18 55 96h-55zM83 405v111h111v-111h-111z" />
    <glyph glyph-name="less" unicode="&#x3c;" horiz-adv-x="600" 
d="M551 91v-67l-502 199v65l502 200v-67l-423 -166z" />
    <glyph glyph-name="equal" unicode="=" horiz-adv-x="600" 
d="M551 384v-60h-502v60h502zM551 193v-59h-502v59h502z" />
    <glyph glyph-name="greater" unicode="&#x3e;" horiz-adv-x="600" 
d="M49 488l502 -200v-65l-502 -199v67l423 164l-423 166v67z" />
    <glyph glyph-name="question" unicode="?" 
d="M139 489h-84q0 104 57.5 170t167.5 66q96 0 153.5 -52t57.5 -140q0 -53 -19 -91.5t-59 -75.5q-5 -5 -25.5 -23.5t-23.5 -22.5t-16.5 -19t-15.5 -23.5t-8 -25.5t-7 -35.5t-1 -43.5h-82v6q0 45 4.5 74t21 56.5t31 43.5t53.5 55q32 32 44.5 57.5t12.5 57.5q0 58 -33 92
t-89 34q-131 0 -140 -160zM221 0v101h105v-101h-105z" />
    <glyph glyph-name="at" unicode="@" horiz-adv-x="800" 
d="M701 119l21 -29q-77 -56 -147.5 -80.5t-156.5 -24.5q-164 0 -275.5 99t-111.5 261q0 163 116 273.5t288 110.5q147 0 240.5 -83t93.5 -215q0 -106 -61 -184.5t-142 -78.5q-35 0 -56.5 20t-21.5 51q0 13 5 33q-51 -104 -143 -104q-60 0 -97 41.5t-37 108.5
q0 98 59.5 170.5t138.5 72.5q99 0 120 -90l21 75h58l-59 -199q-20 -69 -20 -94q0 -20 12.5 -31.5t34.5 -11.5q57 0 102.5 68.5t45.5 154.5q0 115 -82 186t-213 71q-155 0 -259 -99t-104 -247q0 -145 101 -233.5t248 -88.5q79 0 144.5 24t136.5 73zM507 430q0 40 -22 65
t-59 25q-61 0 -101.5 -68.5t-40.5 -134.5q0 -49 22 -78t60 -29q62 0 101.5 76t39.5 144z" />
    <glyph glyph-name="A" unicode="A" horiz-adv-x="648" 
d="M-6 0l278 712h106l278 -712h-105l-79 218h-299l-81 -218h-98zM323 622l-123 -329h244z" />
    <glyph glyph-name="B" unicode="B" horiz-adv-x="685" 
d="M372 0h-293v712h304q98 0 162.5 -43t64.5 -135q0 -53 -28.5 -94.5t-76.5 -58.5q66 -15 101.5 -62t35.5 -118q0 -201 -270 -201zM349 632h-178v-225h169q29 0 49.5 1.5t46.5 7.5t41.5 17.5t27 33.5t11.5 53t-10 52.5t-24 33t-38.5 17.5t-44 7.5t-50.5 1.5zM343 333h-172
v-254h188q35 0 57 1.5t49.5 8.5t43.5 20.5t27 39t11 61.5q0 30 -7.5 52t-25 35t-33 21t-44.5 11t-45 3.5t-49 0.5z" />
    <glyph glyph-name="C" unicode="C" horiz-adv-x="722" 
d="M588 269h94q-12 -135 -93.5 -209.5t-214.5 -74.5q-152 0 -241 99.5t-89 270.5q0 160 89.5 266.5t247.5 106.5q113 0 199 -61t96 -169h-94q-16 70 -70 109.5t-133 39.5q-119 0 -179.5 -84t-60.5 -207q0 -136 64 -214t175 -78q91 0 145 52.5t65 152.5z" />
    <glyph glyph-name="D" unicode="D" horiz-adv-x="704" 
d="M328 0h-249v712h232q181 0 267 -84t86 -266q0 -179 -80 -270.5t-256 -91.5zM312 631h-139v-550h143q134 0 194.5 65.5t60.5 204.5q0 146 -59 213t-200 67z" />
    <glyph glyph-name="E" unicode="E" horiz-adv-x="611" 
d="M79 0v712h493v-82h-399v-223h373v-79h-373v-246h404v-82h-498z" />
    <glyph glyph-name="F" unicode="F" horiz-adv-x="574" 
d="M80 0v712h468v-82h-374v-222h330v-79h-330v-329h-94z" />
    <glyph glyph-name="G" unicode="G" horiz-adv-x="759" 
d="M385 300v77h312v-377h-60l-24 89q-84 -104 -230 -104q-152 0 -245.5 100.5t-93.5 264.5q0 163 92.5 270t253.5 107q74 0 138 -25.5t109 -80t51 -128.5h-92q-11 70 -67.5 112.5t-138.5 42.5q-116 0 -184 -79.5t-68 -215.5q0 -134 68 -213t183 -79q108 0 164.5 65.5
t59.5 173.5h-228z" />
    <glyph glyph-name="H" unicode="H" horiz-adv-x="722" 
d="M549 415v297h94v-712h-94v333h-376v-333h-94v712h94v-297h376z" />
    <glyph glyph-name="I" unicode="I" horiz-adv-x="259" 
d="M83 0v712h94v-712h-94z" />
    <glyph glyph-name="J" unicode="J" horiz-adv-x="519" 
d="M349 228v484h94v-493q0 -112 -45 -173t-160 -61q-113 0 -163 55t-50 167q0 14 1 27h91v-25q0 -72 24.5 -110t95.5 -38q32 0 53.5 10t33 23.5t17.5 38.5t7 44t1 51z" />
    <glyph glyph-name="K" unicode="K" horiz-adv-x="667" 
d="M173 359l361 353h123l-300 -286l312 -426h-120l-258 362l-118 -112v-250h-94v712h94v-353z" />
    <glyph glyph-name="L" unicode="L" 
d="M174 712v-630h378v-82h-472v712h94z" />
    <glyph glyph-name="M" unicode="M" horiz-adv-x="871" 
d="M170 0h-90v712h130l229 -603l221 603h131v-712h-89v594l-223 -594h-82l-227 594v-594z" />
    <glyph glyph-name="N" unicode="N" horiz-adv-x="722" 
d="M165 0h-90v712h103l376 -578v578h91v-712h-106l-374 571v-571z" />
    <glyph glyph-name="O" unicode="O" horiz-adv-x="760" 
d="M379 729q162 0 252 -101.5t90 -265.5t-89 -270.5t-252 -106.5q-83 0 -149 30t-107.5 82t-63 120t-21.5 147q0 167 92.5 266t247.5 99zM379 647q-119 0 -182.5 -83.5t-63.5 -206.5q0 -134 67.5 -213.5t180.5 -79.5q112 0 179 80t67 213q0 132 -67.5 211t-180.5 79z" />
    <glyph glyph-name="P" unicode="P" horiz-adv-x="648" 
d="M177 0h-94v712h293q109 0 173 -49.5t64 -155.5q0 -215 -243 -215h-193v-292zM345 631h-168v-260h181q76 0 118.5 28.5t42.5 101.5q0 41 -13.5 68t-39.5 40t-54 17.5t-67 4.5z" />
    <glyph glyph-name="Q" unicode="Q" horiz-adv-x="760" 
d="M615 73l94 -73l-49 -59l-108 85q-76 -41 -174 -41q-108 0 -186 51.5t-115.5 136t-37.5 191.5q0 165 93 264.5t248 99.5q158 0 249.5 -98.5t91.5 -270.5q0 -185 -106 -286zM481 83l-80 63l50 58l94 -77q82 82 82 230q0 131 -67 210.5t-178 79.5q-119 0 -184 -82.5
t-65 -204.5q0 -127 63.5 -212t187.5 -85q57 0 97 20z" />
    <glyph glyph-name="R" unicode="R" horiz-adv-x="685" 
d="M173 0h-94v712h313q239 0 239 -197q0 -62 -33.5 -109.5t-88.5 -63.5q36 -8 58 -23t32 -42t13 -48t5 -62q0 -4 1 -19.5t1 -21t1.5 -19.5t2.5 -21t3 -19t5 -19.5t7 -17t9 -17t11 -13.5h-108q-7 10 -11.5 25t-6.5 35.5t-3 33t-2 36.5t-1 27q-5 91 -37.5 121t-128.5 30h-187
v-308zM375 632h-202v-249h177q33 0 55.5 2t49.5 9t43.5 20t27.5 37t11 58q0 72 -43.5 97.5t-118.5 25.5z" />
    <glyph glyph-name="S" unicode="S" horiz-adv-x="648" 
d="M583 503h-91q-15 145 -177 145q-77 0 -119 -31t-42 -87q0 -20 6 -35t20.5 -26.5t27.5 -19.5t41 -16t45 -11.5t53 -11.5q44 -9 73 -16.5t69 -24.5t63.5 -37.5t41 -54.5t17.5 -77q0 -75 -42 -125t-102 -69.5t-133 -19.5q-134 0 -214.5 62.5t-80.5 186.5h91q3 -91 61 -132.5
t151 -41.5q73 0 125 30.5t52 99.5q0 32 -14 54.5t-44 37t-60 23.5t-79 20q-7 1 -10 2q-110 25 -144 40q-104 45 -104 155q0 102 75.5 152.5t182.5 50.5q117 0 187 -56t74 -167z" />
    <glyph glyph-name="T" unicode="T" horiz-adv-x="574" 
d="M1 630v82h572v-82h-239v-630h-94v630h-239z" />
    <glyph glyph-name="U" unicode="U" horiz-adv-x="722" 
d="M74 278v434h95v-449q0 -104 45 -152t147 -48q105 0 148.5 49t43.5 151v449h95v-424q0 -155 -65 -228t-222 -73q-152 0 -219.5 70.5t-67.5 220.5z" />
    <glyph glyph-name="V" unicode="V" horiz-adv-x="611" 
d="M359 0h-108l-251 712h102l205 -620l207 620h99z" />
    <glyph glyph-name="W" unicode="W" horiz-adv-x="926" 
d="M296 0h-99l-183 712h97l141 -595l161 595h103l159 -595l146 595h94l-190 -712h-99l-164 596z" />
    <glyph glyph-name="X" unicode="X" horiz-adv-x="611" 
d="M303 438l185 274h107l-237 -345l250 -367h-114l-192 293l-199 -293h-106l249 367l-235 345h113z" />
    <glyph glyph-name="Y" unicode="Y" horiz-adv-x="648" 
d="M329 373l211 339h108l-275 -421v-291h-93v291l-277 421h113z" />
    <glyph glyph-name="Z" unicode="Z" horiz-adv-x="611" 
d="M52 630v82h522v-78l-444 -552h455v-82h-568v80l443 550h-408z" />
    <glyph glyph-name="bracketleft" unicode="[" horiz-adv-x="259" 
d="M72 -186v909h189v-68h-108v-773h108v-68h-189z" />
    <glyph glyph-name="backslash" unicode="\" horiz-adv-x="333" 
d="M-16 729h68l299 -744h-72z" />
    <glyph glyph-name="bracketright" unicode="]" horiz-adv-x="259" 
d="M0 655v68h187v-909h-187v68h106v773h-106z" />
    <glyph glyph-name="asciicircum" unicode="^" horiz-adv-x="600" 
d="M299 617l-131 -336h-69l170 415h62l170 -415h-69z" />
    <glyph glyph-name="underscore" unicode="_" horiz-adv-x="500" 
d="M500 -73v-50h-500v50h500z" />
    <glyph glyph-name="grave" unicode="`" horiz-adv-x="222" 
d="M108 590l-130 142h108l86 -142h-64z" />
    <glyph glyph-name="a" unicode="a" horiz-adv-x="537" 
d="M521 68v-66q-29 -8 -58 -8q-73 0 -75 74q-72 -80 -187 -80q-77 0 -121 38.5t-44 105.5q0 138 183 161q12 2 35 4q87 10 107 23q23 16 23 55q0 85 -117 85q-60 0 -91 -24.5t-37 -80.5h-83q2 83 59 129t157 46q109 0 162 -50q17 -16 25 -42t9 -42.5t1 -49.5q0 -38 -2 -115
t-2 -115q0 -28 7.5 -39.5t27.5 -11.5q8 0 21 3zM384 174v94q-9 -7 -19 -12t-25.5 -8t-21 -4.5t-26.5 -4t-22 -2.5q-31 -4 -40.5 -5.5t-36 -8.5t-37.5 -16t-21.5 -26.5t-10.5 -41.5q0 -40 27.5 -63t75.5 -23q61 0 109 36t48 85z" />
    <glyph glyph-name="b" unicode="b" horiz-adv-x="593" 
d="M63 0v712h85v-267q56 85 171 85q106 0 169.5 -73.5t63.5 -196.5q0 -125 -65 -199t-173 -74q-124 0 -171 88v-75h-80zM306 458q-82 0 -121.5 -59t-39.5 -145q0 -91 43.5 -144.5t117.5 -53.5q71 0 114.5 55.5t43.5 147.5q0 91 -43 145t-115 54z" />
    <glyph glyph-name="c" unicode="c" horiz-adv-x="537" 
d="M422 188h86q-11 -93 -70.5 -147t-154.5 -54q-117 0 -181 71.5t-64 192.5q0 129 67 204.5t181 75.5q95 0 152 -47.5t67 -135.5h-88q-23 112 -130 112q-74 0 -117 -54.5t-43 -147.5q0 -94 41 -148t113 -54q58 0 94.5 34t46.5 98z" />
    <glyph glyph-name="d" unicode="d" horiz-adv-x="593" 
d="M444 447v265h85v-712h-80v76q-48 -88 -170 -88q-110 0 -174.5 72.5t-64.5 198.5q0 117 60.5 194.5t174.5 77.5q111 0 169 -84zM286 458q-73 0 -115.5 -53t-42.5 -144q0 -94 43.5 -149.5t116.5 -55.5q74 0 116 53.5t42 148.5q0 85 -39.5 142.5t-120.5 57.5z" />
    <glyph glyph-name="e" unicode="e" horiz-adv-x="537" 
d="M422 163h83q-39 -178 -225 -178q-114 0 -178.5 70t-64.5 196q0 125 66.5 202.5t173.5 77.5q119 0 176.5 -80.5t57.5 -203.5v-12h-388l-1 -6q0 -82 43 -129t118 -47q56 0 88.5 26t50.5 84zM123 304h300q-6 74 -45 115.5t-103 41.5q-62 0 -103 -42t-49 -115z" />
    <glyph glyph-name="f" unicode="f" horiz-adv-x="296" 
d="M297 714v-74q-22 4 -47 4q-40 0 -52.5 -13t-12.5 -56v-59h99v-70h-99v-446h-86v446h-87v70h87v69q0 70 36 101.5t107 31.5q22 0 55 -4z" />
    <glyph glyph-name="g" unicode="g" horiz-adv-x="574" 
d="M433 441v75h78v-460q0 -65 -7 -101.5t-26 -68.5q-57 -94 -204 -94q-87 0 -147 35.5t-70 116.5h87q15 -86 133 -86q79 0 114.5 39.5t37.5 127.5l1 63q-48 -92 -164 -92q-104 0 -165.5 70t-61.5 190q0 113 61 193.5t170 80.5q54 0 96.5 -23t66.5 -66zM274 456
q-69 0 -108.5 -53.5t-39.5 -147.5q0 -85 41 -136.5t109 -51.5q71 0 111.5 54t40.5 148q0 88 -40.5 137.5t-113.5 49.5z" />
    <glyph glyph-name="h" unicode="h" 
d="M64 0v712h85v-269q57 86 169 86q174 0 174 -176v-353h-85v333q0 59 -24.5 90.5t-88.5 31.5q-78 0 -111.5 -50t-33.5 -143v-262h-85z" />
    <glyph glyph-name="i" unicode="i" horiz-adv-x="222" 
d="M68 608v104h86v-104h-86zM68 0v516h86v-516h-86z" />
    <glyph glyph-name="j" unicode="j" horiz-adv-x="222" 
d="M70 -53v569h86v-571q0 -78 -27 -114.5t-105 -36.5q-17 0 -37 4v71q26 -2 27 -2q21 0 33 4t17 17t5.5 22.5t0.5 36.5zM70 608v104h86v-104h-86z" />
    <glyph glyph-name="k" unicode="k" horiz-adv-x="519" 
d="M147 291l237 225h114l-205 -187l220 -329h-108l-177 270l-81 -75v-195h-83v712h83v-421z" />
    <glyph glyph-name="l" unicode="l" horiz-adv-x="222" 
d="M68 0v712h86v-712h-86z" />
    <glyph glyph-name="m" unicode="m" horiz-adv-x="853" 
d="M64 0v516h80v-75q34 46 73 67t95 21q106 0 143 -89q67 90 171 90q80 0 121.5 -44.5t41.5 -124.5v-361h-85v325q0 64 -20 96.5t-83 32.5q-132 0 -132 -161v-293h-85v331q0 59 -19.5 90.5t-75.5 31.5q-79 0 -109.5 -48.5t-30.5 -131.5v-273h-85z" />
    <glyph glyph-name="n" unicode="n" 
d="M64 0v516h80v-80q64 94 176 94q91 0 131.5 -47.5t40.5 -139.5v-343h-85v304q0 38 -2.5 59.5t-12.5 46t-34 35.5t-62 11q-147 0 -147 -186v-270h-85z" />
    <glyph glyph-name="o" unicode="o" horiz-adv-x="574" 
d="M290 531q117 0 182 -71t65 -199q0 -131 -65 -203t-183 -72q-119 0 -185.5 71.5t-66.5 198.5t68 201t185 74zM288 460q-75 0 -119 -55t-44 -147q0 -95 43.5 -148.5t121.5 -53.5q75 0 117.5 54t42.5 149q0 92 -43.5 146.5t-118.5 54.5z" />
    <glyph glyph-name="p" unicode="p" horiz-adv-x="593" 
d="M64 -197v713h80v-73q56 89 174 89q108 0 171.5 -73t63.5 -198t-62.5 -198.5t-168.5 -73.5q-112 0 -173 83v-269h-85zM305 461q-74 0 -116.5 -53.5t-42.5 -147.5t43.5 -147.5t118.5 -53.5q73 0 115 54t42 147q0 94 -42.5 147.5t-117.5 53.5z" />
    <glyph glyph-name="q" unicode="q" horiz-adv-x="593" 
d="M450 443v73h79v-713h-85v270q-52 -84 -173 -84q-111 0 -170.5 76.5t-59.5 190.5q0 127 64 201.5t174 74.5q117 0 171 -89zM286 461q-71 0 -114 -55.5t-43 -148.5q0 -91 42.5 -145t115.5 -54q74 0 117 54.5t43 149.5q0 93 -43 146t-118 53z" />
    <glyph glyph-name="r" unicode="r" horiz-adv-x="333" 
d="M333 528v-88q-9 1 -22 1q-41 0 -71 -12.5t-47.5 -32.5t-28.5 -50t-14.5 -60t-3.5 -68v-218h-85v516h81v-111q51 123 191 123z" />
    <glyph glyph-name="s" unicode="s" horiz-adv-x="500" 
d="M447 366h-85q-8 94 -126 94q-49 0 -77 -19t-28 -51q0 -9 2 -17.5t7.5 -15t10 -11.5t15 -9.5t16 -7.5t20 -6.5t20.5 -5t23.5 -5.5t22.5 -5q37 -8 55.5 -13t51 -18.5t49.5 -28t30.5 -40t13.5 -57.5q0 -75 -58.5 -119.5t-155.5 -44.5q-105 0 -161.5 45t-60.5 132h84
q7 -109 140 -109q57 0 91.5 23.5t34.5 62.5q0 26 -18 43t-40 24.5t-63 17.5q-6 1 -9 2q-9 2 -38.5 8.5t-42.5 10.5t-37.5 12.5t-36.5 18t-26.5 24t-20.5 34t-6 44.5q0 70 53.5 111t143.5 41q91 0 148.5 -43t57.5 -122z" />
    <glyph glyph-name="t" unicode="t" horiz-adv-x="315" 
d="M182 669v-153h103v-70h-103v-301q0 -25 0.5 -33t5.5 -21.5t17 -17.5t34 -4q19 0 46 3v-72q-41 -3 -65 -3q-26 0 -45.5 4t-33 9t-22 18t-13 22t-6.5 31t-2.5 34.5t-0.5 42.5v14v274h-87v70h87v153h85z" />
    <glyph glyph-name="u" unicode="u" 
d="M407 246v270h85v-516h-79v81q-64 -93 -178 -93q-82 0 -127 44t-45 129v355h85v-332q0 -61 23.5 -92.5t84.5 -31.5q151 0 151 186z" />
    <glyph glyph-name="v" unicode="v" horiz-adv-x="500" 
d="M297 0h-91l-192 516h95l146 -433l142 433h89z" />
    <glyph glyph-name="w" unicode="w" horiz-adv-x="758" 
d="M275 0h-92l-166 516h94l118 -425l105 425h93l109 -425l117 425h88l-165 -516h-90l-106 408z" />
    <glyph glyph-name="x" unicode="x" horiz-adv-x="518" 
d="M257 339l128 177h103l-180 -238l201 -278h-109l-145 212l-143 -212h-103l194 272l-179 244h108z" />
    <glyph glyph-name="y" unicode="y" horiz-adv-x="500" 
d="M257 105l145 411h89l-221 -580q-13 -35 -22.5 -54.5t-27 -43t-42 -34t-57.5 -10.5q-25 0 -63 9v76q37 -11 55 -11q42 0 60 43l40 92l-205 513h96z" />
    <glyph glyph-name="z" unicode="z" horiz-adv-x="480" 
d="M42 446v70h403v-56l-314 -388h327v-72h-436v65l308 381h-288z" />
    <glyph glyph-name="braceleft" unicode="{" horiz-adv-x="333" 
d="M2 246v42q77 9 98 40t21 110v48q0 119 45 174t165 63v-52q-73 -7 -101 -39t-28 -104v-64q0 -43 -3.5 -71t-15.5 -57t-38.5 -46t-68.5 -23q35 -5 59 -18t37 -29t20 -43.5t8.5 -49t1.5 -57.5v-52q0 -78 26.5 -113t102.5 -39v-52q-116 7 -163 60t-47 165v58
q0 81 -22.5 111.5t-96.5 37.5z" />
    <glyph glyph-name="bar" unicode="|" horiz-adv-x="222" 
d="M144 786v-998h-66v998h66z" />
    <glyph glyph-name="braceright" unicode="}" horiz-adv-x="333" 
d="M331 288v-42q-74 -7 -96.5 -37.5t-22.5 -111.5v-58q0 -112 -47 -165t-163 -60v52q76 4 102.5 39t26.5 113v52q0 36 1.5 57.5t8.5 49t20 43.5t37 29t59 18q-42 6 -68.5 23t-38.5 46t-15.5 57t-3.5 71v64q0 72 -28 104t-101 39v52q120 -8 165 -63t45 -174v-48
q0 -79 21 -110t98 -40z" />
    <glyph glyph-name="asciitilde" unicode="~" horiz-adv-x="600" 
d="M519 330h43q-7 -66 -39.5 -101.5t-86.5 -35.5q-33 0 -138 35q-13 4 -35.5 11.5l-33 11t-25 8t-24.5 6t-19 1.5q-30 0 -51.5 -22.5t-26.5 -57.5h-45q5 59 36.5 99t88.5 40q16 0 38 -4.5t36 -9t41 -13.5t35 -12l28.5 -9.5t35.5 -12t32 -8.5t32 -4q32 0 52.5 22.5t25.5 55.5
z" />
    <glyph glyph-name="sterling" unicode="&#xa3;" 
d="M523 494v-10h-87q-4 73 -40 116.5t-108 43.5q-61 0 -101 -36.5t-40 -92.5q0 -20 5.5 -40.5t11 -32.5t18.5 -36t18 -33h159v-43h-137q19 -42 19 -79q0 -27 -6 -50t-21 -43t-25 -32t-32.5 -32.5t-29.5 -27.5q64 31 112 31q38 0 82 -14q64 -19 83 -19q55 0 97 36l42 -66
q-24 -24 -63.5 -36.5t-77.5 -12.5q-14 0 -29.5 2.5t-24.5 5t-28.5 9t-27.5 8.5q-57 19 -95 19q-30 0 -51.5 -9t-52.5 -29l-46 69q48 32 78.5 77t30.5 96q0 47 -26 97h-83v43h58q-46 77 -46 141q0 91 64 148.5t166 57.5q106 0 170 -61.5t64 -164.5z" />
    <glyph glyph-name="currency" unicode="&#xa4;" 
d="M151 188l-65 -64l-40 40l64 64q-43 55 -43 128q0 76 43 128l-64 64l40 40l64 -64q55 43 129 43q65 0 127 -43l64 64l40 -40l-64 -64q43 -50 43 -128q0 -68 -43 -127l64 -65l-40 -40l-65 64q-18 -18 -55 -30.5t-72 -12.5q-70 0 -127 43zM278 506q-62 0 -106 -44t-44 -106
t44 -106.5t106 -44.5t106.5 44.5t44.5 106.5t-44.5 106t-106.5 44z" />
    <glyph glyph-name="brokenbar" unicode="&#xa6;" horiz-adv-x="222" 
d="M144 161v-248h-66v248h66zM144 661v-250h-66v250h66z" />
    <glyph glyph-name="section" unicode="&#xa7;" 
d="M464 545h-84q-9 106 -103 106q-42 0 -68.5 -22t-26.5 -58q0 -10 2 -19t7 -17.5t9.5 -15.5t15.5 -15.5t18.5 -14t24 -15.5t26.5 -16t32 -18.5t36 -20.5q86 -49 115 -78q48 -48 48 -110q0 -101 -104 -149q56 -47 56 -109q0 -73 -51.5 -118.5t-134.5 -45.5q-89 0 -141.5 49
t-56.5 135h85q9 -113 116 -113q43 0 70 23.5t27 60.5q0 13 -5.5 26.5t-18 26.5t-23 22.5t-30 22t-29 18t-30 16.5t-23.5 13q-6 4 -32 18t-34 19t-29.5 19.5t-30 23t-23.5 24.5t-21 30t-11 33.5t-5 40.5q0 52 29 92.5t77 52.5q-46 47 -46 103q0 70 50.5 113.5t132.5 43.5
q86 0 135 -47t49 -130zM189 419q-72 -33 -72 -94q0 -9 2 -17t4 -14.5t7.5 -14t8.5 -12t11.5 -11.5t12 -10t14 -9.5t13 -8.5t14 -8.5t13.5 -7.5q113 -67 145 -88q34 13 53 38t19 54q0 21 -8 37.5t-28.5 33.5t-28.5 22t-36 22q-132 78 -144 88z" />
    <glyph glyph-name="copyright" unicode="&#xa9;" horiz-adv-x="800" 
d="M400 729q154 0 263.5 -109t109.5 -263t-109 -262.5t-264 -108.5t-264 108.5t-109 262.5t109.5 263t263.5 109zM400 690q-139 0 -236.5 -97.5t-97.5 -235.5q0 -139 97.5 -236.5t236.5 -97.5q138 0 236 97.5t98 236.5q0 138 -97.5 235.5t-236.5 97.5zM529 282h52
q-8 -63 -56.5 -102t-117.5 -39q-91 0 -145 58t-54 156t54.5 160t140.5 62q71 0 121 -42.5t55 -106.5h-53q-9 47 -41.5 74t-79.5 27q-62 0 -99 -47t-37 -125q0 -77 38.5 -123t102.5 -46q46 0 77.5 25t41.5 69z" />
    <glyph glyph-name="guillemotleft" unicode="&#xab;" horiz-adv-x="463" 
d="M247 221v87l152 119v-87l-100 -76l100 -78v-85zM50 223v85l155 119v-85l-103 -77l103 -78v-87z" />
    <glyph glyph-name="logicalnot" unicode="&#xac;" horiz-adv-x="600" 
d="M489 133v191h-440v60h502v-251h-62z" />
    <glyph glyph-name="registered" unicode="&#xae;" horiz-adv-x="400" 
d="M200 729q76 0 129.5 -54t53.5 -130t-53.5 -129.5t-128.5 -53.5q-76 0 -129.5 53.5t-53.5 129.5t53.5 130t128.5 54zM200 700q-63 0 -108.5 -45.5t-45.5 -109.5t45.5 -109.5t109.5 -45.5q63 0 108.5 45.5t45.5 109.5t-45.5 109.5t-109.5 45.5zM163 453h-34v188h69
q86 0 86 -55q0 -33 -35 -46q32 -14 32 -60q0 -15 6 -27h-36q-5 10 -5 21q0 34 -10.5 43t-45.5 9h-27v-73zM196 613h-33v-59h34q52 0 52 30q0 10 -4.5 16.5t-14 9t-16 3t-18.5 0.5z" />
    <glyph glyph-name="degree" unicode="&#xb0;" horiz-adv-x="400" 
d="M200 710q63 0 107 -44.5t44 -106.5q0 -63 -44 -107.5t-107 -44.5t-107 44.5t-44 107.5q0 62 44 106.5t107 44.5zM200 654q-39 0 -67 -28t-28 -67q0 -40 28 -67.5t67 -27.5t67 27.5t28 67.5q0 39 -28 67t-67 28z" />
    <glyph glyph-name="plusminus" unicode="&#xb1;" horiz-adv-x="600" 
d="M333 266v-173h-66v173h-218v60h218v174h66v-174h218v-60h-218zM551 50v-58h-502v58h502z" />
    <glyph glyph-name="mu" unicode="&#xb5;" 
d="M148 63v-260h-85v713h85v-224v-42t2.5 -42t6.5 -44t13 -36.5t22 -32t33 -19t46 -8.5q36 0 62.5 15t40 36.5t21.5 55t10 60t2 61.5v220h85v-516h-79v80q-32 -47 -62.5 -68.5t-82.5 -21.5q-45 0 -70 16t-50 57z" />
    <glyph glyph-name="paragraph" unicode="&#xb6;" horiz-adv-x="600" 
d="M294 712h252v-53h-54v-833h-64v833h-122v-833h-64v433q-96 7 -150.5 65t-54.5 155q0 113 71.5 173t185.5 60z" />
    <glyph glyph-name="periodcentered" unicode="&#xb7;" horiz-adv-x="278" 
d="M83 237v111h111v-111h-111z" />
    <glyph glyph-name="guillemotright" unicode="&#xbb;" horiz-adv-x="463" 
d="M360 262l-102 79v88l155 -124v-85l-155 -119v85zM163 263l-100 78v86l152 -121v-85l-152 -118v85z" />
    <glyph glyph-name="divide" unicode="&#xf7;" horiz-adv-x="600" 
d="M551 280v-59h-502v59h502zM348 136v-112h-96v112h96zM348 489v-113h-96v113h96z" />
    <glyph glyph-name="florin" unicode="&#x192;" 
d="M344 547l-20 -100h104l-13 -67h-103l-65 -350q-10 -50 -20 -80.5t-29.5 -59.5t-52.5 -42t-82 -13q-14 0 -58 3l13 73q34 -2 37 -2q24 0 40.5 6.5t26 13t17 26t10 30t8.5 39.5l69 356h-92l14 67h91l19 105q15 85 56 122.5t122 37.5q31 0 56 -3l-15 -73q-30 3 -42 3
q-40 0 -60.5 -21t-30.5 -71z" />
    <glyph glyph-name="afii10023" unicode="&#x401;" horiz-adv-x="611" 
d="M79 0v712h493v-82h-399v-223h373v-79h-373v-246h404v-82h-498zM378 773v101h90v-101h-90zM188 773v101h91v-101h-91z" />
    <glyph glyph-name="afii10051" unicode="&#x402;" horiz-adv-x="746" 
d="M711 170q0 -125 -75.5 -214t-192.5 -89h-13v81q90 6 138 67t48 155q0 91 -41 142t-114 51t-115.5 -51t-42.5 -141v-171h-94v630h-208v82h570v-82h-268v-270h2q22 40 68 61t100 21q108 0 173 -74t65 -198z" />
    <glyph glyph-name="afii10052" unicode="&#x403;" horiz-adv-x="547" 
d="M232 751l81 142h105l-120 -142h-66zM547 630h-374v-630h-94v712h468v-82z" />
    <glyph glyph-name="afii10053" unicode="&#x404;" horiz-adv-x="722" 
d="M582 247h95q-18 -125 -98.5 -193.5t-207.5 -68.5q-152 0 -241 99.5t-89 270.5q0 160 89.5 266.5t247.5 106.5q111 0 196.5 -59t97.5 -164h-95q-17 67 -70.5 104.5t-130.5 37.5q-104 0 -163.5 -65.5t-72.5 -168.5h342v-79h-346q6 -126 69.5 -198t169.5 -72q85 0 138 47
t69 136z" />
    <glyph glyph-name="afii10054" unicode="&#x405;" horiz-adv-x="648" 
d="M583 503h-91q-15 145 -177 145q-77 0 -119 -31t-42 -87q0 -20 6 -35t20.5 -26.5t27.5 -19.5t41 -16t45 -11.5t53 -11.5q44 -9 73 -16.5t69 -24.5t63.5 -37.5t41 -54.5t17.5 -77q0 -75 -42 -125t-102 -69.5t-133 -19.5q-134 0 -214.5 62.5t-80.5 186.5h91q3 -91 61 -132.5
t151 -41.5q73 0 125 30.5t52 99.5q0 32 -14 54.5t-44 37t-60 23.5t-79 20q-7 1 -10 2q-110 25 -144 40q-104 45 -104 155q0 102 75.5 152.5t182.5 50.5q117 0 187 -56t74 -167z" />
    <glyph glyph-name="afii10055" unicode="&#x406;" horiz-adv-x="259" 
d="M83 0v712h94v-712h-94z" />
    <glyph glyph-name="afii10056" unicode="&#x407;" horiz-adv-x="259" 
d="M83 0v712h94v-712h-94zM180 773v101h90v-101h-90zM-7 773v101h88v-101h-88z" />
    <glyph glyph-name="afii10057" unicode="&#x408;" horiz-adv-x="519" 
d="M349 228v484h94v-493q0 -112 -45 -173t-160 -61q-113 0 -163 55t-50 167q0 14 1 27h91v-25q0 -72 24.5 -110t95.5 -38q32 0 53.5 10t33 23.5t17.5 38.5t7 44t1 51z" />
    <glyph glyph-name="afii10058" unicode="&#x409;" horiz-adv-x="1000" 
d="M962 213q0 -101 -57.5 -157t-161.5 -56h-274v630h-222l-14 -401q-4 -112 -45.5 -177t-119.5 -65q-35 0 -68 13v79q16 -10 51 -10q29 0 46.5 13.5t31 61.5t15.5 134l13 434h406v-288h180q105 0 162 -55t57 -156zM867 213q0 129 -156 129h-148v-260h148q156 0 156 131z" />
    <glyph glyph-name="afii10059" unicode="&#x40a;" horiz-adv-x="1000" 
d="M743 0h-268v344h-302v-344h-94v714h94v-290h302v290h94v-290h174q105 0 162 -55.5t57 -156.5t-57.5 -156.5t-161.5 -55.5zM867 212q0 132 -156 132h-142v-262h142q156 0 156 130z" />
    <glyph glyph-name="afii10060" unicode="&#x40b;" horiz-adv-x="746" 
d="M303 330v-330h-94v630h-208v82h570v-82h-268v-218l31 8q31 8 43.5 11t38.5 7t46 4q240 0 240 -217v-225h-95v217q0 23 -1 37.5t-9 37t-22 35t-43 22.5t-70 10q-21 0 -41 -2t-38.5 -6t-29 -6.5t-29 -8t-21.5 -6.5z" />
    <glyph glyph-name="afii10061" unicode="&#x40c;" horiz-adv-x="667" 
d="M173 359l361 353h123l-300 -286l312 -426h-120l-258 362l-118 -112v-250h-94v712h94v-353zM272 751l81 142h105l-120 -142h-66z" />
    <glyph glyph-name="afii10062" unicode="&#x40e;" horiz-adv-x="611" 
d="M411 899h51q-10 -63 -48.5 -100.5t-101.5 -37.5q-61 0 -102.5 38.5t-49.5 99.5h51q23 -78 100 -78q74 0 100 78zM247 161l12 25l-259 526h102l208 -434l204 434h101l-277 -567q-43 -88 -88.5 -124t-100.5 -36q-42 0 -88 16v80q29 -18 80 -18q59 0 106 98z" />
    <glyph glyph-name="afii10145" unicode="&#x40f;" horiz-adv-x="722" 
d="M643 712v-712h-234v-175h-94v175h-236v712h94v-630h376v630h94z" />
    <glyph glyph-name="afii10017" unicode="&#x410;" horiz-adv-x="648" 
d="M-6 0l278 712h106l278 -712h-105l-79 218h-299l-81 -218h-98zM323 622l-123 -329h244z" />
    <glyph glyph-name="afii10018" unicode="&#x411;" horiz-adv-x="685" 
d="M567 630h-394v-206h238q105 0 162 -56t57 -157q0 -100 -57.5 -155.5t-161.5 -55.5h-332v712h488v-82zM536 211q0 131 -156 131h-207v-260h207q156 0 156 129z" />
    <glyph glyph-name="afii10019" unicode="&#x412;" horiz-adv-x="685" 
d="M372 0h-293v712h304q98 0 162.5 -43t64.5 -135q0 -53 -28.5 -94.5t-76.5 -58.5q66 -15 101.5 -62t35.5 -118q0 -201 -270 -201zM349 632h-178v-225h169q29 0 49.5 1.5t46.5 7.5t41.5 17.5t27 33.5t11.5 53t-10 52.5t-24 33t-38.5 17.5t-44 7.5t-50.5 1.5zM343 333h-172
v-254h188q35 0 57 1.5t49.5 8.5t43.5 20.5t27 39t11 61.5q0 30 -7.5 52t-25 35t-33 21t-44.5 11t-45 3.5t-49 0.5z" />
    <glyph glyph-name="afii10020" unicode="&#x413;" horiz-adv-x="547" 
d="M547 630h-374v-630h-94v712h468v-82z" />
    <glyph glyph-name="afii10021" unicode="&#x414;" horiz-adv-x="722" 
d="M627 82h79v-257h-91v175h-515v-175h-91v257h70q41 73 67 209.5t26 282.5v138h455v-630zM183 82h350v548h-269v-97q0 -129 -23.5 -255.5t-57.5 -195.5z" />
    <glyph glyph-name="afii10022" unicode="&#x415;" horiz-adv-x="611" 
d="M79 0v712h493v-82h-399v-223h373v-79h-373v-246h404v-82h-498z" />
    <glyph glyph-name="afii10024" unicode="&#x416;" horiz-adv-x="1000" 
d="M976 712l-284 -292l316 -420h-118l-260 354l-84 -88v-266h-92v266l-84 88l-260 -354h-116l314 420l-284 292h118l312 -331v331h92v-331l312 331h118z" />
    <glyph glyph-name="afii10025" unicode="&#x417;" horiz-adv-x="648" 
d="M609 208q0 -35 -16 -72t-47 -71.5t-87 -56.5t-127 -22q-134 0 -214.5 62.5t-80.5 186.5h91q3 -91 61 -132.5t151 -41.5q75 0 125 41t50 108q0 37 -14 63t-41 39t-56.5 18t-68.5 5q-34 0 -64 -2v78q16 -2 64 -2q155 0 155 128q0 114 -153 114q-162 0 -177 -145h-91
q4 110 78 166.5t193 56.5q109 0 176.5 -48t67.5 -144q0 -54 -35 -97.5t-83 -57.5v-3q68 -13 105.5 -61t37.5 -110z" />
    <glyph glyph-name="afii10026" unicode="&#x418;" horiz-adv-x="722" 
d="M547 605l-350 -605h-118v712h94v-603h2l349 603h119v-712h-94v605h-2z" />
    <glyph glyph-name="afii10027" unicode="&#x419;" horiz-adv-x="722" 
d="M460 899h51q-10 -63 -48.5 -100.5t-101.5 -37.5q-61 0 -102.5 38.5t-49.5 99.5h51q23 -78 100 -78q74 0 100 78zM547 605l-350 -605h-118v712h94v-603h2l349 603h119v-712h-94v605h-2z" />
    <glyph glyph-name="afii10028" unicode="&#x41a;" horiz-adv-x="667" 
d="M173 359l361 353h123l-300 -286l312 -426h-120l-258 362l-118 -112v-250h-94v712h94v-353z" />
    <glyph glyph-name="afii10029" unicode="&#x41b;" horiz-adv-x="685" 
d="M144 278l13 434h447v-712h-94v630h-263l-14 -401q-4 -112 -45.5 -177t-119.5 -65q-29 0 -68 13v79q16 -10 51 -10q29 0 46.5 13.5t31 61.5t15.5 134z" />
    <glyph glyph-name="afii10030" unicode="&#x41c;" horiz-adv-x="871" 
d="M170 0h-90v712h130l229 -603l221 603h131v-712h-89v594l-223 -594h-82l-227 594v-594z" />
    <glyph glyph-name="afii10031" unicode="&#x41d;" horiz-adv-x="722" 
d="M549 415v297h94v-712h-94v333h-376v-333h-94v712h94v-297h376z" />
    <glyph glyph-name="afii10032" unicode="&#x41e;" horiz-adv-x="760" 
d="M379 729q162 0 252 -101.5t90 -265.5t-89 -270.5t-252 -106.5q-83 0 -149 30t-107.5 82t-63 120t-21.5 147q0 167 92.5 266t247.5 99zM379 647q-119 0 -182.5 -83.5t-63.5 -206.5q0 -134 67.5 -213.5t180.5 -79.5q112 0 179 80t67 213q0 132 -67.5 211t-180.5 79z" />
    <glyph glyph-name="afii10033" unicode="&#x41f;" horiz-adv-x="722" 
d="M79 0v712h564v-712h-94v630h-376v-630h-94z" />
    <glyph glyph-name="afii10034" unicode="&#x420;" horiz-adv-x="648" 
d="M177 0h-94v712h293q109 0 173 -49.5t64 -155.5q0 -215 -243 -215h-193v-292zM345 631h-168v-260h181q76 0 118.5 28.5t42.5 101.5q0 41 -13.5 68t-39.5 40t-54 17.5t-67 4.5z" />
    <glyph glyph-name="afii10035" unicode="&#x421;" horiz-adv-x="722" 
d="M588 269h94q-12 -135 -93.5 -209.5t-214.5 -74.5q-152 0 -241 99.5t-89 270.5q0 160 89.5 266.5t247.5 106.5q113 0 199 -61t96 -169h-94q-16 70 -70 109.5t-133 39.5q-119 0 -179.5 -84t-60.5 -207q0 -136 64 -214t175 -78q91 0 145 52.5t65 152.5z" />
    <glyph glyph-name="afii10036" unicode="&#x422;" horiz-adv-x="574" 
d="M1 630v82h572v-82h-239v-630h-94v630h-239z" />
    <glyph glyph-name="afii10037" unicode="&#x423;" horiz-adv-x="611" 
d="M247 161l12 25l-259 526h102l208 -434l204 434h101l-277 -567q-43 -88 -88.5 -124t-100.5 -36q-42 0 -88 16v80q29 -18 80 -18q59 0 106 98z" />
    <glyph glyph-name="afii10038" unicode="&#x424;" horiz-adv-x="778" 
d="M746 359q0 -132 -90 -202.5t-221 -70.5v-86h-94v86q-130 0 -220.5 72t-90.5 201t91 203.5t220 74.5v75h94v-75q131 0 221 -74t90 -204zM651 359q0 95 -59.5 145.5t-156.5 55.5v-397q99 7 157.5 54.5t58.5 141.5zM341 163v397q-97 -5 -156.5 -55.5t-59.5 -145.5
q0 -94 58.5 -141.5t157.5 -54.5z" />
    <glyph glyph-name="afii10039" unicode="&#x425;" horiz-adv-x="611" 
d="M303 438l185 274h107l-237 -345l250 -367h-114l-192 293l-199 -293h-106l249 367l-235 345h113z" />
    <glyph glyph-name="afii10040" unicode="&#x426;" horiz-adv-x="722" 
d="M707 82v-257h-91v175h-543v712h94v-630h368v630h94v-630h78z" />
    <glyph glyph-name="afii10041" unicode="&#x427;" horiz-adv-x="667" 
d="M495 712h94v-712h-94v317q-109 -25 -198 -25q-62 0 -109.5 15.5t-73 38t-41.5 53.5t-21 56.5t-5 53.5v203h94v-195q0 -21 2.5 -37.5t11.5 -37t25 -34.5t46 -23.5t71 -9.5q90 0 198 24v313z" />
    <glyph glyph-name="afii10042" unicode="&#x428;" horiz-adv-x="1073" 
d="M993 712v-712h-914v712h94v-630h316v630h94v-630h316v630h94z" />
    <glyph glyph-name="afii10043" unicode="&#x429;" horiz-adv-x="1083" 
d="M1068 -175h-92v175h-903v712h94v-630h316v630h94v-630h316v630h94v-630h81v-257z" />
    <glyph glyph-name="afii10044" unicode="&#x42a;" horiz-adv-x="803" 
d="M546 0h-312v630h-232v82h326v-288h218q105 0 162 -56t57 -157q0 -100 -57.5 -155.5t-161.5 -55.5zM670 211q0 131 -156 131h-186v-260h186q156 0 156 129z" />
    <glyph glyph-name="afii10045" unicode="&#x42b;" horiz-adv-x="871" 
d="M793 0h-94v712h94v-712zM610 211q0 -100 -57.5 -155.5t-161.5 -55.5h-312v712h94v-289h218q105 0 162 -55.5t57 -156.5zM515 211q0 131 -156 131h-186v-260h186q156 0 156 129z" />
    <glyph glyph-name="afii10046" unicode="&#x42c;" horiz-adv-x="648" 
d="M610 211q0 -100 -57.5 -155.5t-161.5 -55.5h-312v712h94v-289h218q105 0 162 -55.5t57 -156.5zM515 211q0 131 -156 131h-186v-260h186q156 0 156 129z" />
    <glyph glyph-name="afii10047" unicode="&#x42d;" horiz-adv-x="722" 
d="M678 355q0 -168 -93 -269t-237 -101q-127 0 -207.5 68.5t-98.5 193.5h95q16 -89 69 -136t138 -47q102 0 167.5 72.5t71.5 197.5h-346v79h342q-13 103 -71 168.5t-162 65.5q-78 0 -132.5 -38t-71.5 -104h-95q8 70 53.5 122t109 76.5t134.5 24.5q161 0 247.5 -105.5
t86.5 -267.5z" />
    <glyph glyph-name="afii10048" unicode="&#x42e;" horiz-adv-x="1000" 
d="M307 333h-134v-333h-94v712h94v-297h136q14 145 100.5 229.5t223.5 84.5q155 0 241.5 -101.5t86.5 -265.5t-85 -270.5t-242 -106.5q-149 0 -233.5 97.5t-93.5 250.5zM867 357q0 132 -63.5 211t-170.5 79q-112 0 -172 -83.5t-60 -206.5q0 -133 63.5 -213t170.5 -80
q105 0 168.5 80t63.5 213z" />
    <glyph glyph-name="afii10049" unicode="&#x42f;" horiz-adv-x="667" 
d="M494 0v304h-147l-235 -304h-114l236 307q-85 11 -131 62t-46 139q0 99 59.5 151.5t165.5 52.5h306v-712h-94zM314 384h180v248h-180q-162 0 -162 -124t162 -124z" />
    <glyph glyph-name="afii10065" unicode="&#x430;" horiz-adv-x="537" 
d="M521 68v-66q-29 -8 -58 -8q-73 0 -75 74q-72 -80 -187 -80q-77 0 -121 38.5t-44 105.5q0 138 183 161q12 2 35 4q87 10 107 23q23 16 23 55q0 85 -117 85q-60 0 -91 -24.5t-37 -80.5h-83q2 83 59 129t157 46q109 0 162 -50q17 -16 25 -42t9 -42.5t1 -49.5q0 -38 -2 -115
t-2 -115q0 -28 7.5 -39.5t27.5 -11.5q8 0 21 3zM384 174v94q-9 -7 -19 -12t-25.5 -8t-21 -4.5t-26.5 -4t-22 -2.5q-31 -4 -40.5 -5.5t-36 -8.5t-37.5 -16t-21.5 -26.5t-10.5 -41.5q0 -40 27.5 -63t75.5 -23q61 0 109 36t48 85z" />
    <glyph glyph-name="afii10066" unicode="&#x431;" horiz-adv-x="574" 
d="M112 588q34 53 82 78.5t122 30.5q83 6 101 16q12 6 18 16h85q-3 -16 -8.5 -29t-12 -22.5t-18 -17.5t-19.5 -13.5t-23.5 -10t-24.5 -7t-27.5 -4.5t-26.5 -3t-29 -2t-27 -2q-82 -6 -128 -63.5t-58 -153.5h3q22 53 70 85t111 32q110 0 172.5 -69.5t62.5 -194.5
q0 -129 -63.5 -199t-178.5 -70q-94 0 -159 55t-80 158q-6 42 -6 94q0 201 62 296zM137 251q0 -88 42.5 -142t116.5 -54q72 0 113 52t41 145q0 91 -42 143t-114 52t-114.5 -52.5t-42.5 -143.5z" />
    <glyph glyph-name="afii10067" unicode="&#x432;" horiz-adv-x="537" 
d="M343 0h-281v516h239q51 0 87 -8.5t63 -37.5t27 -79q0 -76 -76 -111v-1q46 -9 72 -42.5t26 -84.5q0 -66 -44 -109t-113 -43zM145 443v-135h147q53 0 75.5 17.5t22.5 51.5t-22 50t-76 16h-147zM312 236h-167v-163h182q40 0 62.5 24t22.5 62q0 77 -100 77z" />
    <glyph glyph-name="afii10068" unicode="&#x433;" horiz-adv-x="420" 
d="M66 516h354v-75h-269v-441h-85v516z" />
    <glyph glyph-name="afii10069" unicode="&#x434;" horiz-adv-x="574" 
d="M497 75h67v-237h-81v162h-394v-162h-81v237h56q24 46 44.5 142.5t20.5 188.5v110h368v-441zM152 75h260v366h-200v-43q0 -91 -18.5 -184.5t-41.5 -138.5z" />
    <glyph glyph-name="afii10070" unicode="&#x435;" horiz-adv-x="537" 
d="M422 163h83q-39 -178 -225 -178q-114 0 -178.5 70t-64.5 196q0 125 66.5 202.5t173.5 77.5q119 0 176.5 -80.5t57.5 -203.5v-12h-388l-1 -6q0 -82 43 -129t118 -47q56 0 88.5 26t50.5 84zM123 304h300q-6 74 -45 115.5t-103 41.5q-62 0 -103 -42t-49 -115z" />
    <glyph glyph-name="afii10072" unicode="&#x436;" horiz-adv-x="778" 
d="M346 0v185l-64 65l-177 -250h-105l226 304l-197 212h105l210 -237h2v237h85v-237h2l210 237h105l-197 -212l226 -304h-105l-177 250l-64 -65v-185h-85z" />
    <glyph glyph-name="afii10073" unicode="&#x437;" horiz-adv-x="500" 
d="M121 367h-86q6 88 67 126t151 38q85 0 139.5 -35t54.5 -104q0 -42 -24.5 -72t-58.5 -37v-2q41 -8 70.5 -40.5t29.5 -87.5q0 -79 -63 -123t-151 -44q-102 0 -161 45.5t-63 129.5h86q4 -54 41 -81t96 -27t93 28.5t34 69.5q0 84 -110 84h-71v69h57q49 0 79 20.5t30 63.5
q0 30 -29.5 52t-79.5 22q-51 0 -88.5 -23t-42.5 -72z" />
    <glyph glyph-name="afii10074" unicode="&#x438;" 
d="M407 421h-2l-232 -421h-109v516h85v-421h2l232 421h109v-516h-85v421z" />
    <glyph glyph-name="afii10075" unicode="&#x439;" 
d="M378 712h51q-10 -63 -48.5 -100.5t-101.5 -37.5q-61 0 -102.5 38.5t-49.5 99.5h51q23 -78 100 -78q74 0 100 78zM407 421h-2l-232 -421h-109v516h85v-421h2l232 421h109v-516h-85v421z" />
    <glyph glyph-name="afii10076" unicode="&#x43a;" horiz-adv-x="519" 
d="M499 516l-208 -203l235 -313h-108l-188 254l-81 -79v-175h-85v516h85v-246l236 246h114z" />
    <glyph glyph-name="afii10077" unicode="&#x43b;" 
d="M134 204l9 312h351v-516h-85v441h-184l-7 -228q-3 -118 -43 -170t-100 -52q-28 0 -61 9v69q13 -7 45 -7q30 0 51.5 32.5t23.5 109.5z" />
    <glyph glyph-name="afii10078" unicode="&#x43c;" horiz-adv-x="685" 
d="M501 516h122v-516h-85v407h-3l-153 -407h-78l-153 407h-3v-407h-85v516h122l157 -418h2z" />
    <glyph glyph-name="afii10079" unicode="&#x43d;" 
d="M407 236h-258v-236h-85v516h85v-205h258v205h85v-516h-85v236z" />
    <glyph glyph-name="afii10080" unicode="&#x43e;" horiz-adv-x="574" 
d="M290 531q117 0 182 -71t65 -199q0 -131 -65 -203t-183 -72q-119 0 -185.5 71.5t-66.5 198.5t68 201t185 74zM288 460q-75 0 -119 -55t-44 -147q0 -95 43.5 -148.5t121.5 -53.5q75 0 117.5 54t42.5 149q0 92 -43.5 146.5t-118.5 54.5z" />
    <glyph glyph-name="afii10081" unicode="&#x43f;" 
d="M407 441h-258v-441h-85v516h428v-516h-85v441z" />
    <glyph glyph-name="afii10082" unicode="&#x440;" horiz-adv-x="593" 
d="M64 -197v713h80v-73q56 89 174 89q108 0 171.5 -73t63.5 -198t-62.5 -198.5t-168.5 -73.5q-112 0 -173 83v-269h-85zM305 461q-74 0 -116.5 -53.5t-42.5 -147.5t43.5 -147.5t118.5 -53.5q73 0 115 54t42 147q0 94 -42.5 147.5t-117.5 53.5z" />
    <glyph glyph-name="afii10083" unicode="&#x441;" horiz-adv-x="537" 
d="M422 188h86q-11 -93 -70.5 -147t-154.5 -54q-117 0 -181 71.5t-64 192.5q0 129 67 204.5t181 75.5q95 0 152 -47.5t67 -135.5h-88q-23 112 -130 112q-74 0 -117 -54.5t-43 -147.5q0 -94 41 -148t113 -54q58 0 94.5 34t46.5 98z" />
    <glyph glyph-name="afii10084" unicode="&#x442;" horiz-adv-x="463" 
d="M4 516h455v-75h-185v-441h-85v441h-185v75z" />
    <glyph glyph-name="afii10085" unicode="&#x443;" horiz-adv-x="500" 
d="M257 105l145 411h89l-221 -580q-13 -35 -22.5 -54.5t-27 -43t-42 -34t-57.5 -10.5q-25 0 -63 9v76q37 -11 55 -11q42 0 60 43l40 92l-205 513h96z" />
    <glyph glyph-name="afii10086" unicode="&#x444;" horiz-adv-x="800" 
d="M760 266q0 -77 -19 -136.5t-67.5 -99.5t-121.5 -40q-28 0 -60.5 15t-47.5 34h-2v-236h-84v236h-2q-15 -19 -47.5 -34t-60.5 -15q-73 0 -121.5 40t-67.5 99.5t-19 136.5q0 122 54 192.5t147 70.5q32 0 65.5 -17.5t48.5 -38.5h3v239h84v-239h3q15 21 48.5 38.5t65.5 17.5
q93 0 147 -70.5t54 -192.5zM672 264q0 89 -31 141.5t-94 52.5q-33 0 -63.5 -17t-41.5 -55v-260q5 -28 33.5 -47.5t66.5 -19.5q37 0 63.5 18t40.5 49.5t20 65t6 72.5zM358 126v260q-11 38 -41.5 55t-63.5 17q-63 0 -94 -52.5t-31 -141.5q0 -39 6 -72.5t20 -65t40.5 -49.5
t63.5 -18q38 0 66.5 19.5t33.5 47.5z" />
    <glyph glyph-name="afii10087" unicode="&#x445;" horiz-adv-x="518" 
d="M257 339l128 177h103l-180 -238l201 -278h-109l-145 212l-143 -212h-103l194 272l-179 244h108z" />
    <glyph glyph-name="afii10088" unicode="&#x446;" horiz-adv-x="570" 
d="M555 75v-237h-81v162h-410v516h85v-441h254v441h85v-441h67z" />
    <glyph glyph-name="afii10089" unicode="&#x447;" horiz-adv-x="527" 
d="M378 516h85v-516h-85v228q-21 -6 -73.5 -14.5t-86.5 -8.5q-79 0 -123.5 37.5t-44.5 110.5v163h85v-149q0 -90 99 -90q71 0 144 23v216z" />
    <glyph glyph-name="afii10090" unicode="&#x448;" horiz-adv-x="809" 
d="M745 516v-516h-681v516h85v-441h213v441h85v-441h213v441h85z" />
    <glyph glyph-name="afii10091" unicode="&#x449;" horiz-adv-x="824" 
d="M731 -162v162h-667v516h85v-441h213v441h85v-441h213v441h85v-441h67v-237h-81z" />
    <glyph glyph-name="afii10092" unicode="&#x44a;" horiz-adv-x="611" 
d="M589 161q0 -73 -44.5 -117t-119.5 -44h-273v441h-149v75h234v-197h184q76 0 122 -42.5t46 -115.5zM501 161q0 85 -107 85h-157v-171h157q52 0 79.5 22.5t27.5 63.5z" />
    <glyph glyph-name="afii10093" unicode="&#x44b;" horiz-adv-x="704" 
d="M641 0h-85v516h85v-516zM474 161q0 -73 -44.5 -117t-119.5 -44h-249v516h85v-197h160q76 0 122 -42.5t46 -115.5zM279 246h-133v-171h133q52 0 79.5 22.5t27.5 63.5q0 85 -107 85z" />
    <glyph glyph-name="afii10094" unicode="&#x44c;" horiz-adv-x="519" 
d="M498 161q0 -73 -44.5 -117t-119.5 -44h-273v516h85v-197h184q76 0 122 -42.5t46 -115.5zM303 246h-157v-171h157q52 0 79.5 22.5t27.5 63.5q0 85 -107 85z" />
    <glyph glyph-name="afii10095" unicode="&#x44d;" horiz-adv-x="537" 
d="M499 251q0 -121 -64 -192.5t-181 -71.5q-92 0 -150.5 50.5t-72.5 138.5h86q12 -58 48 -89t91 -31q67 0 107.5 47.5t45.5 131.5h-216v69h214q-11 73 -52 114.5t-105 41.5q-97 0 -125 -94h-90q14 79 70.5 122t145.5 43q114 0 181 -75.5t67 -204.5z" />
    <glyph glyph-name="afii10096" unicode="&#x44e;" horiz-adv-x="766" 
d="M492 531q113 0 175 -71t62 -199q0 -131 -62.5 -203t-175.5 -72q-109 0 -173 65.5t-69 184.5h-100v-236h-85v516h85v-205h104q14 103 77 161.5t162 58.5zM490 460q-70 0 -111.5 -55t-41.5 -147q0 -95 41 -148.5t114 -53.5q70 0 110 54t40 149q0 92 -41 146.5t-111 54.5z
" />
    <glyph glyph-name="afii10097" unicode="&#x44f;" horiz-adv-x="537" 
d="M210 516h262v-516h-85v211h-113l-163 -211h-111l176 214q-57 9 -92.5 48.5t-35.5 101.5q0 72 43 112t119 40zM237 286h150v155h-150q-102 0 -102 -77q0 -78 102 -78z" />
    <glyph glyph-name="afii10071" unicode="&#x451;" horiz-adv-x="537" 
d="M330 610v101h90v-101h-90zM140 610v101h91v-101h-91zM422 163h83q-39 -178 -225 -178q-114 0 -178.5 70t-64.5 196q0 125 66.5 202.5t173.5 77.5q119 0 176.5 -80.5t57.5 -203.5v-12h-388l-1 -6q0 -82 43 -129t118 -47q56 0 88.5 26t50.5 84zM123 304h300
q-6 74 -45 115.5t-103 41.5q-62 0 -103 -42t-49 -115z" />
    <glyph glyph-name="afii10099" unicode="&#x452;" 
d="M512 180v-94q0 -122 -75.5 -199.5t-196.5 -82.5v79q86 10 136.5 65.5t50.5 146.5v87q0 54 -29 83.5t-80 29.5q-69 0 -109 -40t-40 -113v-142h-85v441h-75v75h75v196h85v-196h236v-75h-236v-163h2q48 91 167 91q174 0 174 -189z" />
    <glyph glyph-name="afii10100" unicode="&#x453;" horiz-adv-x="420" 
d="M133 590l81 142h105l-120 -142h-66zM66 516h354v-75h-269v-441h-85v516z" />
    <glyph glyph-name="afii10101" unicode="&#x454;" horiz-adv-x="537" 
d="M422 176h86q-14 -88 -73 -138.5t-150 -50.5q-117 0 -181 71.5t-64 192.5q0 129 67 204.5t181 75.5q89 0 145 -42.5t71 -122.5h-90q-28 94 -125 94q-64 0 -105.5 -41.5t-51.5 -114.5h218v-69h-221q5 -84 46 -131.5t108 -47.5q55 0 91 31t48 89z" />
    <glyph glyph-name="afii10102" unicode="&#x455;" horiz-adv-x="500" 
d="M447 366h-85q-8 94 -126 94q-49 0 -77 -19t-28 -51q0 -9 2 -17.5t7.5 -15t10 -11.5t15 -9.5t16 -7.5t20 -6.5t20.5 -5t23.5 -5.5t22.5 -5q37 -8 55.5 -13t51 -18.5t49.5 -28t30.5 -40t13.5 -57.5q0 -75 -58.5 -119.5t-155.5 -44.5q-105 0 -161.5 45t-60.5 132h84
q7 -109 140 -109q57 0 91.5 23.5t34.5 62.5q0 26 -18 43t-40 24.5t-63 17.5q-6 1 -9 2q-9 2 -38.5 8.5t-42.5 10.5t-37.5 12.5t-36.5 18t-26.5 24t-20.5 34t-6 44.5q0 70 53.5 111t143.5 41q91 0 148.5 -43t57.5 -122z" />
    <glyph glyph-name="afii10103" unicode="&#x456;" horiz-adv-x="222" 
d="M68 608v104h86v-104h-86zM68 0v516h86v-516h-86z" />
    <glyph glyph-name="afii10104" unicode="&#x457;" horiz-adv-x="222" 
d="M68 0v516h86v-516h-86zM161 610v102h89v-102h-89zM-27 610v102h88v-102h-88z" />
    <glyph glyph-name="afii10105" unicode="&#x458;" horiz-adv-x="222" 
d="M70 -53v569h86v-571q0 -78 -27 -114.5t-105 -36.5q-17 0 -37 4v71q26 -2 27 -2q21 0 33 4t17 17t5.5 22.5t0.5 36.5zM70 608v104h86v-104h-86z" />
    <glyph glyph-name="afii10106" unicode="&#x459;" horiz-adv-x="778" 
d="M756 161q0 -74 -41.5 -117.5t-116.5 -43.5h-226v441h-152l-7 -228q-3 -118 -43 -170t-100 -52q-28 0 -61 9v69q13 -7 45 -7q30 0 51.5 32.5t23.5 109.5l9 312h319v-195h141q75 0 116.5 -43t41.5 -117zM668 161q0 85 -101 85h-110v-171h110q101 0 101 86z" />
    <glyph glyph-name="afii10107" unicode="&#x45a;" horiz-adv-x="778" 
d="M598 0h-231v246h-218v-246h-85v516h85v-195h218v195h85v-195h146q75 0 116.5 -43t41.5 -117t-41.5 -117.5t-116.5 -43.5zM567 246h-115v-171h115q101 0 101 86q0 85 -101 85z" />
    <glyph glyph-name="afii10108" unicode="&#x45b;" 
d="M84 0v441h-75v75h75v196h85v-196h226v-75h-226v-160h2q46 88 167 88q174 0 174 -189v-180h-85v190q0 49 -29 76.5t-80 27.5q-69 0 -109 -39.5t-40 -112.5v-142h-85z" />
    <glyph glyph-name="afii10109" unicode="&#x45c;" horiz-adv-x="519" 
d="M193 590l81 142h105l-120 -142h-66zM499 516l-208 -203l235 -313h-108l-188 254l-81 -79v-175h-85v516h85v-246l236 246h114z" />
    <glyph glyph-name="afii10110" unicode="&#x45e;" horiz-adv-x="500" 
d="M355 712h51q-10 -63 -48.5 -100.5t-101.5 -37.5q-61 0 -102.5 38.5t-49.5 99.5h51q23 -78 100 -78q74 0 100 78zM257 105l145 411h89l-221 -580q-13 -35 -22.5 -54.5t-27 -43t-42 -34t-57.5 -10.5q-25 0 -63 9v76q37 -11 55 -11q42 0 60 43l40 92l-205 513h96z" />
    <glyph glyph-name="afii10193" unicode="&#x45f;" 
d="M492 516v-516h-172v-162h-85v162h-171v516h85v-441h258v441h85z" />
    <glyph glyph-name="afii10050" unicode="&#x490;" horiz-adv-x="547" 
d="M452 712v161h95v-243h-374v-630h-94v712h373z" />
    <glyph glyph-name="afii10098" unicode="&#x491;" horiz-adv-x="420" 
d="M329 516v156h85v-231h-265v-441h-85v516h265z" />
    <glyph glyph-name="endash" unicode="&#x2013;" horiz-adv-x="500" 
d="M0 237v82h500v-82h-500z" />
    <glyph glyph-name="emdash" unicode="&#x2014;" horiz-adv-x="1000" 
d="M0 237v82h1000v-82h-1000z" />
    <glyph glyph-name="quoteleft" unicode="&#x2018;" horiz-adv-x="278" 
d="M134 580h57v-107h-113v109q0 52 31 93t82 53v-50q-55 -18 -57 -98z" />
    <glyph glyph-name="quoteright" unicode="&#x2019;" horiz-adv-x="278" 
d="M86 605v107h113v-109q0 -52 -31 -93t-82 -53v50q55 18 57 98h-57z" />
    <glyph glyph-name="quotesinglbase" unicode="&#x201a;" horiz-adv-x="278" 
d="M83 0v103h108v-81q0 -135 -108 -166v48q30 13 41.5 36.5t13.5 59.5h-55z" />
    <glyph glyph-name="quotedblleft" unicode="&#x201c;" horiz-adv-x="426" 
d="M302 581h55v-103h-108v81q0 137 108 168v-48q-52 -22 -55 -98zM120 581h55v-103h-108v81q0 137 108 168v-48q-52 -22 -55 -98z" />
    <glyph glyph-name="quotedblright" unicode="&#x201d;" horiz-adv-x="426" 
d="M250 609v103h108v-81q0 -137 -108 -168v48q52 22 55 98h-55zM68 609v103h108v-81q0 -137 -108 -168v48q52 22 55 98h-55z" />
    <glyph glyph-name="quotedblbase" unicode="&#x201e;" horiz-adv-x="426" 
d="M251 0v103h108v-81q0 -135 -108 -166v48q30 13 41.5 36.5t13.5 59.5h-55zM69 0v103h108v-81q0 -135 -108 -166v48q30 13 41.5 36.5t13.5 59.5h-55z" />
    <glyph glyph-name="dagger" unicode="&#x2020;" 
d="M317 712v-206h197v-74h-197v-586h-81v586h-194v74h194v206h81z" />
    <glyph glyph-name="daggerdbl" unicode="&#x2021;" 
d="M317 712v-199h197v-74h-197v-323h197v-74h-197v-195h-81v195h-194v74h194v323h-194v74h194v199h81z" />
    <glyph glyph-name="bullet" unicode="&#x2022;" horiz-adv-x="500" 
d="M250 534q74 0 126 -52t52 -126t-52 -126t-126 -52t-126 52t-52 126t52 126t126 52z" />
    <glyph glyph-name="ellipsis" unicode="&#x2026;" horiz-adv-x="1000" 
d="M208 107v-107h-82v107h82zM541 107v-107h-82v107h82zM874 107v-107h-82v107h82z" />
    <glyph glyph-name="perthousand" unicode="&#x2030;" horiz-adv-x="1148" 
d="M124 -33l474 764h60l-471 -764h-63zM231 709q71 0 108.5 -42.5t37.5 -124.5q0 -83 -38.5 -127.5t-109.5 -44.5q-145 0 -145 169q0 82 38 126t109 44zM230 655q-73 0 -73 -119q0 -111 73 -111t73 113q0 117 -73 117zM572 328q71 0 108.5 -42.5t37.5 -124.5t-38.5 -126
t-109.5 -44q-145 0 -145 167q0 82 38 126t109 44zM571 274q-73 0 -73 -119q0 -111 73 -111t73 113q0 117 -73 117zM918 328q71 0 108.5 -42.5t37.5 -124.5t-38.5 -126t-109.5 -44q-145 0 -145 167q0 82 38 126t109 44zM917 274q-73 0 -73 -119q0 -111 73 -111t73 113
q0 117 -73 117z" />
    <glyph glyph-name="guilsinglleft" unicode="&#x2039;" horiz-adv-x="259" 
d="M42 221v87l152 118v-86l-101 -75l101 -79v-86z" />
    <glyph glyph-name="guilsinglright" unicode="&#x203a;" horiz-adv-x="259" 
d="M166 263l-101 78v86l152 -120v-88l-152 -117v86z" />
    <glyph glyph-name="Euro" unicode="&#x20ac;" horiz-adv-x="714" 
d="M559 109l39 -73q-67 -38 -160 -38q-122 0 -202.5 67.5t-105.5 187.5h-97v5l13 76h74q-2 16 -2 24q0 6 1 17t1 16h-66l14 81h65q28 112 108.5 179.5t203.5 67.5q78 0 147 -32l-25 -82q-45 36 -124 36q-86 0 -140 -46t-77 -123h321l-13 -81h-322q-2 -22 -2 -32q0 -9 2 -25
h314l-14 -81h-289q23 -85 79.5 -131t139.5 -46q75 0 117 33z" />
    <glyph glyph-name="Rouble" unicode="&#x20bd;" horiz-adv-x="797" 
d="M438 635h-149v-253h67h94q68 0 105.5 27.5t37.5 99.5q0 40 -12 66t-35 38.5t-48 17t-60 4.5zM461 305h-105h-67v-63h291v-77h-291v-165h-84v165h-82v77h82v63h-82v77h82v332h261q97 0 154 -48.5t57 -151.5q0 -209 -216 -209z" />
    <glyph glyph-name="afii61352" unicode="&#x2116;" horiz-adv-x="1000" 
d="M946 274q0 -67 -38.5 -104.5t-106.5 -37.5q-69 0 -109 38.5t-40 104.5t39.5 106t104.5 40q70 0 110 -39t40 -108zM664 63h280v-63h-280v63zM500 696h90v-696h-104l-317 555h-2v-555h-90v696h101l320 -561h2v561zM873 277q0 44 -19.5 66.5t-52.5 22.5q-36 0 -56 -22.5
t-20 -67.5q0 -89 75 -89q73 0 73 90z" />
    <glyph glyph-name="trademark" unicode="&#x2122;" horiz-adv-x="990" 
d="M283 670v-314h-49v314h-122v42h293v-42h-122zM513 665v-309h-44v356h73l107 -284l107 284h71v-356h-44v309l-115 -309h-40z" />
    <glyph glyph-name="Delta" unicode="&#x2206;" horiz-adv-x="670" 
d="M14 0l282 712h73l287 -712h-642zM560 61l-229 585l-225 -585h454z" />
    <glyph glyph-name="radical" unicode="&#x221a;" horiz-adv-x="600" 
d="M295 -128l188 914h63l-210 -998h-66l-164 338l-46 -22l-24 50l100 48z" />
    <glyph glyph-name="infinity" unicode="&#x221e;" horiz-adv-x="741" 
d="M371 282q30 30 41.5 41t39.5 33t53.5 31t52.5 9q62 0 102 -41.5t40 -105.5q0 -66 -39 -107t-101 -41q-44 0 -86 23.5t-103 83.5q-2 -2 -20 -18t-22 -19.5t-20.5 -17t-24 -17.5t-23 -13t-26 -12.5t-25.5 -6.5t-29 -3q-62 0 -101 40.5t-39 104.5q0 65 39 107t99 42
q35 0 73.5 -20t62 -40t56.5 -53zM409 245q27 -25 45.5 -40.5t49 -30.5t58.5 -15q37 0 59 24t22 63q0 42 -23 67t-61 25q-26 0 -57.5 -18t-47 -32t-45.5 -43zM333 246q-9 7 -33.5 27t-39.5 31.5t-38 22t-44 10.5q-35 0 -58 -26t-23 -65q0 -40 23.5 -63.5t61.5 -23.5
q64 0 151 87z" />
    <glyph glyph-name="approxequal" unicode="&#x2248;" horiz-adv-x="600" 
d="M519 412h43q-7 -66 -39.5 -101.5t-86.5 -35.5q-33 0 -138 35q-13 4 -35.5 11.5l-33 11t-25 8t-24.5 6t-19 1.5q-30 0 -51.5 -22.5t-26.5 -57.5h-45q5 59 36.5 99t88.5 40q16 0 38 -4.5t36 -9t41 -13.5t35 -12l28.5 -9.5t35.5 -12t32 -8.5t32 -4q32 0 52.5 22.5t25.5 55.5
zM519 242h43q-7 -66 -39.5 -101.5t-86.5 -35.5q-33 0 -138 35q-13 4 -35.5 11.5l-33 11t-25 8t-24.5 6t-19 1.5q-30 0 -51.5 -22.5t-26.5 -57.5h-45q5 59 36.5 99t88.5 40q16 0 38 -4.5t36 -9t41 -13.5t35 -12l28.5 -9.5t35.5 -12t32 -8.5t32 -4q32 0 52.5 22.5t25.5 55.5z
" />
    <glyph glyph-name="notequal" unicode="&#x2260;" horiz-adv-x="600" 
d="M49 134v59h181l68 131h-249v60h282l77 147l52 -28l-64 -119h155v-60h-186l-69 -131h255v-59h-287l-76 -142l-52 26l62 116h-149z" />
    <glyph glyph-name="lessequal" unicode="&#x2264;" horiz-adv-x="600" 
d="M551 140v-65l-502 188v65l502 189v-65l-419 -157zM551 -25h-502v57h502v-57z" />
    <glyph glyph-name="greaterequal" unicode="&#x2265;" horiz-adv-x="600" 
d="M49 517l502 -189v-65l-502 -188v65l420 155l-420 157v65zM49 -25v57h502v-57h-502z" />
    <glyph glyph-name="hyphenminus" unicode="&#xe000;" horiz-adv-x="389" 
d="M49 236v84h291v-84h-291z" />
    <glyph glyph-name="nbspace" unicode="&#xe001;" horiz-adv-x="278" 
 />
    <glyph glyph-name="_184" horiz-adv-x="1000" 
 />
    </font>
</defs>
</svg>
