<?xml version="1.0" encoding="UTF-8"?>
<svg width="81px" height="62px" viewBox="0 0 81 62" version="1.1" xmlns="http://www.w3.org/2000/svg" xmlns:xlink="http://www.w3.org/1999/xlink">
    <!-- Generator: Sketch 55.2 (78181) - https://sketchapp.com -->
    <title>dashboard</title>
    <desc>Created with Sketch.</desc>
    <g id="Всякие-логотипы" stroke="none" stroke-width="1" fill="none" fill-rule="evenodd">
        <g id="dashboard" fill="#FFFFFF" fill-rule="nonzero">
            <path d="M81,54.1011122 L81,7.89888777 C81,6.81226828 80.7913447,5.78833839 80.374034,4.82709808 C79.9567233,3.86585777 79.3933539,3.02999663 78.6839258,2.31951466 C77.9744977,1.60903269 77.1398764,1.04482642 76.1800618,0.626895854 C75.2202473,0.208965285 74.1978362,0 73.1128284,0 L7.88717156,0 C6.80216383,0 5.7797527,0.208965285 4.81993818,0.626895854 C3.86012365,1.04482642 3.02550232,1.60903269 2.31607419,2.31951466 C1.60664606,3.02999663 1.04327666,3.86585777 0.625965997,4.82709808 C0.208655332,5.78833839 0,6.81226828 0,7.89888777 L0,54.1011122 C0,55.1877317 0.208655332,56.2116616 0.625965997,57.1729019 C1.04327666,58.1341422 1.60664606,58.9700034 2.31607419,59.6804853 C3.02550232,60.3909673 3.86012365,60.9551736 4.81993818,61.3731041 C5.7797527,61.7910347 6.80216383,62 7.88717156,62 L73.1128284,62 C74.1978362,62 75.2202473,61.7910347 76.1800618,61.3731041 C77.1398764,60.9551736 77.9744977,60.3909673 78.6839258,59.6804853 C79.3933539,58.9700034 79.9567233,58.1341422 80.374034,57.1729019 C80.7913447,56.2116616 81,55.1877317 81,54.1011122 Z M2.50386399,54.1011122 L2.50386399,50.0262892 L78.496136,50.0262892 L78.496136,54.1011122 C78.496136,54.8533873 78.3500773,55.5638692 78.0579598,56.2325581 C77.7658423,56.9012471 77.3902628,57.4654533 76.931221,57.9251769 C76.4721793,58.3849006 75.9088099,58.7610381 75.2411128,59.0535895 C74.5734158,59.3461409 73.8639876,59.4924166 73.1128284,59.4924166 L7.88717156,59.4924166 C7.13601236,59.4924166 6.44744977,59.3461409 5.82148377,59.0535895 C5.19551777,58.7610381 4.63214838,58.3849006 4.13137558,57.9251769 C3.63060278,57.4654533 3.23415765,56.9012471 2.94204019,56.2325581 C2.64992272,55.5638692 2.50386399,54.8533873 2.50386399,54.1011122 Z M78.496136,7.89888777 L78.496136,47.5187058 L2.50386399,47.5187058 L2.50386399,7.89888777 C2.50386399,7.14661274 2.64992272,6.43613077 2.94204019,5.76744186 C3.23415765,5.09875295 3.63060278,4.53454668 4.13137558,4.07482305 C4.63214838,3.61509943 5.19551777,3.23896191 5.82148377,2.94641052 C6.44744977,2.65385912 7.13601236,2.50758342 7.88717156,2.50758342 L73.1128284,2.50758342 C73.8639876,2.50758342 74.5734158,2.65385912 75.2411128,2.94641052 C75.9088099,3.23896191 76.4721793,3.61509943 76.931221,4.07482305 C77.3902628,4.53454668 77.7658423,5.09875295 78.0579598,5.76744186 C78.3500773,6.43613077 78.496136,7.14661274 78.496136,7.89888777 Z M48.4497682,21.627907 C48.2411128,21.9204584 48.1785162,22.2339063 48.2619784,22.5682508 C48.3454405,22.9025952 48.5123648,23.1742501 48.7627512,23.3832154 L55.0850077,27.7714863 C55.6275116,28.0640377 56.1074189,28.0640377 56.5247295,27.7714863 L60.0301391,25.5146613 L67.2913447,30.5925177 C67.5834621,30.801483 67.8964451,30.8850691 68.2302937,30.843276 C68.5641422,30.801483 68.8353941,30.6134142 69.0440495,30.2790698 C69.2527048,29.9447253 69.3361669,29.6312774 69.2944359,29.338726 C69.2527048,29.0461746 69.064915,28.7745197 68.7310665,28.5237614 L60.7812983,22.9443883 C60.3639876,22.6100438 59.9049459,22.6100438 59.4041731,22.9443883 L55.8361669,25.2012133 L50.202473,21.314459 C49.9938176,21.1472868 49.7434312,21.0637007 49.4513138,21.0637007 C49.2426584,21.0637007 49.0548686,21.1054938 48.8879444,21.1890799 C48.7210201,21.272666 48.5749614,21.4189417 48.4497682,21.627907 Z M72.1112828,16.8634985 C72.1112828,16.529154 71.9860896,16.2366026 71.7357032,15.9858443 C71.4853168,15.7350859 71.1723338,15.6097068 70.7967543,15.6097068 L44.9443586,15.6097068 C44.61051,15.6097068 44.3183926,15.7350859 44.0680062,15.9858443 C43.8176198,16.2366026 43.6924266,16.529154 43.6924266,16.8634985 L43.6924266,35.7330637 C43.6924266,36.0674082 43.8176198,36.3599596 44.0680062,36.6107179 C44.3183926,36.8614762 44.61051,36.9868554 44.9443586,36.9868554 C45.2782071,36.9868554 45.5703246,36.8614762 45.820711,36.6107179 C46.0710974,36.3599596 46.1962906,36.0674082 46.1962906,35.7330637 L46.1962906,18.1799798 L70.7967543,18.1799798 C71.1723338,18.1799798 71.4853168,18.0546006 71.7357032,17.8038423 C71.9860896,17.5530839 72.1112828,17.239636 72.1112828,16.8634985 Z M33.2387944,26.0788675 C33.2387944,24.5325244 32.946677,23.090664 32.362442,21.7532861 C31.7782071,20.4159083 30.9853168,19.2248062 29.9837713,18.1799798 C28.9822257,17.1351534 27.7928903,16.3410853 26.4157651,15.7977755 C25.0386399,15.2544658 23.5780526,14.9619144 22.0340031,14.9201213 C20.4899536,14.8783283 19.0502318,15.1708797 17.7148377,15.7977755 C16.3794436,16.4246714 15.1901082,17.2187395 14.1468315,18.1799798 C13.1035549,19.1412201 12.3106646,20.3323222 11.7681607,21.7532861 C11.2256569,23.1742501 10.9335394,24.6161105 10.8918083,26.0788675 C10.8500773,27.5416245 11.1421947,29.0043815 11.7681607,30.4671385 C12.3941267,31.9298955 13.187017,33.1001011 14.1468315,33.9777553 C15.1066461,34.8554095 16.2959815,35.6494776 17.7148377,36.3599596 C19.133694,37.0704415 20.5734158,37.3629929 22.0340031,37.2376138 C23.4945904,37.1122346 24.9551777,36.8196832 26.4157651,36.3599596 C27.8763524,35.9002359 29.0656878,35.1061678 29.9837713,33.9777553 C30.9018547,32.8493428 31.694745,31.6791372 32.362442,30.4671385 C33.0301391,29.2551399 33.3222566,27.7923829 33.2387944,26.0788675 Z M23.5363215,26.8311426 L30.3593509,28.273003 C30.1089645,29.1088642 29.816847,29.8402427 29.4829985,30.4671385 C29.1491499,31.0940344 28.6901082,31.6791372 28.1058733,32.2224469 L23.5363215,26.8311426 Z M22.0340031,34.7300303 C20.9072643,34.7300303 19.6761978,34.4583755 18.3408037,33.9150657 L22.3469861,26.8938322 L27.4173107,32.8493428 C25.7063369,34.1031345 23.9119011,34.7300303 22.0340031,34.7300303 Z M30.6723338,26.0788675 C30.6723338,26.2460398 30.6723338,26.413212 30.6723338,26.5803842 L30.5471406,27.3326593 L22.7225657,25.70273 L19.9683153,17.6784631 C20.427357,17.594877 20.8238022,17.5530839 21.1576507,17.5530839 C21.4914992,17.5530839 21.7836167,17.5321874 22.0340031,17.4903943 C23.202473,17.4903943 24.3292117,17.7202562 25.4142195,18.1799798 C26.4992272,18.6397034 27.4173107,19.2457027 28.1684699,19.9979778 C28.9196291,20.7502528 29.5247295,21.6697 29.9837713,22.7563195 C30.442813,23.842939 30.6723338,24.950455 30.6723338,26.0788675 Z M19.0919629,17.991911 L21.7836167,25.9534884 L17.5270479,33.4762386 C16.2333849,32.5985844 15.2318393,31.5328615 14.5224111,30.2790698 C13.812983,29.0252781 13.4582689,27.6252107 13.4582689,26.0788675 C13.4582689,24.2817661 13.9590417,22.6727334 14.9605873,21.2517695 C15.9621329,19.8308055 17.3392581,18.744186 19.0919629,17.991911 Z" id="Shape"></path>
        </g>
    </g>
</svg>