<svg xmlns="http://www.w3.org/2000/svg" xmlns:xlink="http://www.w3.org/1999/xlink" width="176" height="138" viewBox="0 0 176 138">
    <defs>
        <path id="a" d="M0 .103h175.041v137.896H.001z"/>
        <path id="c" d="M50.624 3.087C36.79 13.27 16.044 15.325 16.044 15.325s-.631 2.364-3.135 2.184c-2.504-.185-2.608-2.64-2.608-2.64l-3.676.416c-.527.537-1.723 2.184-2.588 3.49C2.51 20.5 1.271 22.448.62 24.654c-.312 1.07-.471 2.22-.275 3.301.043.266.111.525.205.783.348.952 1.003 1.748 1.7 2.49.287.134.468.216.468.216l-.602 2.85c.686.347 1.457.618 2.295.82v.005c4.624 1.135 11.133.228 15.037-.516 2.027-.393 3.354-.74 3.354-.74l-1.027-8.337c.268-.046.54-.089.807-.145 11.126-2.219 24.14-13.497 30.223-19.28 2.179-2.073 3.47-3.436 3.47-3.436L55.31 1.48c-.007 0-.007-.005-.007-.005-.36-.325-.732-.768-1.112-1.358a37.299 37.299 0 0 1-3.566 2.969"/>
        <linearGradient id="d" x1=".717%" x2="95.438%" y1="65.03%" y2="36.88%">
            <stop offset="0%" stop-color="#FEA696"/>
            <stop offset="100%" stop-color="#F64C47"/>
        </linearGradient>
    </defs>
    <g fill="none" fill-rule="evenodd">
        <g>
            <mask id="b" fill="#fff">
                <use xlink:href="#a"/>
            </mask>
            <path fill="#F2FBFE" d="M11.685 137.999h154.983c9.451-12.4 10.112-31.487 5.886-46.483-2.175-7.72-6.183-14.91-7.55-22.808-1.911-11.015 1.47-22.371-.008-33.449-2.394-17.905-18.46-32.648-36.424-34.846-17.963-2.198-36.475 7.477-46.11 22.765-4.056 6.44-7.392 14.392-14.578 16.929-9.044 3.194-18.216-4.095-27.692-5.573-8.66-1.35-17.603 2.444-23.853 8.581-6.253 6.135-10.08 14.357-12.458 22.78C-2.63 88.97-1.538 117.984 11.685 138" mask="url(#b)"/>
        </g>
        <path fill="#13AEE8" d="M146.474 102.22H45.684c-1.82 0-3.512.918-4.506 2.441l-16.327 25.053a5.343 5.343 0 0 0-.87 2.924 5.367 5.367 0 0 0 5.373 5.361h133.45a5.367 5.367 0 0 0 5.374-5.361 5.343 5.343 0 0 0-.87-2.924l-16.328-25.053a5.376 5.376 0 0 0-4.506-2.441"/>
        <path fill="#F2FBFE" d="M150.128 125.15l-10.18-18.196a4.418 4.418 0 0 0-3.865-2.263H49.546c-1.579 0-3.04.84-3.832 2.208l-10.562 18.223c-.702 1.21.173 2.722 1.569 2.722H148.538c1.389 0 2.266-1.49 1.59-2.694"/>
        <path fill="#FFF" d="M154.179 116.174c.402 1.506-.525 2.765-2.077 2.815-1.549.053-3.133-1.124-3.535-2.63-.405-1.502.528-2.762 2.077-2.814 1.549-.05 3.133 1.126 3.535 2.63"/>
        <path fill="#13AEE8" d="M168.177 132.635a5.367 5.367 0 0 1-5.373 5.365H29.354a5.37 5.37 0 0 1-5.374-5.365c0-.54.08-1.079.244-1.588h143.71c.165.51.243 1.049.243 1.588"/>
        <path fill="#D2A64E" d="M45.554 94.658l-.447.883-6.203-3.148 3.85-1.022c-.111 1.067 1.51 2.602 2.8 3.287"/>
        <path fill="#000" d="M43.182 90.495c-.138.19-.254.374-.329.54-.35.097-.686.23-1.02.386-.358.166-.71.356-1.067.562.116-.16.247-.306.387-.437a3.82 3.82 0 0 1 .591-.469 4.083 4.083 0 0 1 1.24-.537c.065-.017.133-.03.198-.045"/>
        <path fill="#000" d="M42.794 91.804c-.125 0-.246.005-.367.01-.515.017-1.028.08-1.54.163a10.15 10.15 0 0 0-1.53.379c.423-.334.93-.557 1.449-.715a6.025 6.025 0 0 1 1.025-.219c.192-.027.385-.045.576-.055.116 0 .232-.005.347 0v.005c-.012.138 0 .279.04.432"/>
        <path fill="#F65852" d="M74.49 57.264c-.09.497-.48.595-1.048 1.363 0 0-4.186 5.763-4.184 11.68 0 .293-.322.587-.178.783l-.843.672-.125.118L49.31 89.17l-.219-.258-1.933-2.301-.377-.44c5.594-8.462 19.003-22.744 23.335-26.694a15.021 15.021 0 0 1 1.863-1.465c.905-.6 1.752-.474 2.511-.748"/>
        <path fill="#262665" d="M116.696 43.629c.583.479 1.141 1 1.661 1.558C104.567 55.27 83.88 57.306 83.88 57.306l-1.848-.477v-3.254c9.459-.128 9.064-9.831 9.064-9.831s.913.2 1.295-1.109c1.174-3.99-1.03-4.11-1.03-4.11-11.765 4.138-19.26-4.531-19.26-4.531s-1.175 1.937-.634 6.39c.54 4.454-2.449 12.004 8.808 13.113l-.3 3.091-1.82.266s-1.531-.369-3.666.411c-.76.276-1.606.146-2.509.746-4.025-1.82-5.567-1.94-7.555-7.427-.3-.828-.624-3.897.022-5.282 1.114-2.399 3.213-4.09 4.388-6.458.37-.748.545-1.54.628-2.359.191-2.01-.186-4.17.332-6.15.543-2.075 2.326-2.857 4.136-4.014 3.545-2.26 8.315-2.462 12.036-.504 3.55 1.874 5.848 4.538 9.675 5.75 2.346.74 4.91.472 7.279-.205 2.363-.675 4.598-1.744 6.899-2.617 2.52-.959 5.378-1.676 7.862-.628 2.447 1.04 3.975 3.679 4.189 6.326.302 3.716-1.835 7.517-5.174 9.186"/>
        <path fill="#63D8F6" d="M147.471 51.778l3.699 3.729-13.173 10.618-2.496-7.667 5.687.948z"/>
        <path fill="#13AEE8" d="M135.501 58.458l2.497 7.668h-9.68l-2.404-20.522 4.813-1.82.616 1.887-1.1 1.737-.42 1.739z"/>
        <path fill="#0079A1" d="M137.522 35.893l-3.432 5.43-3.364 2.464-4.813 1.816z"/>
        <path fill="#FFA258" d="M141.188 59.406l-5.685-.951-5.68-9.306.418-1.744 2.584 2.83z"/>
        <path fill="#63D8F6" d="M134.09 41.323l-2.749 4.348-.616-1.887z"/>
        <path fill="#FFDD75" d="M156.16 41.227l-8.686 10.549-6.286 7.63-8.363-9.171-2.584-2.83 1.104-1.737 2.74-4.345 3.435-5.432h.007l1.194-1.902z"/>
        <path fill="#FBBFCE" d="M127.64 92.411c1.038.199 5.49 11.924 3.688 11.281-1.806-.642-5.655-8.162-5.655-8.162l-.711-1.59s1.634-1.73 2.677-1.529M126.274 39.765c1.938.805-.204 6.568-3.246 3.826l-.14.012-.974-1.36s2.198-3.374 4.36-2.478"/>
        <path fill="#262665" d="M125.677 95.533h-.027c-1.056.527-26.727 13.326-28.613 13.853-1.908.524-13.55-12.523-13.55-12.523.755 6.75-3.522 25.417-3.522 25.417v.025c.179.075.355.176.528.301 1.008.828 1.685 2.763 2.14 5.244h-8.448a293.677 293.677 0 0 1-1.308-4.463c-4.553-15.783-3.371-30.938-2.039-39.446h.025l16.572-2.208c3.618.853 6.235 2.61 8.121 4.717.201.226.402.477.604.703.176.25.374.502.55.752.528.728.98 1.508 1.36 2.259a20.195 20.195 0 0 1 1.635 4.468c.048.224.1.45.148.675.103.427.179.853.254 1.23.3 1.781.3 2.986.3 3.06 5.206-6.52 18.28-6.172 22.907-5.82 1.03.1 1.634.175 1.634.175l.226.48.503 1.101zM121.64 50.967c.71 2.91.05 6.243-2.104 8.33-2.145 2.078-5.38 2.69-7.603 4.685-1.903 1.711-2.851 4.245-4.55 6.165-2.337 2.642-6.13 3.919-9.595 3.221-3.266-.655-6.12-3.04-7.387-6.104 11.09-2.198 24.069-13.369 30.136-19.094.485.878.862 1.819 1.104 2.797"/>
        <path fill="#FBBFCE" d="M87.276 76.399l.156 5.332-16.577 2.205h-.005c.676-4.29 1.393-6.887 1.43-7.028 4.612 1.122 11.101.228 14.996-.51"/>
        <path fill="#FFDD75" d="M55 96.092l10.583 18.562-10.02 5.919-3.688-21.603z"/>
        <path fill="#FFA258" d="M51.874 98.97l3.689 21.602-6.87-3.38z"/>
        <path fill="#D2A64E" d="M55 96.092l-3.125 2.878-6.769-3.43.448-.881c.498.266.95.404 1.224.334.77-.204 1.969-.85 2.502-1.892L55 96.09z"/>
        <path fill="#6E52C0" d="M51.874 98.97l-3.18 18.222-.83 4.742-6.331 2.72z"/>
        <path fill="#947FEC" d="M51.874 98.97l-10.341 25.684-17.623-10.08 14.996-22.182 6.202 3.149z"/>
        <path fill="#FBBFCE" d="M49.552 91.84c0 .013.005.03 0 .046.017.446-.086.855-.272 1.214-.53 1.041-1.732 1.691-2.5 1.892-.276.07-.726-.068-1.224-.334-1.124-.597-2.501-1.839-2.763-2.855-.038-.15-.053-.294-.038-.432v-.002a.874.874 0 0 1 .056-.249c.015-.027.025-.055.042-.085.076-.166.192-.349.33-.54 1.129-1.552 3.975-3.883 3.975-3.883l1.933 2.3-.807 1.1s.581.02.96.667c.071.125.14.273.187.454.028.08.05.163.063.256.03.14.047.288.058.452"/>
        <path fill="#000" d="M53.512 97.839c-.113-.382-.196-.776-.322-1.152-.138-.369-.251-.753-.427-1.109-.294-.733-.71-1.41-1.164-2.047-.43-.587-.92-1.127-1.459-1.606a9.25 9.25 0 0 1 1.28 2.125c.34.773.596 1.576.754 2.396.136.823.22 1.659.151 2.49a11.146 11.146 0 0 0-.37-2.44 10.776 10.776 0 0 0-.847-2.298c-.168-.369-.392-.71-.598-1.064-.236-.328-.45-.672-.727-.973a4.976 4.976 0 0 0-.231-.276c.005-.015 0-.033 0-.045a2.658 2.658 0 0 0-.06-.45 1.34 1.34 0 0 0-.06-.258 2.08 2.08 0 0 0-.187-.454c.365.246.707.522 1.039.815.6.547 1.154 1.157 1.591 1.842.435.687.83 1.397 1.086 2.163.28.76.443 1.555.551 2.34M126.196 39.735c-.398-.328 1.191-2.38 2.041-3.347a8.47 8.47 0 0 1 3.11-2.266 8.283 8.283 0 0 1 3.807-.58c1.282.101 2.524.445 3.696.927-.624-.123-1.222-.327-1.85-.394-.614-.128-1.24-.16-1.861-.188-1.242-.028-2.487.175-3.623.647-1.142.464-2.155 1.204-3.03 2.087l-.327.334-.302.354c-.208.236-.39.492-.57.743-.385.499-.71 1.947-1.091 1.683M130.401 48.59a7.332 7.332 0 0 1-1.938-.228 6.775 6.775 0 0 1-1.84-.73c-.569-.346-1.104-.798-1.434-1.4a2.776 2.776 0 0 1-.324-.958 3.06 3.06 0 0 1 .05-.984c.601-.206.219 1.26.571 1.756.347.502.835.889 1.365 1.207.533.316 1.114.562 1.712.778.599.208 1.21.401 1.838.56M125.903 43.798l.679.481c.194.07.377.14.57.196.192.058.383.113.584.163.201.053.407.096.629.173-.413.214-.903.216-1.346.086a1.926 1.926 0 0 1-.613-.316c-.179-.143-.774-.643-.503-.783"/>
        <path fill="#000" d="M127.013 40.865c-.18-.562 1.504-1.897 2.276-2.577.777-.688 1.682-1.214 2.63-1.626a11.832 11.832 0 0 1 2.992-.773c.507-.072 1.023-.075 1.533-.11.513.015 1.024.038 1.529.078-.508.06-1.013.082-1.516.14-.498.08-1.003.118-1.494.229-.487.117-.983.195-1.458.358-.485.123-.948.311-1.413.49-.918.386-1.788.878-2.587 1.477a5.804 5.804 0 0 0-.578.475c-.194.158-.368.338-.544.519-.357.354-1.413 1.779-1.37 1.32"/>
        <path fill="#1E125C" d="M80.494 122.606c1.006.828 1.684 2.763 2.14 5.244h-3.872a154.27 154.27 0 0 0-1.185-4.943c-.05-.226-.098-.451-.173-.675-3.925-14.881-.38-31.968-.38-31.968l6.462 6.574v.025c.754 6.75-3.52 25.417-3.52 25.417.201.075.377.176.528.326M125.655 95.523c-15.87-2.236-28.011 8.19-28.011 8.19.598-12.987-9.904-21.724-10.221-21.985 12.916 3.034 12.979 17.596 12.979 17.872 6.358-7.989 24.542-5.665 24.542-5.665l.711 1.588z"/>
        <path fill="#FFA258" d="M123.99 44.766s-1.284 1.352-3.454 3.402c-6.067 5.73-19.043 16.901-30.134 19.1-.269.052-.54.097-.81.14l1.029 8.26s-1.328.343-3.347.73c-3.892.74-10.381 1.636-14.992.514v-.005c-.835-.2-1.607-.467-2.29-.815l.603-2.823s18.666-1.347 22.108-17.468c7.258-1.599 17.622-4.743 25.655-10.614 1.25-.91 2.44-1.89 3.556-2.94.377.584.749 1.023 1.108 1.342 0 0 0 .005.006.005l.962 1.172z"/>
        <path fill="#1E125C" d="M80.263 53.491l-.317 3.42s-7.07.5-7.978 1.099a7.846 7.846 0 0 0-.425-.188c-1.108-1.31-1.848-2.928-2.272-4.597-.204-.808-.345-1.638-.34-2.471.013-2.82 1.597-5.365 2.585-8.02-.113 4.366-.694 9.829 8.747 10.757M100.368 53.773C91.38 56.56 83.87 57.3 83.87 57.3l-1.85-.475v-3.254c9.459-.13 9.069-9.83 9.069-9.83s.907.198 1.29-1.11c1.03-3.497-.54-4.024-.94-4.097l.022-.09c2.98.625 5.58 2.835 6.658 5.678 1.176 3.099.669 6.817 2.248 9.65M114.604 62.236c-.96.49-1.884 1.029-2.68 1.739-1.904 1.716-2.85 4.248-4.549 6.165-2.338 2.644-6.132 3.921-9.597 3.224-3.266-.655-6.12-3.039-7.387-6.102 5.838-1.157 12.204-4.803 17.804-8.832 1.704.53 3.394 1.106 4.802 2.18a8.013 8.013 0 0 1 1.607 1.626"/>
        <g transform="translate(68 42)">
            <mask id="e" fill="#fff">
                <use xlink:href="#c"/>
            </mask>
            <path fill="url(#d)" d="M50.624 3.087C36.79 13.27 16.044 15.325 16.044 15.325s-.631 2.364-3.135 2.184c-2.504-.185-2.608-2.64-2.608-2.64l-3.676.416c-.527.537-1.723 2.184-2.588 3.49C2.51 20.5 1.271 22.448.62 24.654c-.312 1.07-.471 2.22-.275 3.301.043.266.111.525.205.783.348.952 1.003 1.748 1.7 2.49.287.134.468.216.468.216l-.602 2.85c.686.347 1.457.618 2.295.82v.005c4.624 1.135 11.133.228 15.037-.516 2.027-.393 3.354-.74 3.354-.74l-1.027-8.337c.268-.046.54-.089.807-.145 11.126-2.219 24.14-13.497 30.223-19.28 2.179-2.073 3.47-3.436 3.47-3.436L55.31 1.48c-.007 0-.007-.005-.007-.005-.36-.325-.732-.768-1.112-1.358a37.299 37.299 0 0 1-3.566 2.969" mask="url(#e)"/>
        </g>
        <g fill="#FBBFCE">
            <path d="M85.32 47.463a1.545 1.545 0 0 1-1.558-1.55c0-.868.69-1.555 1.559-1.555s1.556.687 1.556 1.555c0 .863-.687 1.55-1.556 1.55m-10.861-.687a.604.604 0 0 1-.205.229c-.28.28-.664.458-1.099.458a1.544 1.544 0 0 1-1.559-1.55c0-.868.688-1.555 1.56-1.555.434 0 .817.18 1.098.458.077.05.151.127.205.229.179.232.278.534.278.868 0 .33-.1.636-.278.863m18.195-7.255a.96.96 0 0 0-.05-.277 1.208 1.208 0 0 0-.129-.331 1.744 1.744 0 0 0-.181-.306c-.074-.13-.205-.231-.307-.308a.92.92 0 0 0-.253-.178l-.025-.025c-.23-.102-.41-.102-.41-.102-11.96 4.2-19.575-4.607-19.575-4.607s-1.2 1.985-.639 6.493c.051.43.077.914.077 1.398 0 .33 0 .661-.026.992a50.587 50.587 0 0 0-.05 2.088c0 .763.022 1.527.125 2.29.053.357.13.713.232 1.072.051.125.077.252.128.38.128.407.278.763.46 1.12.128.206.253.41.383.61.154.204.307.382.486.56.179.204.358.382.56.535.18.153.36.28.539.41.51.354 1.124.659 1.84.942.23.073.483.15.74.252.075.025.177.05.28.078.053 0 .102.023.155.023.23.08.483.128.767.204.077 0 .179.025.253.05.08 0 .156.029.232.029.282.048.563.1.87.15.073 0 .153.026.23.026h-.307l-.307 3.13-.869.357s0 .076.026.203v.026c.102.61.562 2.268 2.606 2.444 2.556.178 3.195-2.215 3.195-2.215h-.028l-1.327-.484v-3.306c.18-.028.333-.028.486-.054.23 0 .434-.025.639-.076.28-.025.562-.076.818-.153a6.4 6.4 0 0 0 .69-.178c.102-.025.204-.05.306-.127.281-.077.562-.178.818-.306.358-.175.664-.356.946-.534.255-.153.485-.331.69-.51.05-.05.102-.076.127-.127.026 0 .051 0 .051-.025.18-.15.33-.305.486-.484.077-.076.153-.152.204-.229h.026c0-.025.026-.05.051-.074.202-.231.406-.486.562-.738.128-.18.23-.359.333-.534.048-.102.127-.204.15-.306h.028c.026-.028.026-.079.052-.13.127-.229.23-.458.332-.712 0-.026.023-.051.023-.077.028 0 .028-.025.028-.048.102-.232.176-.486.255-.715.026-.051.026-.077.026-.102.051-.153.102-.28.128-.407.025-.128.05-.23.076-.354.052-.18.103-.385.126-.563.028-.05.028-.102.028-.152.025-.026.025-.051.025-.077.205-1.273.18-2.163.18-2.163s.46.101.868-.306c.102-.127.205-.28.307-.484.05-.101.102-.203.128-.33.357-1.197.408-2.037.306-2.648"/>
            <path d="M85.32 44.353a1.56 1.56 0 1 1 0 3.121 1.56 1.56 0 1 1 0-3.12M73.162 44.353c.864 0 1.564.698 1.564 1.56a1.563 1.563 0 1 1-3.125 0c0-.862.697-1.56 1.561-1.56M77.691 49.213l3.933.265s-.06 1.532-1.834 1.685c-1.771.15-2.099-1.95-2.099-1.95"/>
        </g>
    </g>
</svg>
