<svg xmlns="http://www.w3.org/2000/svg" width="24" height="24" viewBox="0 0 24 24">
    <g fill="none" fill-rule="nonzero">
        <path fill="#FF5F00" d="M8.571 6.157h6.858v11.287H8.57z"/>
        <path fill="#EB001B" d="M9.167 11.802A7.354 7.354 0 0 1 12 5.999a7.444 7.444 0 0 0-10.032.795 7.352 7.352 0 0 0 0 10.013A7.444 7.444 0 0 0 12 17.603a7.354 7.354 0 0 1-2.833-5.801z"/>
        <path fill="#F79E1B" d="M24 11.802a7.375 7.375 0 0 1-4.175 6.636A7.447 7.447 0 0 1 12 17.602a7.365 7.365 0 0 0 2.834-5.801A7.365 7.365 0 0 0 12 5.999a7.447 7.447 0 0 1 7.825-.836A7.375 7.375 0 0 1 24 11.8v.002z"/>
        <path fill="#F79E1B" d="M23.347 16.02v-.26h.132v-.053h-.336v.054h.144v.258h.06zm.653 0v-.313h-.102l-.119.223-.118-.223h-.091v.312h.074v-.234l.11.203h.076l.11-.203v.236l.06-.002z"/>
    </g>
</svg>
