<svg xmlns="http://www.w3.org/2000/svg" width="24" height="24" viewBox="0 0 24 24">
    <g fill="none" fill-rule="evenodd">
        <path fill="#005C9C" d="M10.387 15.768H8.44L9.657 8.29h1.947l-1.217 7.477M6.803 8.291l-1.856 5.142-.22-1.107-.655-3.362s-.079-.673-.923-.673H.081l-.036.126s.939.196 2.036.855l1.692 6.496H5.8L8.898 8.29H6.803M19.972 13.123l1.023-2.798.575 2.798h-1.598zm2.142 2.645H23.9L22.343 8.29h-1.565c-.723 0-.899.557-.899.557l-2.903 6.92h2.029l.406-1.11h2.475l.228 1.11zM17.128 10.089l.278-1.606s-.857-.326-1.75-.326c-.967 0-3.26.423-3.26 2.475 0 1.932 2.692 1.956 2.692 2.97 0 1.015-2.415.833-3.212.194l-.29 1.678s.87.423 2.198.423c1.328 0 3.332-.689 3.332-2.56 0-1.944-2.716-2.125-2.716-2.97 0-.846 1.895-.737 2.728-.278"/>
        <path fill="#EE9F3F" d="M4.728 12.326l-.656-3.362s-.079-.673-.923-.673H.081l-.036.126s1.475.306 2.89 1.451c1.352 1.094 1.793 2.458 1.793 2.458"/>
    </g>
</svg>
