<?xml version="1.0" encoding="utf-8"?>
<!-- Generator: Adobe Illustrator 20.0.0, SVG Export Plug-In . SVG Version: 6.00 Build 0)  -->
<svg version="1.1" id="Ebene_1" xmlns="http://www.w3.org/2000/svg" xmlns:xlink="http://www.w3.org/1999/xlink" x="0px" y="0px"
	 viewBox="0 0 71 64" style="enable-background:new 0 0 71 64;" xml:space="preserve">
<path d="M31,33c0,1.1,0.9,2,2,2h31.2l-4.6,4.6c-0.8,0.8-0.8,2,0,2.8c0.8,0.8,2,0.8,2.8,0l8-8C70.8,34,71,33.5,71,33
	c0-0.5-0.2-1-0.6-1.4l-8-8c-0.8-0.8-2-0.8-2.8,0c-0.8,0.8-0.8,2,0,2.8l4.6,4.6H33C32,31,31,31.9,31,33z"/>
<path d="M50.5,53c-5.1,4.5-11.6,7-18.5,7c-7.5,0-14.5-2.9-19.8-8.2C6.9,46.5,4,39.5,4,32c0-7.5,2.9-14.5,8.2-19.8
	C17.5,6.9,24.5,4,32,4s14.5,2.9,19.8,8.2c0.6,0.6,1.1,1.2,1.6,1.8H54c1.9,0,2.8-2.2,1.6-3.6c-0.3-0.3-0.6-0.7-1-1
	C47.6,2.4,38-1,28,0.2c-5.7,0.7-11.2,3-15.7,6.5c-8.9,7-13.4,17.8-12.1,29.1C0.9,41.6,3.1,47,6.7,51.6C12.9,59.5,22.1,64,32,64
	c8.6,0,15.6-4,19.8-7.2C53.5,55.6,52.6,53,50.5,53L50.5,53z"/>
</svg>
