<?xml version="1.0" encoding="utf-8"?>
<!-- Generator: Adobe Illustrator 20.0.0, SVG Export Plug-In . SVG Version: 6.00 Build 0)  -->
<svg version="1.1" id="Layer_1" xmlns="http://www.w3.org/2000/svg" xmlns:xlink="http://www.w3.org/1999/xlink" x="0px" y="0px"
	 viewBox="0 0 58.9 58.9" style="enable-background:new 0 0 58.9 58.9;" xml:space="preserve">
<style type="text/css">
	.st0{fill-rule:evenodd;clip-rule:evenodd;fill:#0B54A2;}
	.st1{fill-rule:evenodd;clip-rule:evenodd;fill:#19A8E1;}
	.st2{fill-rule:evenodd;clip-rule:evenodd;fill:#F7AC3B;}
	.st3{fill-rule:evenodd;clip-rule:evenodd;fill:#1F3A6D;}
</style>
<g>
	<defs>
		<path id="SVGID_1_" d="M47,58.2H12.2C6,58.2,1,53.1,1,47V12.2C1,6,6,1,12.2,1H47c6.1,0,11.2,5,11.2,11.2V47
			C58.2,53.1,53.1,58.2,47,58.2"/>
	</defs>
	<use xlink:href="#SVGID_1_"  style="overflow:visible;fill-rule:evenodd;clip-rule:evenodd;fill:#FFFFFF;"/>
	<clipPath id="SVGID_2_">
		<use xlink:href="#SVGID_1_"  style="overflow:visible;"/>
	</clipPath>
</g>
<path class="st0" d="M49.9,49.8L49.9,49.8c-2.9,1.6-6.5,0.7-8.2-2.2l-17.3-30c-1.6-2.9-0.7-6.5,2.2-8.2c2.9-1.6,6.5-0.7,8.2,2.2
	l17.3,30C53.7,44.5,52.7,48.1,49.9,49.8"/>
<path class="st1" d="M9.3,49.8L9.3,49.8c2.9,1.6,6.5,0.7,8.2-2.2l17.3-30c1.6-2.9,0.7-6.5-2.2-8.2c-2.9-1.6-6.5-0.7-8.2,2.2
	l-17.3,30C5.5,44.5,6.4,48.1,9.3,49.8"/>
<path class="st2" d="M35.6,44.5c0,3.4-2.7,6.1-6.1,6.1c-3.4,0-6.1-2.7-6.1-6.1s2.7-6.1,6.1-6.1C32.9,38.4,35.6,41.1,35.6,44.5"/>
<path class="st3" d="M33.6,10.1C33.5,10.1,33.5,10.1,33.6,10.1c-0.2-0.2-0.3-0.3-0.4-0.4c-0.1,0-0.1-0.1-0.2-0.1
	c-0.1-0.1-0.2-0.1-0.3-0.2c-0.1-0.1-0.2-0.1-0.3-0.2c-0.1,0-0.1-0.1-0.2-0.1C32,9.1,31.9,9,31.8,9c0,0-0.1,0-0.1,0
	c-0.1-0.1-0.3-0.1-0.4-0.1c0,0-0.1,0-0.1,0c-0.1,0-0.3-0.1-0.5-0.1c0,0-0.1,0-0.1,0c-0.1,0-0.3,0-0.4,0c-0.1,0-0.1,0-0.2,0
	c-0.1,0-0.2,0-0.3,0c-0.1,0-0.2,0-0.3,0c-0.1,0-0.1,0-0.2,0c-0.1,0-0.3,0-0.4,0c0,0-0.1,0-0.1,0c-0.2,0-0.3,0.1-0.5,0.1
	c0,0-0.1,0-0.1,0c-0.2,0-0.3,0.1-0.4,0.1c0,0-0.1,0-0.1,0C27.3,9,27.1,9.1,27,9.2c-0.1,0-0.1,0.1-0.2,0.1c-0.1,0.1-0.2,0.1-0.3,0.2
	c-0.1,0.1-0.2,0.1-0.3,0.2c-0.1,0-0.1,0.1-0.2,0.1c-0.1,0.1-0.3,0.2-0.4,0.3c0,0,0,0-0.1,0.1c-2.1,1.8-2.6,5-1.2,7.5l5.2,9l5.2-9
	C36.2,15.1,35.6,11.9,33.6,10.1"/>
</svg>
