<svg xmlns="http://www.w3.org/2000/svg" viewBox="0 0 189.81 43.2"><defs><style>.cls-1{fill:#fff;}.cls-2{fill:#0039a6;}.cls-3{fill:#00a1de;}.cls-4{fill:#002c77;}.cls-5{fill:#eeaf30;}</style></defs><title>lockoLogoIB</title><g id="Слой_2" data-name="Слой 2"><g id="Layer_1" data-name="Layer 1"><path class="cls-1" d="M61.63,7a2.16,2.16,0,0,1,.5-1.46,1.8,1.8,0,0,1,1.32-.44h9.31c1.21,0,1.81.63,1.81,1.9V24.49c0,.21,0,.35-.11.4A.73.73,0,0,1,74,25H71.62a.73.73,0,0,1-.41-.09c-.09-.05-.13-.19-.13-.4V8.15H64.81l-.17,2.47c-.15,2.11-.3,4-.46,5.67a20.93,20.93,0,0,1-.83,4.34,7.81,7.81,0,0,1-1.72,3,7.08,7.08,0,0,1-3.12,1.79.91.91,0,0,1-.47,0,.67.67,0,0,1-.3-.39l-.59-1.68a1,1,0,0,1,0-.42c0-.11.15-.22.36-.31a4.86,4.86,0,0,0,1.86-1.31,5.52,5.52,0,0,0,1-2.12,19.87,19.87,0,0,0,.56-3.34c.12-1.33.26-3,.41-5L61.63,7"/><path class="cls-1" d="M91.14,17.46a8.66,8.66,0,0,1-1.74,5.8,6.51,6.51,0,0,1-5.21,2,6.37,6.37,0,0,1-5.12-2,8.65,8.65,0,0,1-1.69-5.78,10,10,0,0,1,.51-3.32,7,7,0,0,1,1.42-2.44,6,6,0,0,1,2.17-1.52,7.2,7.2,0,0,1,2.8-.52,6.35,6.35,0,0,1,5.12,2,8.52,8.52,0,0,1,1.74,5.67m-3.38.08a12,12,0,0,0-.15-1.94A4.85,4.85,0,0,0,87.07,14a2.85,2.85,0,0,0-1-1.1,3.6,3.6,0,0,0-3.28,0,3.3,3.3,0,0,0-1.13,1,4.39,4.39,0,0,0-.67,1.57,8.69,8.69,0,0,0-.21,2,7.59,7.59,0,0,0,.76,3.72,2.87,2.87,0,0,0,2.73,1.36A3.08,3.08,0,0,0,87,21a4.94,4.94,0,0,0,.59-1.58A9,9,0,0,0,87.76,17.54Z"/><path class="cls-1" d="M122.23,17.46a8.66,8.66,0,0,1-1.74,5.8,6.51,6.51,0,0,1-5.21,2,6.41,6.41,0,0,1-5.13-2,8.7,8.7,0,0,1-1.68-5.78,10.25,10.25,0,0,1,.5-3.32,7.3,7.3,0,0,1,1.42-2.44,6.09,6.09,0,0,1,2.18-1.52,7.19,7.19,0,0,1,2.79-.52,6.36,6.36,0,0,1,5.13,2,8.52,8.52,0,0,1,1.74,5.67m-3.37.08a12,12,0,0,0-.16-1.94,5.35,5.35,0,0,0-.54-1.61,2.92,2.92,0,0,0-1-1.1,3.23,3.23,0,0,0-1.69-.4,3.15,3.15,0,0,0-1.59.39,3.21,3.21,0,0,0-1.13,1,4.39,4.39,0,0,0-.67,1.57,8.67,8.67,0,0,0-.22,2,7.58,7.58,0,0,0,.77,3.72,2.87,2.87,0,0,0,2.72,1.36A3,3,0,0,0,118.07,21a4.73,4.73,0,0,0,.6-1.58A9.64,9.64,0,0,0,118.86,17.54Z"/><path class="cls-1" d="M127.13,25a1.65,1.65,0,0,1-1.25-.38,1.78,1.78,0,0,1-.34-1.22V7c0-1.29.61-1.93,1.82-1.93h10.7c.21,0,.34,0,.4.13a.8.8,0,0,1,.08.44V7.61a.68.68,0,0,1-.08.4.53.53,0,0,1-.4.11h-9v4.4h4.66a10.38,10.38,0,0,1,2.75.32,6.68,6.68,0,0,1,1.92.87,5,5,0,0,1,1.25,1.21,5.43,5.43,0,0,1,.71,1.37,6.69,6.69,0,0,1,.31,1.37c0,.43.07.82.07,1.16a5.83,5.83,0,0,1-.53,2.47,6,6,0,0,1-1.43,2,6.69,6.69,0,0,1-2.13,1.28A7.46,7.46,0,0,1,134,25h-6.87m10-6.37a3.19,3.19,0,0,0-.86-2.28,3.31,3.31,0,0,0-2.51-.92H129v6.45h4.63a3.68,3.68,0,0,0,1.67-.33,3,3,0,0,0,1-.81,2.82,2.82,0,0,0,.56-1A4.35,4.35,0,0,0,137.09,18.61Z"/><path class="cls-1" d="M155.69,23.36a.93.93,0,0,1-.54.93,9,9,0,0,1-1.35.49,14.57,14.57,0,0,1-1.49.31c-.51.07-1,.13-1.52.15s-1,.05-1.43.05a10.86,10.86,0,0,1-3.11-.38,5.24,5.24,0,0,1-2-1,3.37,3.37,0,0,1-1-1.5,5.84,5.84,0,0,1-.28-1.83,6,6,0,0,1,.32-1.92A4.1,4.1,0,0,1,144.39,17a5.47,5.47,0,0,1,1.91-1.13,8.69,8.69,0,0,1,2.89-.42h3.17V15a3.93,3.93,0,0,0-.11-1,1.68,1.68,0,0,0-.44-.79,2.22,2.22,0,0,0-.89-.53,5,5,0,0,0-1.48-.18,14.79,14.79,0,0,0-2.1.17,12,12,0,0,0-1.85.4.81.81,0,0,1-.45,0c-.1,0-.16-.14-.2-.32l-.39-1.61c-.08-.31,0-.5.25-.6a11.46,11.46,0,0,1,2.61-.64A21.37,21.37,0,0,1,150,9.74a6.13,6.13,0,0,1,4.33,1.3,5,5,0,0,1,1.38,3.8v8.52M152.33,18h-2.72c-.32,0-.67,0-1,.05a3.11,3.11,0,0,0-1,.32,2.12,2.12,0,0,0-.82.73,2.37,2.37,0,0,0-.33,1.34,1.81,1.81,0,0,0,.83,1.7,4.27,4.27,0,0,0,2.18.48h.55a7.16,7.16,0,0,0,.76-.07l.84-.15a3.74,3.74,0,0,0,.8-.22Z"/><path class="cls-1" d="M162.53,24.88a1,1,0,0,1-.48.1H160a.74.74,0,0,1-.46-.12.53.53,0,0,1-.16-.45V10.62a.52.52,0,0,1,.16-.43.82.82,0,0,1,.46-.11h2.06a.86.86,0,0,1,.48.1c.09.06.14.21.14.44v5.05h6.27V10.62a.49.49,0,0,1,.16-.43.81.81,0,0,1,.47-.11h2.06a.79.79,0,0,1,.49.1.61.61,0,0,1,.11.44V24.41a.69.69,0,0,1-.11.47.87.87,0,0,1-.49.1h-2.06a.74.74,0,0,1-.47-.12c-.11-.07-.16-.22-.16-.45v-6h-6.27v6c0,.25,0,.4-.14.47"/><path class="cls-1" d="M189.57,24.46l-4.81-7.38,4.33-6.44a.31.31,0,0,0-.24-.52h-2.94a.32.32,0,0,0-.24.11l-3.8,5.49h-2.69V10.53c0-.21,0-.34-.11-.38a.74.74,0,0,0-.4-.07H176.4a.78.78,0,0,0-.38.07c-.08,0-.13.17-.13.38v14c0,.2.05.33.13.38a.92.92,0,0,0,.38.07h2.27a.86.86,0,0,0,.4-.07c.08-.05.11-.18.11-.38V18.31h2.5l4.37,6.55a.35.35,0,0,0,.25.12h3a.3.3,0,0,0,.28-.19.33.33,0,0,0,0-.33"/><path class="cls-1" d="M107.63,24.46l-4.82-7.38,4.33-6.44a.3.3,0,0,0,0-.34.31.31,0,0,0-.28-.18H104a.32.32,0,0,0-.24.11l-3.81,5.49H97.24V10.53c0-.21,0-.34-.11-.38a.79.79,0,0,0-.4-.07H94.46a.75.75,0,0,0-.38.07c-.09,0-.13.17-.13.38v14c0,.2,0,.33.13.38a.88.88,0,0,0,.38.07h2.27a.92.92,0,0,0,.4-.07c.07-.05.11-.18.11-.38V18.31h2.5l4.38,6.55a.31.31,0,0,0,.24.12h3a.3.3,0,0,0,.28-.19.3.3,0,0,0,0-.33"/><path class="cls-1" d="M63.53,35.75a2.63,2.63,0,0,1-.17,1,2.15,2.15,0,0,1-.53.74,2.59,2.59,0,0,1-.9.49,5,5,0,0,1-1.41.17h-2a.56.56,0,0,1-.35-.11A.54.54,0,0,1,58,37.6V31a.42.42,0,0,1,.46-.49h4.29a.17.17,0,0,1,.1,0,.21.21,0,0,1,.08.1.78.78,0,0,1,0,.19,2.19,2.19,0,0,1,0,.29,2.16,2.16,0,0,1,0,.28.9.9,0,0,1,0,.19.27.27,0,0,1-.08.1.17.17,0,0,1-.1,0H59.58v1.89h1.26a4.52,4.52,0,0,1,1.21.14,2.18,2.18,0,0,1,.8.42,1.87,1.87,0,0,1,.51.67A2.37,2.37,0,0,1,63.53,35.75Zm-1.56.1a1.29,1.29,0,0,0-.08-.45,1.09,1.09,0,0,0-.24-.35,1.23,1.23,0,0,0-.41-.22,2.45,2.45,0,0,0-.67-.07h-1v2.18h1a2.16,2.16,0,0,0,.62-.07,1,1,0,0,0,.66-.55A1,1,0,0,0,62,35.85Z"/><path class="cls-1" d="M73.12,37.53a2.51,2.51,0,0,1,.08.33.22.22,0,0,1,0,.19.42.42,0,0,1-.23.07l-.45,0H72a1.08,1.08,0,0,1-.25,0,.23.23,0,0,1-.13-.07l-.06-.12-.51-1.52H68.22l-.48,1.48a.4.4,0,0,1-.07.13.19.19,0,0,1-.12.09,1.11,1.11,0,0,1-.24.05H66.9l-.42,0a.34.34,0,0,1-.21-.08.24.24,0,0,1,0-.19,1.38,1.38,0,0,1,.09-.33l2.34-6.73a.48.48,0,0,1,.08-.16.27.27,0,0,1,.15-.09.94.94,0,0,1,.28-.05h1a1.12,1.12,0,0,1,.32.05.34.34,0,0,1,.17.09.61.61,0,0,1,.08.18ZM69.63,32h0l-1.07,3.22h2.15Z"/><path class="cls-1" d="M82.43,37.89a.15.15,0,0,1,0,.11.22.22,0,0,1-.12.07l-.23,0-.37,0-.38,0a1.11,1.11,0,0,1-.24,0,.35.35,0,0,1-.12-.07.15.15,0,0,1,0-.11V34.83H78.06v3.06A.21.21,0,0,1,78,38a.22.22,0,0,1-.12.07,1.11,1.11,0,0,1-.24,0l-.37,0-.37,0a1.11,1.11,0,0,1-.24,0,.32.32,0,0,1-.13-.07.2.2,0,0,1,0-.11V30.73a.17.17,0,0,1,0-.1.32.32,0,0,1,.13-.08l.24-.05h.74l.24.05a.23.23,0,0,1,.12.08.18.18,0,0,1,0,.1v2.79h2.83V30.73a.13.13,0,0,1,0-.1.36.36,0,0,1,.12-.08l.24-.05H82l.23.05a.23.23,0,0,1,.12.08.13.13,0,0,1,0,.1Z"/><path class="cls-1" d="M92,37.9A.15.15,0,0,1,92,38a.22.22,0,0,1-.12.07,1.18,1.18,0,0,1-.25,0l-.39,0-.41,0a1.19,1.19,0,0,1-.24,0,.31.31,0,0,1-.14-.09.32.32,0,0,1-.08-.14l-.6-1.69a5.43,5.43,0,0,0-.27-.62,1.91,1.91,0,0,0-.31-.4,1.09,1.09,0,0,0-.39-.22,1.88,1.88,0,0,0-.49-.06H88v3a.14.14,0,0,1,0,.11.31.31,0,0,1-.12.08,1.19,1.19,0,0,1-.24,0l-.37,0-.37,0a1.19,1.19,0,0,1-.24,0,.49.49,0,0,1-.13-.08.18.18,0,0,1,0-.11V30.73a.18.18,0,0,1,0-.11.32.32,0,0,1,.13-.08l.24,0h.74l.24,0a.23.23,0,0,1,.12.08.14.14,0,0,1,0,.11v2.84h.34a1.37,1.37,0,0,0,.47-.07.87.87,0,0,0,.35-.22,1.44,1.44,0,0,0,.3-.4,3.74,3.74,0,0,0,.25-.59l.51-1.52c0-.05,0-.1.07-.14a.32.32,0,0,1,.13-.08l.24-.05h.78a1.19,1.19,0,0,1,.24,0,.19.19,0,0,1,.11.07.2.2,0,0,1,0,.11,1.76,1.76,0,0,1,0,.19l-.09.29-.51,1.35a5.68,5.68,0,0,1-.29.64,2.58,2.58,0,0,1-.29.44,1.88,1.88,0,0,1-.33.31,1.69,1.69,0,0,1-.38.19h0a2.78,2.78,0,0,1,.42.22,1.8,1.8,0,0,1,.36.32,2.67,2.67,0,0,1,.32.48,5.94,5.94,0,0,1,.31.69l.62,1.57a2.41,2.41,0,0,1,.11.33A1,1,0,0,1,92,37.9Z"/><path class="cls-1" d="M109.41,37.89a.2.2,0,0,1,0,.11.22.22,0,0,1-.12.07,1,1,0,0,1-.22,0l-.36,0-.35,0a1,1,0,0,1-.23,0A.23.23,0,0,1,108,38a.15.15,0,0,1,0-.11V31.72h0l-2.2,6.17a.24.24,0,0,1-.07.12.53.53,0,0,1-.15.08l-.23,0H105l-.34,0-.23,0a.58.58,0,0,1-.14-.08.19.19,0,0,1-.07-.11L102,31.72h0v6.17a.2.2,0,0,1,0,.11.22.22,0,0,1-.12.07,1,1,0,0,1-.23,0l-.35,0-.35,0-.23,0a.23.23,0,0,1-.11-.07.15.15,0,0,1,0-.11V31.14a.66.66,0,0,1,.16-.46.57.57,0,0,1,.42-.16h1a2.81,2.81,0,0,1,.46,0,.88.88,0,0,1,.34.15.87.87,0,0,1,.23.27,1.74,1.74,0,0,1,.17.41L105,35.91h0l1.7-4.5a2.14,2.14,0,0,1,.17-.42,1.21,1.21,0,0,1,.21-.28.69.69,0,0,1,.28-.15,2.11,2.11,0,0,1,.38,0h1a1,1,0,0,1,.27,0,.52.52,0,0,1,.19.12.43.43,0,0,1,.11.2.68.68,0,0,1,0,.26Z"/><path class="cls-1" d="M119.57,37.9a.15.15,0,0,1,0,.11.22.22,0,0,1-.12.07,1.19,1.19,0,0,1-.24,0l-.37,0-.37,0a1.19,1.19,0,0,1-.24,0,.27.27,0,0,1-.12-.07.2.2,0,0,1,0-.11V33.46c0-.15,0-.28,0-.39h0l-.11.19c0,.07-.09.15-.14.23s-.1.16-.16.24a2.13,2.13,0,0,1-.16.25l-2.64,3.93-.09.11a.33.33,0,0,1-.13.07l-.2,0h-.29l-.37,0a1,1,0,0,1-.22,0,.19.19,0,0,1-.11-.08.18.18,0,0,1,0-.11V30.72a.13.13,0,0,1,0-.1.26.26,0,0,1,.13-.08l.24,0h.74l.24,0a.36.36,0,0,1,.12.08.17.17,0,0,1,0,.1v4.42c0,.14,0,.28,0,.41h0l.25-.42c.11-.17.21-.33.32-.48l2.64-3.94.08-.1.13-.07.2,0h.66l.22,0a.24.24,0,0,1,.11.08.18.18,0,0,1,0,.11Z"/><path class="cls-1" d="M129.45,37.9a.2.2,0,0,1,0,.11.32.32,0,0,1-.13.07,1,1,0,0,1-.23,0l-.37,0-.38,0a1,1,0,0,1-.23,0A.32.32,0,0,1,128,38a.2.2,0,0,1,0-.11V31.79h-1.63q-.17,1.34-.33,2.34c-.12.67-.24,1.24-.37,1.72a7,7,0,0,1-.42,1.17,2.59,2.59,0,0,1-.53.72,1.64,1.64,0,0,1-.67.37,3.15,3.15,0,0,1-.85.1l-.15,0a.22.22,0,0,1-.1-.09.76.76,0,0,1-.06-.18,2.63,2.63,0,0,1,0-.3c0-.17,0-.31,0-.41a1.19,1.19,0,0,1,0-.24.16.16,0,0,1,.08-.11.18.18,0,0,1,.11,0,.81.81,0,0,0,.34-.08.8.8,0,0,0,.33-.29,2.65,2.65,0,0,0,.3-.61,8.41,8.41,0,0,0,.28-1c.09-.43.18-1,.27-1.57s.19-1.34.28-2.19a.85.85,0,0,1,.14-.42.4.4,0,0,1,.31-.12H129a.45.45,0,0,1,.33.12.54.54,0,0,1,.11.37Z"/><path class="cls-1" d="M139.34,37.9a.15.15,0,0,1,0,.11.22.22,0,0,1-.12.07,1.19,1.19,0,0,1-.24,0l-.37,0-.37,0a1.19,1.19,0,0,1-.24,0,.22.22,0,0,1-.12-.07.21.21,0,0,1,0-.11V31.79h-1.62c-.11.89-.22,1.67-.34,2.34a17.5,17.5,0,0,1-.36,1.72,6.19,6.19,0,0,1-.43,1.17,2.57,2.57,0,0,1-.52.72,1.64,1.64,0,0,1-.67.37,3.15,3.15,0,0,1-.85.1l-.15,0a.22.22,0,0,1-.1-.09.48.48,0,0,1-.06-.18,2.36,2.36,0,0,1,0-.3c0-.17,0-.31,0-.41a.75.75,0,0,1,0-.24.19.19,0,0,1,.07-.11.2.2,0,0,1,.11,0,.85.85,0,0,0,.35-.08.78.78,0,0,0,.32-.29,2,2,0,0,0,.3-.61,6.92,6.92,0,0,0,.28-1c.1-.43.19-1,.28-1.57s.18-1.34.28-2.19a.76.76,0,0,1,.14-.42.39.39,0,0,1,.31-.12h3.72a.41.41,0,0,1,.32.12.5.5,0,0,1,.12.37Z"/><path class="cls-1" d="M149.51,37.9a.21.21,0,0,1,0,.11.32.32,0,0,1-.13.07,1,1,0,0,1-.23,0l-.38,0-.37,0a1,1,0,0,1-.23,0A.22.22,0,0,1,148,38a.15.15,0,0,1,0-.11v-4c0-.15,0-.3,0-.45s0-.28,0-.39h0a1.3,1.3,0,0,1-.11.19l-.14.23c0,.08-.1.16-.15.24s-.11.17-.16.25l-2.64,3.93-.1.11a.23.23,0,0,1-.13.07l-.19,0h-.3l-.36,0-.23,0a.16.16,0,0,1-.1-.08.18.18,0,0,1,0-.11V30.72a.17.17,0,0,1,0-.1.32.32,0,0,1,.13-.08l.24,0h.75l.23,0a.23.23,0,0,1,.12.08.13.13,0,0,1,0,.1v4c0,.13,0,.26,0,.4s0,.28,0,.41h0c.06-.12.15-.26.25-.42a5.72,5.72,0,0,1,.32-.48l2.63-3.94.09-.1a.32.32,0,0,1,.13-.07l.19,0h.66l.22,0a.2.2,0,0,1,.11.08.14.14,0,0,1,0,.11Z"/><path class="cls-1" d="M160.32,34.22a5.8,5.8,0,0,1-.23,1.69,3.35,3.35,0,0,1-.7,1.26,2.92,2.92,0,0,1-1.15.79,4.05,4.05,0,0,1-1.58.28,4.75,4.75,0,0,1-1.54-.23,2.69,2.69,0,0,1-1.1-.71,3.13,3.13,0,0,1-.66-1.21,5.87,5.87,0,0,1-.22-1.73,5.37,5.37,0,0,1,.24-1.66,3.45,3.45,0,0,1,.69-1.25,3.15,3.15,0,0,1,1.15-.79,4.25,4.25,0,0,1,1.58-.27,4.42,4.42,0,0,1,1.52.23,2.67,2.67,0,0,1,1.11.7,3,3,0,0,1,.66,1.2A5.73,5.73,0,0,1,160.32,34.22Zm-1.62.09a6,6,0,0,0-.09-1.09,2.27,2.27,0,0,0-.32-.84,1.56,1.56,0,0,0-.6-.54,2,2,0,0,0-.94-.19,1.86,1.86,0,0,0-.95.22,1.67,1.67,0,0,0-.61.57,2.19,2.19,0,0,0-.33.83,4.74,4.74,0,0,0-.1,1,6.27,6.27,0,0,0,.09,1.12,2.59,2.59,0,0,0,.32.85,1.47,1.47,0,0,0,.6.53,2.15,2.15,0,0,0,.94.19,1.94,1.94,0,0,0,.95-.21,1.81,1.81,0,0,0,.62-.58,2.6,2.6,0,0,0,.33-.85A5.53,5.53,0,0,0,158.7,34.31Z"/><path class="cls-1" d="M169.87,37.89a.2.2,0,0,1,0,.11.32.32,0,0,1-.13.07,1.11,1.11,0,0,1-.24,0l-.36,0-.38,0a1.11,1.11,0,0,1-.24,0,.35.35,0,0,1-.12-.07.21.21,0,0,1,0-.11V34.83H165.5v3.06a.21.21,0,0,1,0,.11.22.22,0,0,1-.12.07,1.11,1.11,0,0,1-.24,0l-.37,0-.37,0a1.11,1.11,0,0,1-.24,0A.32.32,0,0,1,164,38a.2.2,0,0,1,0-.11V30.73a.17.17,0,0,1,0-.1.32.32,0,0,1,.13-.08l.24-.05h.74l.24.05a.23.23,0,0,1,.12.08.18.18,0,0,1,0,.1v2.79h2.83V30.73a.18.18,0,0,1,0-.1.36.36,0,0,1,.12-.08l.24-.05h.74l.24.05a.32.32,0,0,1,.13.08.17.17,0,0,1,0,.1Z"/><path class="cls-1" d="M180.69,34.22a5.47,5.47,0,0,1-.24,1.69,3.35,3.35,0,0,1-.7,1.26,2.89,2.89,0,0,1-1.14.79,4.09,4.09,0,0,1-1.58.28,4.75,4.75,0,0,1-1.54-.23,2.69,2.69,0,0,1-1.1-.71,2.89,2.89,0,0,1-.66-1.21,5.87,5.87,0,0,1-.22-1.73,5.69,5.69,0,0,1,.23-1.66,3.47,3.47,0,0,1,.7-1.25,3.15,3.15,0,0,1,1.15-.79,4.25,4.25,0,0,1,1.58-.27,4.46,4.46,0,0,1,1.52.23,2.57,2.57,0,0,1,1.1.7,2.91,2.91,0,0,1,.67,1.2A5.73,5.73,0,0,1,180.69,34.22Zm-1.62.09a5.19,5.19,0,0,0-.1-1.09,2.26,2.26,0,0,0-.31-.84,1.59,1.59,0,0,0-.61-.54,2,2,0,0,0-.93-.19,1.83,1.83,0,0,0-1,.22,1.7,1.7,0,0,0-.62.57,2.58,2.58,0,0,0-.33.83,5.49,5.49,0,0,0-.1,1,6.21,6.21,0,0,0,.1,1.12,2.39,2.39,0,0,0,.32.85,1.38,1.38,0,0,0,.59.53,2.2,2.2,0,0,0,1,.19,2,2,0,0,0,.95-.21,1.78,1.78,0,0,0,.61-.58,2.22,2.22,0,0,0,.33-.85A4.77,4.77,0,0,0,179.07,34.31Z"/><path class="cls-1" d="M189.81,35.83a2.38,2.38,0,0,1-.11.73,2.14,2.14,0,0,1-.31.58,1.8,1.8,0,0,1-.47.44,2.8,2.8,0,0,1-.6.3,4.78,4.78,0,0,1-.7.17,6.86,6.86,0,0,1-.83.05h-2a.52.52,0,0,1-.33-.11.5.5,0,0,1-.13-.37V31a.42.42,0,0,1,.46-.49h1.9a4.93,4.93,0,0,1,1.18.12,2.28,2.28,0,0,1,.82.35,1.52,1.52,0,0,1,.5.6,1.94,1.94,0,0,1,.18.86,1.81,1.81,0,0,1-.07.52,1.63,1.63,0,0,1-.21.44,1.56,1.56,0,0,1-.33.35,1.63,1.63,0,0,1-.45.25,2.23,2.23,0,0,1,.6.2,1.74,1.74,0,0,1,.47.38,1.55,1.55,0,0,1,.32.54A1.94,1.94,0,0,1,189.81,35.83Zm-2-3.19a1.25,1.25,0,0,0-.07-.41.85.85,0,0,0-.21-.31.94.94,0,0,0-.36-.18,2.16,2.16,0,0,0-.57-.06h-.78v2h.86a1.37,1.37,0,0,0,.54-.08.93.93,0,0,0,.33-.21.8.8,0,0,0,.19-.32A1.07,1.07,0,0,0,187.82,32.64Zm.39,3.24a1.19,1.19,0,0,0-.09-.47,1,1,0,0,0-.25-.35,1.29,1.29,0,0,0-.44-.21,2.14,2.14,0,0,0-.68-.08h-.92v2.16H187a2.08,2.08,0,0,0,.54-.07,1.25,1.25,0,0,0,.38-.2.9.9,0,0,0,.25-.33A1.06,1.06,0,0,0,188.21,35.88Z"/><path class="cls-1" d="M8.87.62A8.25,8.25,0,0,0,.63,8.87V34.34a8.25,8.25,0,0,0,8.24,8.24H34.34a8.25,8.25,0,0,0,8.24-8.24V8.87A8.26,8.26,0,0,0,34.34.62H8.87"/><path class="cls-2" d="M8.87.62A8.25,8.25,0,0,0,.63,8.87V34.34a8.25,8.25,0,0,0,8.24,8.24H34.34a8.25,8.25,0,0,0,8.24-8.24V8.87A8.26,8.26,0,0,0,34.34.62H8.87M34.34,43.2H8.87A8.87,8.87,0,0,1,0,34.34V8.87A8.87,8.87,0,0,1,8.87,0H34.34a8.87,8.87,0,0,1,8.87,8.87V34.34A8.87,8.87,0,0,1,34.34,43.2Z"/><path class="cls-3" d="M19.37,6.29a4.48,4.48,0,0,1,2.1-.6,4.49,4.49,0,0,0-3.75,2.24L4.81,30.3a4.47,4.47,0,1,0,7.74,4.47L21.6,19.09,17.74,12.4a4.48,4.48,0,0,1,1.63-6.11"/><path class="cls-2" d="M38.4,30.3,25.48,7.93a4.46,4.46,0,0,0-3.74-2.24,4.47,4.47,0,0,1,3.72,6.71L21.6,19.09l9.06,15.68A4.47,4.47,0,1,0,38.4,30.3"/><path class="cls-4" d="M23.83,6.29a4.45,4.45,0,0,0-2.09-.6h-.27a4.47,4.47,0,0,0-3.73,6.71l3.86,6.69,3.86-6.69a4.46,4.46,0,0,0-1.63-6.11"/><path class="cls-5" d="M26.21,32.57a4.6,4.6,0,1,1-4.6-4.6,4.6,4.6,0,0,1,4.6,4.6"/></g></g></svg>