<?xml version="1.0" encoding="UTF-8"?>
<svg width="80px" height="60px" viewBox="0 0 80 60" version="1.1" xmlns="http://www.w3.org/2000/svg" xmlns:xlink="http://www.w3.org/1999/xlink">
    <!-- Generator: Sketch 56.2 (81672) - https://sketch.com -->
    <title>NoResult</title>
    <desc>Created with Sketch.</desc>
    <g id="Всякие-логотипы" stroke="none" stroke-width="1" fill="none" fill-rule="evenodd">
        <g id="NoResult" transform="translate(40.000000, 30.000000) scale(-1, 1) rotate(180.000000) translate(-40.000000, -30.000000) " fill="#6E7882" fill-rule="nonzero">
            <path d="M78.84,42.48 C78.06,43.5 76.92,44.1 75.6,44.1 L66.96,44.1 L66.78,51.3 C66.78,52.98 65.34,54.36 63.6,54.36 L40.8,54.36 C40.62,54.36 40.38,54.54 40.38,54.72 L39.54,57.18 C39.06,58.86 37.56,60 35.7,60 L16.68,60 C14.94,60 13.32,58.86 12.84,57.18 L12.12,54.72 C12,54.54 11.82,54.36 11.64,54.36 L4.02,54.36 C1.74,54.36 0,52.62 0,50.46 L0,4.8 C0,2.16 2.04,0.06 4.68,0 L4.68,0.18 C4.98,0.06 5.46,0 5.82,0 L63.18,0 C64.8,0 66.42,1.02 66.96,2.7 L79.38,38.88 C79.8,40.08 79.68,41.4 78.84,42.48 Z M4.02,50.88 L11.64,50.88 C13.44,50.88 15,52.02 15.54,53.7 L16.32,56.16 C16.26,56.34 16.5,56.52 16.68,56.52 L35.7,56.52 C35.88,56.52 36.12,56.34 36.12,56.16 L36.96,53.7 C37.44,52.02 39.06,50.88 40.8,50.88 L63.24,50.88 L63.42,44.1 L18.24,44.1 C16.56,44.1 15,43.08 14.46,41.4 L3.54,9.66 L3.54,50.46 C3.54,50.7 3.78,50.88 4.02,50.88 Z M76.08,40.02 L63.6,3.84 C63.54,3.66 63.36,3.48 63.18,3.48 L5.82,3.48 C5.52,3.48 5.46,3.6 5.34,3.66 C5.34,3.84 5.28,3.96 5.34,4.2 L17.82,40.38 C17.88,40.5 18.06,40.68 18.24,40.68 L75.6,40.68 C75.9,40.68 75.96,40.62 76.08,40.5 C76.08,40.38 76.14,40.26 76.08,40.02 Z M28.62,22.56 C28.98,22.56 29.28,22.44 29.58,22.44 C32.82,22.44 36.3,24.06 37.02,27.84 C37.08,28.26 36.84,28.8 36.3,28.86 C35.88,28.98 35.34,28.68 35.28,28.14 C34.68,25.08 31.38,24.06 28.68,24.3 C26.52,24.54 24.06,25.68 24.12,27.9 C24.12,28.44 23.76,28.8 23.22,28.8 C23.22,28.8 23.22,28.8 23.22,28.8 C22.74,28.8 22.38,28.44 22.38,27.9 C22.44,25.08 25.02,22.92 28.62,22.56 Z M64.5,28.86 C64.02,28.98 63.54,28.68 63.42,28.14 C62.82,25.08 59.58,24.06 56.82,24.3 C54.66,24.54 52.2,25.68 52.26,27.9 C52.26,28.44 51.96,28.8 51.42,28.8 C51.42,28.8 51.42,28.8 51.42,28.8 C50.94,28.8 50.52,28.44 50.52,27.9 C50.52,25.08 53.1,22.92 56.64,22.56 C57,22.56 57.36,22.44 57.66,22.44 C60.9,22.44 64.38,24.06 65.1,27.84 C65.28,28.32 64.92,28.8 64.5,28.86 Z M48,16.32 C43.8,17.1 38.34,17.22 33.6,16.5 C29.64,15.9 24.72,14.58 23.4,11.4 C23.22,10.98 23.4,10.44 23.88,10.26 C23.94,10.2 24.12,10.2 24.24,10.2 C24.54,10.2 24.9,10.38 25.02,10.68 C26.4,14.04 37.62,16.5 47.64,14.58 C51.48,13.8 52.8,12.66 52.8,11.94 C52.8,11.52 53.22,11.04 53.7,11.04 C53.7,11.04 53.7,11.04 53.7,11.04 C54.24,11.04 54.54,11.52 54.54,11.94 C54.54,13.98 52.26,15.42 48,16.32 Z" id="Shape"></path>
        </g>
    </g>
</svg>