<svg xmlns="http://www.w3.org/2000/svg" width="52" height="52" viewBox="0 0 52 52">
    <g fill="#FFF" fill-rule="nonzero">
        <path d="M52 35.191c0-7.58-5.107-14.201-12.309-16.197C39.238 8.444 30.515 0 19.855 0 8.907 0 0 8.907 0 19.855c0 3.569.95 7.043 2.753 10.093l-2.68 9.69 9.69-2.68a19.782 19.782 0 0 0 9.23 2.732C20.99 46.893 27.613 52 35.192 52c3.026 0 5.968-.806 8.553-2.337l8.183 2.264-2.264-8.183A16.748 16.748 0 0 0 52 35.191zm-41.756-1.528l-5.801 1.605 1.605-5.801-.366-.572a16.752 16.752 0 0 1-2.635-9.04c0-9.268 7.54-16.808 16.808-16.808 9.269 0 16.81 7.54 16.81 16.808 0 9.269-7.541 16.81-16.81 16.81-3.216 0-6.342-.912-9.039-2.636l-.572-.366zm37.313 13.894l-4.304-1.19-.575.373a13.709 13.709 0 0 1-7.487 2.213c-5.957 0-11.192-3.852-13.046-9.375 9.122-1.052 16.381-8.311 17.433-17.434 5.523 1.855 9.375 7.09 9.375 13.047 0 2.67-.765 5.258-2.213 7.487l-.374.575 1.191 4.304z"/>
        <path d="M18.332 27.523h3.047v3.047h-3.047zM22.902 15.234c0 .866-.352 1.664-.991 2.25l-3.579 3.275v3.718h3.047V22.1l2.589-2.37a6.11 6.11 0 0 0 1.981-4.497 6.1 6.1 0 0 0-6.094-6.093 6.1 6.1 0 0 0-6.093 6.093h3.047a3.05 3.05 0 0 1 3.046-3.046 3.05 3.05 0 0 1 3.047 3.046z"/>
    </g>
</svg>
